<?xml version="1.0" encoding="utf-8"?>
<!-- Generator: Adobe Illustrator 16.0.0, SVG Export Plug-In . SVG Version: 6.00 Build 0)  -->
<!DOCTYPE svg PUBLIC "-//W3C//DTD SVG 1.1//EN" "http://www.w3.org/Graphics/SVG/1.1/DTD/svg11.dtd">
<svg version="1.1" id="MAN" xmlns="http://www.w3.org/2000/svg" xmlns:xlink="http://www.w3.org/1999/xlink" x="0px" y="0px"
	 width="1800px" height="1800px" viewBox="0 0 1800 1800" enable-background="new 0 0 1800 1800" xml:space="preserve">
<g>
	<path fill="#333333" d="M886.355,871.67h53.495c10.102,0,18.296-8.19,18.296-18.292c0-10.102-8.194-18.297-18.296-18.297h-35.2
		v-85.604c0-10.104-8.188-18.294-18.294-18.294c-10.102,0-18.29,8.19-18.29,18.294v103.901
		C868.065,863.479,876.253,871.67,886.355,871.67z"/>
	<path fill="#333333" d="M1023.146,976.574c8.168-5.93,9.996-17.364,4.066-25.551c-5.922-8.177-17.373-10.006-25.551-4.066
		c-101.739,73.761-199.976,3.223-204.197,0.113c-8.101-6-19.54-4.328-25.57,3.771c-6.033,8.099-4.352,19.56,3.747,25.603
		c0.814,0.602,55.267,40.208,128.108,40.208C940.389,1016.651,981.693,1006.637,1023.146,976.574z"/>
	<path fill="#333333" d="M722.023,669.317c-21.604,0-39.12,24.242-39.12,54.165c0,29.916,17.517,54.171,39.12,54.171
		c21.606,0,39.121-24.256,39.121-54.171C761.145,693.56,743.629,669.317,722.023,669.317z"/>
	<path fill="#333333" d="M787.496,653.241c8.102,5.977,19.524,4.298,25.547-3.792c6.03-8.101,4.352-19.559-3.751-25.594
		c-29.785-22.174-104.559-50.742-174.351-0.139c-8.179,5.93-10.004,17.371-4.074,25.546c3.577,4.936,9.162,7.559,14.827,7.559
		c3.721,0,7.478-1.13,10.72-3.485C721.58,606.091,784.808,651.267,787.496,653.241z"/>
	<path fill="#333333" d="M1056.352,669.317c-21.615,0-39.127,24.242-39.127,54.165c0,29.916,17.512,54.171,39.127,54.171
		c21.597,0,39.118-24.256,39.118-54.171C1095.47,693.56,1077.948,669.317,1056.352,669.317z"/>
	<path fill="#333333" d="M990.863,653.241c2.665-1.942,65.915-47.15,131.09,0.094c3.248,2.355,7.001,3.485,10.719,3.485
		c5.67,0,11.252-2.623,14.831-7.559c5.931-8.175,4.11-19.616-4.075-25.546c-69.808-50.607-144.57-22.039-174.353,0.139
		c-8.082,6.016-9.745,17.411-3.763,25.516C971.295,657.476,982.738,659.191,990.863,653.241z"/>
	<path fill="#333333" d="M1044.421,1241.034v-73.482c144.013-55.917,249.028-190.594,261.882-350.876
		c54.584-8.121,96.594-55.29,96.594-112.094c0-52.986-36.558-97.585-85.777-109.929c9.814-23.683,17.381-48.378,22.441-73.552
		c22.416-111.207-3.248-225.034-72.289-320.511c-68.475-94.707-171.558-160.041-290.254-183.967
		c-32.013-6.448-64.617-9.723-96.897-9.723c-101.613,0-200.664,32.694-278.898,92.055
		c-79.953,60.67-134.599,146.725-153.866,242.316c-15.827,78.522-7.48,159.771,24.14,234.966l7.215,17.158
		c-52.042,10.239-91.424,56.193-91.424,111.192c0,57.297,42.746,104.765,98.016,112.271
		c13.167,163.313,122.008,300.019,270.279,353.863v70.313c-293.228,54.776-503.231,269.911-503.231,520.054v32.013h184.187v-64.025
		H317.726c13.115-155.446,121.035-292.501,281.221-370.137l163.441,370.137H604.229v-188.913v-1.533
		c0-16.833-14.332-30.479-32.015-30.479c-17.681,0-32.013,13.646-32.013,30.479v1.533v188.913v19.855v12.157v32.013h1007.448
		v-32.013C1547.649,1510.945,1337.645,1295.811,1044.421,1241.034z M930.688,1458.755l-21.867,237.567h-26.049l-21.862-237.567
		l34.886-28.459L930.688,1458.755z M797.781,1471.487l20.835,226.429l-84.098-190.454L797.781,1471.487z M993.72,1472.462l61.543,35
		l-81.808,185.281L993.72,1472.462z M1081.258,1448.584l-121.021-68.823l84.185-46.617v-26.892
		c30.759,6.287,60.437,14.517,88.879,24.479L1081.258,1448.584z M1338.872,704.582c0,20.803-12.967,38.599-31.229,45.833v-81.098
		v-10.562C1325.905,665.991,1338.872,683.786,1338.872,704.582z M510.122,353.917C543.173,189.945,698.781,70.929,880.12,70.929
		c28.048,0,56.385,2.843,84.252,8.462c102.856,20.733,192.005,77.098,251.014,158.712c58.452,80.838,80.267,176.85,61.413,270.353
		c-2.422,12.005-5.504,23.879-9.232,35.546c-74.684-38.646-176.441-81.161-283.574-95.821
		c-187.071-25.595-203.602-35.866-221.686-88.241l-15.614-45.238L710.842,346.4c-1.075,0.954-97.289,85.933-194.556,164.338
		C501.821,459.388,499.642,405.905,510.122,353.917z M451.313,704.587c0-21.33,13.638-39.487,32.631-46.347v11.077v81.614
		C464.951,744.071,451.313,725.916,451.313,704.587z M547.972,783.466V669.317V636.07v-68.66
		c67.086-53.777,134.851-111.775,173.301-145.113c36.729,56.681,103.2,68.686,254.046,89.32
		c104.311,14.275,205.434,59.292,268.301,92.136v32.317v33.247v114.148c0,191.785-156.039,347.824-347.824,347.824
		C704.004,1131.29,547.972,975.251,547.972,783.466z M895.795,1195.314c28.988,0,57.282-3.03,84.592-8.752v44.335v37.194v27.318
		l-80.547,44.613l-80.231-44.588v-27.344v-37.194v-42.681C844.309,1192.858,869.77,1195.314,895.795,1195.314z M755.582,1306.252
		v26.857l78.91,43.838l-125.97,71.637l-50.614-114.622C689.021,1322.563,721.623,1313.192,755.582,1306.252z M1249.584,1729.075
		v-190.446c0-16.833-14.334-30.479-32.012-30.479c-17.688,0-32.014,13.646-32.014,30.479v190.446h-158.163l165.243-374.213
		c164.844,76.87,276.295,216.041,289.637,374.213H1249.584z"/>
</g>
<g>
</g>
<g>
</g>
<g>
</g>
<g>
</g>
<g>
</g>
<g>
</g>
</svg>
