<?xml version="1.0" encoding="utf-8"?>
<!-- Generator: Adobe Illustrator 16.0.0, SVG Export Plug-In . SVG Version: 6.00 Build 0)  -->
<!DOCTYPE svg PUBLIC "-//W3C//DTD SVG 1.1//EN" "http://www.w3.org/Graphics/SVG/1.1/DTD/svg11.dtd">
<svg version="1.1" id="RESPONSIVE" xmlns="http://www.w3.org/2000/svg" xmlns:xlink="http://www.w3.org/1999/xlink" x="0px" y="0px"
	 width="1800px" height="1800px" viewBox="0 0 1800 1800" enable-background="new 0 0 1800 1800" xml:space="preserve">
<g id="Layer">
	<g>
		<path fill="#333333" d="M1748.663,978.006h-39.578h-49.802H1448.09c-23.352,0-42.35,18.998-42.35,42.354v40.533v49.801v193.7
			v49.801v212.886c0,23.355,18.998,42.354,42.35,42.354h300.573c23.354,0,42.354-18.998,42.354-42.354v-546.721
			C1791.017,997.004,1772.018,978.006,1748.663,978.006z M1741.215,1559.633h-285.674v-205.438v-49.801v-193.7v-49.801v-33.086
			h203.742h49.802h32.13V1559.633z"/>
		<path fill="#333333" d="M1598.133,1479.07c-13.263,0-24.011,10.755-24.011,24.011c0,13.267,10.748,24.012,24.011,24.012
			c13.257,0,24.012-10.745,24.012-24.012C1622.145,1489.825,1611.39,1479.07,1598.133,1479.07z"/>
		<path fill="#333333" d="M1639.063,1060.893c-1.765-0.963-3.763-1.561-5.916-1.561H1563.6c-2.154,0-4.151,0.598-5.916,1.561
			c-3.873,2.111-6.534,6.17-6.534,10.891c0,6.875,5.575,12.45,12.45,12.45h69.547c6.875,0,12.45-5.575,12.45-12.45
			C1645.597,1067.063,1642.936,1063.004,1639.063,1060.893z"/>
		<path fill="#333333" d="M58.785,261.847c0-11.842,8.07-21.479,17.991-21.479h1540.741c9.925,0,17.998,9.636,17.998,21.479v674.657
			h8.007h41.794V261.847c0-39.303-30.413-71.28-67.799-71.28H76.776c-37.382,0-67.792,31.977-67.792,71.28v1021.067
			c0,39.304,30.41,71.28,67.792,71.28h614.065v205.285H453.896c-13.753,0-24.901,11.147-24.901,24.9s11.148,24.901,24.901,24.901
			h261.846h262.823h261.847c13.752,0,24.9-11.148,24.9-24.901s-11.148-24.9-24.9-24.9h-236.946v-205.285h353.185v-48.397v-1.403
			H76.776c-9.921,0-17.991-9.634-17.991-21.479v-172.221H1356.65v-24.06v-25.741H58.785V261.847z M953.664,1559.479H740.644
			v-205.285h213.021V1559.479z"/>
		<path fill="#333333" d="M808.262,1205.613c0,21.476,17.415,38.887,38.886,38.887c21.472,0,38.894-17.411,38.894-38.887
			c0-21.475-17.421-38.89-38.894-38.89C825.677,1166.724,808.262,1184.139,808.262,1205.613z"/>
		<path fill="#333333" d="M273.199,457.516h625.589c13.753,0,24.9-11.148,24.9-24.901s-11.147-24.9-24.9-24.9H273.199
			c-13.753,0-24.9,11.147-24.9,24.9S259.446,457.516,273.199,457.516z"/>
		<path fill="#333333" d="M1421.102,556.41H273.199c-13.753,0-24.9,11.147-24.9,24.9c0,13.753,11.147,24.901,24.9,24.901h1147.902
			c13.753,0,24.9-11.147,24.9-24.901C1446.002,567.558,1434.854,556.41,1421.102,556.41z"/>
		<path fill="#333333" d="M1421.102,705.102H273.199c-13.753,0-24.9,11.148-24.9,24.901s11.147,24.9,24.9,24.9h1147.902
			c13.753,0,24.9-11.147,24.9-24.9S1434.854,705.102,1421.102,705.102z"/>
		<path fill="#333333" d="M1421.102,853.798H273.199c-13.753,0-24.9,11.147-24.9,24.9s11.147,24.901,24.9,24.901h1147.902
			c13.753,0,24.9-11.148,24.9-24.901S1434.854,853.798,1421.102,853.798z"/>
	</g>
</g>
<g>
</g>
<g>
</g>
<g>
</g>
<g>
</g>
<g>
</g>
<g>
</g>
</svg>
