<?xml version="1.0" encoding="utf-8"?>
<!-- Generator: Adobe Illustrator 16.0.0, SVG Export Plug-In . SVG Version: 6.00 Build 0)  -->
<!DOCTYPE svg PUBLIC "-//W3C//DTD SVG 1.1//EN" "http://www.w3.org/Graphics/SVG/1.1/DTD/svg11.dtd">
<svg version="1.1" id="GEAR" xmlns="http://www.w3.org/2000/svg" xmlns:xlink="http://www.w3.org/1999/xlink" x="0px" y="0px"
	 width="1800px" height="1800px" viewBox="0 0 1800 1800" enable-background="new 0 0 1800 1800" xml:space="preserve">
<g id="Layer">
	<g>
		<g>
			<path fill="#333333" d="M1203.175,843.2c-17.272,0-31.273-14-31.273-31.273c0-116.959-117.688-177.271-167.899-177.271
				c-17.272,0-31.273-14.001-31.273-31.273s14.001-31.272,31.273-31.272c80.425,0,230.445,82.364,230.445,239.817
				C1234.447,829.2,1220.447,843.2,1203.175,843.2z"/>
		</g>
		<g>
			<path fill="#333333" d="M1012.309,1788.987H787.691c-15.351,0-28.433-11.143-30.876-26.299l-30.721-190.718
				c-62.62-16.151-122.402-40.937-178.231-73.885L391.23,1611.258c-12.442,8.983-29.575,7.622-40.428-3.237l-158.825-158.829
				c-10.855-10.854-12.227-27.983-3.235-40.427l113.17-156.626c-32.943-55.81-57.731-115.603-73.889-178.231l-190.716-30.723
				c-15.156-2.443-26.299-15.523-26.299-30.876V787.688c0-15.353,11.143-28.433,26.299-30.876l190.716-30.717
				c16.157-62.633,40.945-122.426,73.887-178.237L188.742,391.235c-8.992-12.443-7.62-29.571,3.235-40.429l158.825-158.834
				c10.856-10.854,27.989-12.225,40.428-3.235l156.631,113.17c55.823-32.951,115.604-57.731,178.233-73.885l30.721-190.711
				c2.443-15.157,15.525-26.299,30.876-26.299h224.617c15.353,0,28.433,11.143,30.876,26.299l30.723,190.713
				c62.629,16.151,122.418,40.938,178.231,73.889l156.631-113.172c12.438-8.994,29.563-7.62,40.431,3.235l158.825,158.829
				c10.854,10.855,12.225,27.985,3.232,40.429L1498.09,547.861c32.957,55.832,57.738,115.611,73.89,178.233l190.713,30.717
				c15.156,2.443,26.3,15.523,26.3,30.876v224.621c0,15.353-11.144,28.433-26.3,30.876l-190.718,30.723
				c-16.155,62.629-40.94,122.422-73.885,178.231l113.168,156.631c8.992,12.442,7.622,29.571-3.232,40.431L1449.2,1608.025
				c-10.855,10.859-27.988,12.22-40.431,3.232l-156.64-113.172c-55.81,32.943-115.598,57.729-178.223,73.88l-30.723,190.723
				C1040.741,1777.845,1027.661,1788.987,1012.309,1788.987z M814.331,1726.441h171.338l29.794-184.958
				c2.033-12.613,11.535-22.727,24-25.536c70.089-15.798,136.509-43.327,197.41-81.83c10.789-6.827,24.659-6.404,35.025,1.087
				l151.91,109.756l121.151-121.151l-109.752-151.901c-7.482-10.357-7.914-24.223-1.086-35.025
				c38.498-60.901,66.031-127.325,81.843-197.423c2.81-12.465,12.918-21.963,25.531-23.996l184.95-29.794V814.327l-184.95-29.79
				c-12.613-2.033-22.727-11.535-25.536-24c-15.793-70.076-43.327-136.498-81.838-197.419c-6.828-10.8-6.396-24.667,1.086-35.025
				l109.752-151.897L1423.809,255.04l-151.901,109.756c-10.362,7.482-24.231,7.912-35.029,1.084
				c-60.901-38.504-127.321-66.041-197.415-81.838c-12.465-2.81-21.967-12.918-24-25.533l-29.794-184.95h-171.34l-29.792,184.945
				c-2.033,12.615-11.533,22.724-23.998,25.534c-70.089,15.802-136.511,43.336-197.421,81.836
				c-10.805,6.828-24.667,6.394-35.025-1.086L376.192,255.036L255.04,376.196l109.752,151.893
				c7.484,10.357,7.914,24.225,1.086,35.025c-38.495,60.898-66.031,127.323-81.84,197.428
				c-2.813,12.462-12.921,21.962-25.534,23.995l-184.95,29.79v171.342l184.95,29.794c12.613,2.033,22.722,11.531,25.534,23.996
				c15.806,70.098,43.342,136.521,81.84,197.423c6.828,10.803,6.398,24.668-1.086,35.025L255.04,1423.804l121.152,121.156
				l151.901-109.756c10.353-7.486,24.223-7.919,35.023-1.087c60.923,38.503,127.345,66.036,197.423,81.839
				c12.464,2.81,21.964,12.918,23.998,25.531L814.331,1726.441z"/>
		</g>
		<g>
			<path fill="#333333" d="M900,1380.974c-265.211,0-480.978-215.769-480.978-480.982c0-265.211,215.767-480.978,480.978-480.978
				c265.218,0,480.987,215.767,480.987,480.978C1380.987,1165.205,1165.218,1380.974,900,1380.974z M900,481.56
				c-230.725,0-418.432,187.707-418.432,418.432c0,230.726,187.708,418.437,418.432,418.437
				c230.729,0,418.441-187.711,418.441-418.437C1318.441,669.267,1130.729,481.56,900,481.56z"/>
		</g>
	</g>
</g>
<g>
</g>
<g>
</g>
<g>
</g>
<g>
</g>
<g>
</g>
<g>
</g>
</svg>
