<?xml version="1.0" encoding="utf-8"?>
<!-- Generator: Adobe Illustrator 16.0.0, SVG Export Plug-In . SVG Version: 6.00 Build 0)  -->
<!DOCTYPE svg PUBLIC "-//W3C//DTD SVG 1.1//EN" "http://www.w3.org/Graphics/SVG/1.1/DTD/svg11.dtd">
<svg version="1.1" id="LOCK" xmlns="http://www.w3.org/2000/svg" xmlns:xlink="http://www.w3.org/1999/xlink" x="0px" y="0px"
	 width="1800px" height="1800px" viewBox="0 0 1800 1800" enable-background="new 0 0 1800 1800" xml:space="preserve">
<g>
	<path fill="#333333" d="M900,868.536c-113.664,0-206.139,92.473-206.139,206.145c0,72.752,38.923,140.217,100.683,177.107v167.979
		h210.914v-167.979c61.764-36.891,100.689-104.355,100.689-177.107C1106.146,961.009,1013.669,868.536,900,868.536z
		 M960.627,1204.401l-18.129,8.493v143.914h-84.996v-143.914l-18.129-8.493c-50.148-23.487-82.554-74.403-82.554-129.721
		c0-78.952,64.232-143.185,143.181-143.185c78.952,0,143.189,64.232,143.189,143.185
		C1043.189,1129.998,1010.782,1180.914,960.627,1204.401z"/>
	<path fill="#333333" d="M1306.793,621.365V406.939c-1.094-107.793-43.891-208.955-120.511-284.855
		C1109.604,46.13,1007.934,4.301,899.996,4.301c-107.933,0-209.604,41.83-286.273,117.788
		c-76.617,75.896-119.413,177.057-120.507,285.166v112.333h62.958V407.571c1.898-187.646,156.137-340.313,343.822-340.313
		c187.696,0,341.942,152.667,343.839,339.996v214.11H888.52H192.564v474.124c1.906,187.453,76.336,363.382,209.578,495.369
		C535.485,1722.948,712.296,1795.7,900.004,1795.7c187.708,0,364.519-72.752,497.863-204.843
		c133.242-131.987,207.668-307.916,209.568-495.693V621.365H1306.793z M1544.477,1094.848
		c-3.561,351.735-292.671,637.894-644.472,637.894c-351.796,0-640.912-286.158-644.482-637.577v-410.84h237.693h813.578h237.684
		V1094.848z"/>
</g>
<g>
</g>
<g>
</g>
<g>
</g>
<g>
</g>
<g>
</g>
<g>
</g>
</svg>
