<?xml version="1.0" encoding="utf-8"?>
<!-- Generator: Adobe Illustrator 16.0.0, SVG Export Plug-In . SVG Version: 6.00 Build 0)  -->
<!DOCTYPE svg PUBLIC "-//W3C//DTD SVG 1.1//EN" "http://www.w3.org/Graphics/SVG/1.1/DTD/svg11.dtd">
<svg version="1.1" id="MESSAGE" xmlns="http://www.w3.org/2000/svg" xmlns:xlink="http://www.w3.org/1999/xlink" x="0px" y="0px"
	 width="1800px" height="1800px" viewBox="0 0 1800 1800" enable-background="new 0 0 1800 1800" xml:space="preserve">
<g>
	<g>
		<path fill="#333333" d="M251.485,1662c-5.408,0-10.816-1.398-15.663-4.195c-9.693-5.598-15.663-15.938-15.663-27.13v-201.559
			H86.872c-44.37,0-80.467-36.097-80.467-80.463V380.479c0-44.367,36.098-80.462,80.467-80.462h1467.337
			c44.375,0,80.473,36.095,80.473,80.462v968.174c0,44.366-36.098,80.463-80.473,80.463H663.253l-396.105,228.688
			C262.302,1660.602,256.894,1662,251.485,1662z M86.872,362.667c-9.824,0-17.817,7.991-17.817,17.813v968.174
			c0,9.824,7.993,17.813,17.817,17.813h164.614c17.301,0,31.325,14.023,31.325,31.324v178.629l356.388-205.758
			c4.761-2.749,10.163-4.195,15.662-4.195h899.349c9.829,0,17.822-7.989,17.822-17.813V380.479c0-9.822-7.993-17.813-17.822-17.813
			H86.872z"/>
	</g>
	<g>
		<path fill="#333333" d="M952.785,607.586H253.36c-17.302,0-31.325-14.023-31.325-31.325c0-17.301,14.023-31.325,31.325-31.325
			h699.425c17.301,0,31.324,14.024,31.324,31.325C984.109,593.563,970.086,607.586,952.785,607.586z"/>
	</g>
	<g>
		<path fill="#333333" d="M1387.721,794.601H253.36c-17.302,0-31.325-14.024-31.325-31.325c0-17.302,14.023-31.325,31.325-31.325
			h1134.36c17.302,0,31.326,14.023,31.326,31.325C1419.047,780.577,1405.022,794.601,1387.721,794.601z"/>
	</g>
	<g>
		<path fill="#333333" d="M1387.721,981.611H253.36c-17.302,0-31.325-14.023-31.325-31.324c0-17.302,14.023-31.325,31.325-31.325
			h1134.36c17.302,0,31.326,14.023,31.326,31.325C1419.047,967.588,1405.022,981.611,1387.721,981.611z"/>
	</g>
	<g>
		<path fill="#333333" d="M1387.721,1168.627H253.36c-17.302,0-31.325-14.024-31.325-31.325c0-17.302,14.023-31.325,31.325-31.325
			h1134.36c17.302,0,31.326,14.023,31.326,31.325C1419.047,1154.603,1405.022,1168.627,1387.721,1168.627z"/>
	</g>
	<g>
		<path fill="#333333" d="M1712.124,145H244.786c-44.37,0-80.467,36.097-80.467,80.467v85.476h62.65v-85.476
			c0-9.824,7.993-17.816,17.817-17.816h1467.338c9.828,0,17.821,7.993,17.821,17.816v968.17c0,9.824-7.993,17.813-17.821,17.813
			h-108.769v62.65h108.769c44.374,0,80.472-36.098,80.472-80.463v-968.17C1792.596,181.097,1756.498,145,1712.124,145z"/>
	</g>
</g>
<g>
</g>
<g>
</g>
<g>
</g>
<g>
</g>
<g>
</g>
<g>
</g>
</svg>
