<?xml version="1.0" encoding="utf-8"?>
<!-- Generator: Adobe Illustrator 16.0.0, SVG Export Plug-In . SVG Version: 6.00 Build 0)  -->
<!DOCTYPE svg PUBLIC "-//W3C//DTD SVG 1.1//EN" "http://www.w3.org/Graphics/SVG/1.1/DTD/svg11.dtd">
<svg version="1.1" id="DOWNLOAD" xmlns="http://www.w3.org/2000/svg" xmlns:xlink="http://www.w3.org/1999/xlink" x="0px" y="0px"
	 width="1800px" height="1800px" viewBox="0 0 1800 1800" enable-background="new 0 0 1800 1800" xml:space="preserve">
<g>
	<path fill="#333333" d="M1591.313,488.215c-13.949-100.311-62.488-192.562-137.895-261.369
		c-80.375-73.338-184.605-113.727-293.484-113.727c-137.905,0-266.314,64.672-348.487,174.261
		c-45.448-23.62-96.001-36.004-147.688-36.004c-138.682,0-260.158,88.388-303.7,217.866c-12.225-1.405-24.546-2.112-36.837-2.112
		c-176.729,0-320.505,143.778-320.505,320.505c0,176.725,143.776,320.501,320.505,320.501c5.427,0,11.038-0.147,16.728-0.44
		c0.839,0.077,1.689,0.115,2.547,0.115h33.405c4.649-18.876,10.265-37.37,16.843-55.408h-46.121
		c-1.937-0.293-3.911-0.378-5.905-0.255c-5.995,0.387-11.881,0.58-17.497,0.58c-146.172,0-265.097-118.917-265.097-265.093
		c0-146.174,118.924-265.097,265.097-265.097c17.184,0,34.429,1.67,51.257,4.961c14.471,2.837,28.601-6.149,32.188-20.44
		c29.617-117.917,135.335-200.274,257.093-200.274c50.078,0,98.846,14.039,141.04,40.602c12.746,8.02,29.559,4.396,37.865-8.159
		c70.713-106.887,189.317-170.699,317.27-170.699c196.637,0,359.281,147.372,378.332,342.804c1.07,11.019,8.607,20.341,19.15,23.706
		c110.33,35.196,184.459,136.707,184.459,252.598c0,141.925-110.92,258.198-252.551,264.788c-0.07,0.004-0.139,0.004-0.209,0.008
		c-8.727,0.398-15.997,0.398-24.674,0c-0.426-0.02-0.85-0.027-1.279-0.027h-55.902c6.578,18.038,12.193,36.532,16.84,55.408h38.433
		c4.962,0.217,9.632,0.325,14.246,0.325c4.754,0,9.569-0.112,14.722-0.349c0.059,0,0.119-0.008,0.182-0.008
		c171.364-7.854,305.602-148.479,305.602-320.145C1797.283,653.584,1715.246,535.448,1591.313,488.215z"/>
	<path fill="#333333" d="M900,786.832c-248.142,0-450.02,201.877-450.02,450.021c0,248.146,201.878,450.027,450.02,450.027
		s450.023-201.882,450.023-450.027C1350.023,988.709,1148.142,786.832,900,786.832z M900,1631.473
		c-217.589,0-394.611-177.029-394.611-394.619c0-217.589,177.022-394.613,394.611-394.613
		c217.593,0,394.615,177.024,394.615,394.613C1294.615,1454.443,1117.593,1631.473,900,1631.473z"/>
	<path fill="#333333" d="M1055.823,1255.545L927.704,1383.66V963.679c0-15.297-12.402-27.704-27.704-27.704
		c-15.301,0-27.704,12.407-27.704,27.704v419.981l-128.119-128.115c-10.822-10.822-28.361-10.818-39.183,0
		c-10.818,10.821-10.818,28.361,0,39.179l171.418,171.407c5.411,5.41,12.5,8.115,19.588,8.115c0.688,0,1.372-0.046,2.056-0.1
		c0.646,0.047,1.287,0.1,1.944,0.1s1.299-0.053,1.944-0.1c0.684,0.054,1.368,0.1,2.056,0.1c7.089,0,14.181-2.705,19.588-8.115
		l171.418-171.407c10.818-10.817,10.818-28.357,0-39.179C1084.192,1244.727,1066.646,1244.727,1055.823,1255.545z"/>
</g>
<g>
</g>
<g>
</g>
<g>
</g>
<g>
</g>
<g>
</g>
<g>
</g>
</svg>
