<?xml version="1.0" encoding="utf-8"?>
<!-- Generator: Adobe Illustrator 16.0.0, SVG Export Plug-In . SVG Version: 6.00 Build 0)  -->
<!DOCTYPE svg PUBLIC "-//W3C//DTD SVG 1.1//EN" "http://www.w3.org/Graphics/SVG/1.1/DTD/svg11.dtd">
<svg version="1.1" id="CALENDAR" xmlns="http://www.w3.org/2000/svg" xmlns:xlink="http://www.w3.org/1999/xlink" x="0px" y="0px"
	 width="1800px" height="1800px" viewBox="0 0 1800 1800" enable-background="new 0 0 1800 1800" xml:space="preserve">
<g>
	<path fill="#333333" d="M1704.994,208.972h-323.283V92.869c0-46.782-38.061-84.844-84.844-84.844H1164.02
		c-46.783,0-84.844,38.062-84.844,84.844v116.103H720.82V92.869c0-46.782-38.061-84.844-84.844-84.844H503.129
		c-46.782,0-84.844,38.062-84.844,84.844v116.103H95.006c-46.935,0-85.123,38.061-85.123,84.844v265.97v1147.346
		c0,46.783,38.188,84.844,85.123,84.844h1609.988c46.932,0,85.123-38.061,85.123-84.844V559.785v-265.97
		C1790.117,247.032,1751.926,208.972,1704.994,208.972z M1141.692,271.488v-62.516V92.869c0-12.311,10.013-22.327,22.327-22.327
		h132.848c12.307,0,22.327,10.017,22.327,22.327v116.103v62.516v107.171c0,12.311-10.021,22.327-22.327,22.327H1164.02
		c-12.314,0-22.327-10.017-22.327-22.327V271.488z M480.802,271.488v-62.516V92.869c0-12.311,10.017-22.327,22.327-22.327h132.848
		c12.311,0,22.327,10.017,22.327,22.327v116.103v62.516v107.171c0,12.311-10.017,22.327-22.327,22.327H503.129
		c-12.311,0-22.327-10.017-22.327-22.327V271.488z M1727.601,1707.131c0,12.307-10.144,22.328-22.606,22.328H95.006
		c-12.463,0-22.606-10.021-22.606-22.328V591.043h1655.201V1707.131z M1727.601,528.526H72.4V293.815
		c0-12.311,10.143-22.328,22.606-22.328h323.279v107.171c0,46.782,38.062,84.844,84.844,84.844h132.848
		c46.783,0,84.844-38.062,84.844-84.844V271.488h358.355v107.171c0,46.782,38.061,84.844,84.844,84.844h132.848
		c46.783,0,84.844-38.062,84.844-84.844V271.488h323.283c12.463,0,22.606,10.017,22.606,22.328V528.526z"/>
	<path fill="#333333" d="M378.358,914.669h125.835c35.139,0,63.729-28.592,63.729-63.731V725.101
		c0-35.142-28.589-63.731-63.729-63.731H378.358c-35.144,0-63.733,28.589-63.733,63.731v125.837
		C314.625,886.077,343.214,914.669,378.358,914.669z M377.142,725.101c0-0.669,0.545-1.215,1.216-1.215h125.835
		c0.667,0,1.212,0.545,1.212,1.215v125.837c0,0.669-0.545,1.212-1.212,1.212H378.358c-0.671,0-1.216-0.543-1.216-1.212V725.101z"/>
	<path fill="#333333" d="M837.079,914.669h125.838c35.14,0,63.729-28.592,63.729-63.731V725.101
		c0-35.142-28.589-63.731-63.729-63.731H837.079c-35.144,0-63.733,28.589-63.733,63.731v125.837
		C773.346,886.077,801.936,914.669,837.079,914.669z M835.863,725.101c0-0.669,0.545-1.215,1.216-1.215h125.838
		c0.671,0,1.212,0.545,1.212,1.215v125.837c0,0.669-0.541,1.212-1.212,1.212H837.079c-0.671,0-1.216-0.543-1.216-1.212V725.101z"/>
	<path fill="#333333" d="M1295.803,914.669h125.836c35.147,0,63.736-28.592,63.736-63.731V725.101
		c0-35.142-28.589-63.731-63.736-63.731h-125.836c-35.139,0-63.729,28.589-63.729,63.731v125.837
		C1232.074,886.077,1260.664,914.669,1295.803,914.669z M1294.591,725.101c0-0.669,0.54-1.215,1.212-1.215h125.836
		c0.672,0,1.221,0.545,1.221,1.215v125.837c0,0.669-0.549,1.212-1.221,1.212h-125.836c-0.654,0-1.212-0.556-1.212-1.212V725.101z"/>
	<path fill="#333333" d="M378.358,1278.83h125.835c35.139,0,63.729-28.589,63.729-63.729v-125.835
		c0-35.147-28.589-63.737-63.729-63.737H378.358c-35.144,0-63.733,28.59-63.733,63.737v125.835
		C314.625,1250.241,343.214,1278.83,378.358,1278.83z M377.142,1089.267c0-0.676,0.545-1.221,1.216-1.221h125.835
		c0.667,0,1.212,0.545,1.212,1.221v125.835c0,0.668-0.545,1.213-1.212,1.213H378.358c-0.659,0-1.216-0.559-1.216-1.213V1089.267z"/>
	<path fill="#333333" d="M837.079,1278.83h125.838c35.14,0,63.729-28.589,63.729-63.729v-125.835
		c0-35.147-28.589-63.737-63.729-63.737H837.079c-35.144,0-63.733,28.59-63.733,63.737v125.835
		C773.346,1250.241,801.936,1278.83,837.079,1278.83z M835.863,1089.267c0-0.676,0.545-1.221,1.216-1.221h125.838
		c0.671,0,1.212,0.545,1.212,1.221v125.835c0,0.654-0.558,1.213-1.212,1.213H837.079c-0.658,0-1.216-0.559-1.216-1.213V1089.267z"/>
	<path fill="#333333" d="M1295.803,1278.83h125.836c35.147,0,63.736-28.589,63.736-63.729v-125.835
		c0-35.147-28.589-63.737-63.736-63.737h-125.836c-35.139,0-63.729,28.59-63.729,63.737v125.835
		C1232.074,1250.241,1260.664,1278.83,1295.803,1278.83z M1294.591,1089.267c0-0.676,0.54-1.221,1.212-1.221h125.836
		c0.672,0,1.221,0.545,1.221,1.221v125.835c0,0.654-0.559,1.213-1.221,1.213h-125.836c-0.654,0-1.212-0.559-1.212-1.213V1089.267z"
		/>
	<path fill="#333333" d="M378.358,1642.984h125.835c35.139,0,63.729-28.59,63.729-63.729V1453.42
		c0-35.14-28.589-63.729-63.729-63.729H378.358c-35.144,0-63.733,28.589-63.733,63.729v125.835
		C314.625,1614.395,343.214,1642.984,378.358,1642.984z M377.142,1453.42c0-0.672,0.545-1.213,1.216-1.213h125.835
		c0.667,0,1.212,0.541,1.212,1.213v125.835c0,0.672-0.545,1.212-1.212,1.212H378.358c-0.671,0-1.216-0.54-1.216-1.212V1453.42z"/>
	<path fill="#333333" d="M837.079,1642.984h125.838c35.14,0,63.729-28.59,63.729-63.729V1453.42
		c0-35.14-28.589-63.729-63.729-63.729H837.079c-35.144,0-63.733,28.589-63.733,63.729v125.835
		C773.346,1614.395,801.936,1642.984,837.079,1642.984z M835.863,1453.42c0-0.672,0.545-1.213,1.216-1.213h125.838
		c0.671,0,1.212,0.541,1.212,1.213v125.835c0,0.672-0.541,1.212-1.212,1.212H837.079c-0.671,0-1.216-0.54-1.216-1.212V1453.42z"/>
	<path fill="#333333" d="M1295.803,1642.984h125.836c35.147,0,63.736-28.59,63.736-63.729V1453.42
		c0-35.14-28.589-63.729-63.736-63.729h-125.836c-35.139,0-63.729,28.589-63.729,63.729v125.835
		C1232.074,1614.395,1260.664,1642.984,1295.803,1642.984z M1294.591,1453.42c0-0.672,0.54-1.213,1.212-1.213h125.836
		c0.672,0,1.221,0.541,1.221,1.213v125.835c0,0.672-0.549,1.212-1.221,1.212h-125.836c-0.654,0-1.212-0.553-1.212-1.212V1453.42z"/>
</g>
<g>
</g>
<g>
</g>
<g>
</g>
<g>
</g>
<g>
</g>
<g>
</g>
</svg>
