<?xml version="1.0" encoding="utf-8"?>
<!-- Generator: Adobe Illustrator 16.0.0, SVG Export Plug-In . SVG Version: 6.00 Build 0)  -->
<!DOCTYPE svg PUBLIC "-//W3C//DTD SVG 1.1//EN" "http://www.w3.org/Graphics/SVG/1.1/DTD/svg11.dtd">
<svg version="1.1" id="BOOKMARK" xmlns="http://www.w3.org/2000/svg" xmlns:xlink="http://www.w3.org/1999/xlink" x="0px" y="0px"
	 width="1800px" height="1800px" viewBox="0 0 1800 1800" enable-background="new 0 0 1800 1800" xml:space="preserve">
<g>
	<path fill="#333333" d="M1711.665,9.238H88.343c-43.62,0-79.105,35.478-79.105,79.089v1623.338
		c0,43.611,35.486,79.099,79.105,79.099h1623.322c43.611,0,79.099-35.487,79.099-79.099V88.327
		C1790.764,44.715,1755.276,9.238,1711.665,9.238z M1209.058,73.28h220.448v608.01l-85.529-109.984
		c-5.927-7.619-15.038-12.079-24.69-12.079s-18.765,4.456-24.69,12.079l-85.538,109.988V73.28z M71.796,1711.665V88.327
		c0-9.112,7.423-16.53,16.547-16.53h245.4v1656.407h-245.4C79.219,1728.203,71.796,1720.785,71.796,1711.665z M504.532,1728.203
		h-108.23V71.796h108.23V1728.203z M1728.203,1711.665c0,9.12-7.418,16.538-16.538,16.538H567.09V71.796h579.409v700.058
		c0,17.277,13.999,31.28,31.279,31.28h0.479c9.662,0,18.773-4.459,24.7-12.079l116.328-149.594l116.319,149.594
		c5.926,7.62,15.039,12.079,24.69,12.079h0.489c17.271,0,31.278-14.003,31.278-31.28V71.796h219.602
		c9.12,0,16.538,7.418,16.538,16.53V1711.665z"/>
</g>
<g>
</g>
<g>
</g>
<g>
</g>
<g>
</g>
<g>
</g>
<g>
</g>
</svg>
