<?xml version="1.0" encoding="utf-8"?>
<!-- Generator: Adobe Illustrator 16.0.0, SVG Export Plug-In . SVG Version: 6.00 Build 0)  -->
<!DOCTYPE svg PUBLIC "-//W3C//DTD SVG 1.1//EN" "http://www.w3.org/Graphics/SVG/1.1/DTD/svg11.dtd">
<svg version="1.1" id="ID" xmlns="http://www.w3.org/2000/svg" xmlns:xlink="http://www.w3.org/1999/xlink" x="0px" y="0px"
	 width="1800px" height="1800px" viewBox="0 0 1800 1800" enable-background="new 0 0 1800 1800" xml:space="preserve">
<g>
	<g>
		<path fill="#333333" d="M975.824,1161.939v-7.569c57.861-26.47,98.873-81.339,107.801-144.171
			c24.396-8.848,41.596-32.416,41.596-59.1c0-22.972-12.408-43.534-31.613-54.503c1.998-6.256,3.639-12.565,4.903-18.865
			c10.218-50.672-1.423-102.46-32.774-145.828c-30.846-42.665-77.207-72.085-130.549-82.844
			c-14.346-2.889-28.971-4.354-43.473-4.354c-45.75,0-90.384,14.751-125.688,41.54c-36.353,27.583-61.213,66.775-70,110.353
			c-6.666,33.045-3.944,67.129,7.836,99.109c-19.965,10.732-33.185,31.823-33.185,55.4c0,27.033,17.461,50.681,42.216,59.328
			c9.171,64.328,51.518,119.72,111.282,145.535v5.973c-124.135,28.12-209.728,120.969-209.728,229.471v28.979h108.036v-0.052h11.998
			v0.052h451.071v-28.979C1185.553,1282.908,1099.959,1190.063,975.824,1161.939z M891.715,702.663
			c10.646,0,21.422,1.082,32.024,3.211c38.996,7.871,72.748,29.171,95.025,59.991c20.776,28.726,29.145,62.513,23.796,95.671
			c-28.517-13.312-66.004-27.382-105.436-32.783c-74.119-10.131-75.306-13.578-79.721-26.388l-14.153-40.951l-32.548,28.804
			c-3.464,3.045-29.694,26.1-59.956,51.178c-0.838-11.125-0.14-22.277,2.094-33.351
			C765.153,746.982,823.557,702.663,891.715,702.663z M768.923,901.422c20.323-16.443,40.401-33.424,54.93-45.885
			c20.139,18.163,51.536,23.272,105.41,30.641c36.544,5,72.382,19.633,98.306,32.487v65.31c0,71.313-58.01,129.322-129.318,129.322
			c-71.317,0-129.327-58.01-129.327-129.322V901.422z M882.134,1170.543c11.98,1.057,23.892,0.93,35.732-0.318v17.893l-17.914,9.931
			l-17.818-9.899V1170.543z M675.364,1362.4c13.307-64.903,70.296-118.855,148.812-140.705v0.559l75.724,42.072l75.925-42.051v-0.58
			c78.524,21.85,135.522,75.814,148.813,140.731l-390.391-0.048v0.021H675.364z"/>
	</g>
	<g>
		<path fill="#333333" d="M1185.553,1546.793H614.448c-17.273,0-31.274-14-31.274-31.273s14.001-31.273,31.274-31.273h571.104
			c17.272,0,31.273,14,31.273,31.273S1202.825,1546.793,1185.553,1546.793z"/>
	</g>
	<g>
		<path fill="#333333" d="M1581.322,190.83h-529.979V95.817c0-46.806-38.08-84.886-84.886-84.886H833.543
			c-46.806,0-84.886,38.08-84.886,84.886v95.012H218.679c-46.807,0-84.886,38.08-84.886,84.886v1428.468
			c0,46.805,38.08,84.885,84.886,84.885h1362.644c46.805,0,84.885-38.08,84.885-84.885V275.716
			C1666.207,228.909,1628.127,190.83,1581.322,190.83z M811.205,95.817c0-12.317,10.021-22.339,22.338-22.339h132.914
			c12.316,0,22.338,10.022,22.338,22.339v95.012v62.547v128.372c0,12.316-10.021,22.338-22.338,22.338H833.543
			c-12.316,0-22.338-10.021-22.338-22.338V253.377V190.83V95.817z M1603.66,1704.184c0,12.316-10.021,22.338-22.338,22.338H218.679
			c-12.317,0-22.339-10.021-22.339-22.338V275.716c0-12.317,10.022-22.339,22.339-22.339h529.979v128.372
			c0,46.806,38.08,84.886,84.886,84.886h132.914c46.806,0,84.886-38.08,84.886-84.886V253.377h529.979
			c12.316,0,22.338,10.022,22.338,22.339V1704.184z"/>
	</g>
</g>
<g>
</g>
<g>
</g>
<g>
</g>
<g>
</g>
<g>
</g>
<g>
</g>
</svg>
