<?xml version="1.0" encoding="utf-8"?>
<!-- Generator: Adobe Illustrator 16.0.0, SVG Export Plug-In . SVG Version: 6.00 Build 0)  -->
<!DOCTYPE svg PUBLIC "-//W3C//DTD SVG 1.1//EN" "http://www.w3.org/Graphics/SVG/1.1/DTD/svg11.dtd">
<svg version="1.1" id="HOURGLASS" xmlns="http://www.w3.org/2000/svg" xmlns:xlink="http://www.w3.org/1999/xlink" x="0px" y="0px"
	 width="1800px" height="1800px" viewBox="0 0 1800 1800" enable-background="new 0 0 1800 1800" xml:space="preserve">
<g>
	<path fill="#333333" d="M1291.915,534.357v-332.82h205.125c17.342,0,31.397-14.056,31.397-31.396V33.361
		c0-17.34-14.056-31.396-31.397-31.396H302.959c-17.34,0-31.396,14.055-31.396,31.396v136.779c0,17.341,14.056,31.396,31.396,31.396
		h205.126v332.82c0,163.429,98.684,304.023,239.057,364.271c-140.373,60.465-239.057,201.569-239.057,365.587v334.248H302.959
		c-17.34,0-31.396,14.056-31.396,31.396v136.779c0,17.34,14.056,31.396,31.396,31.396H1497.04c17.342,0,31.397-14.056,31.397-31.396
		v-136.779c0-17.34-14.056-31.396-31.397-31.396h-205.125v-334.248c0-164.019-98.686-305.122-239.057-365.587
		C1193.229,838.381,1291.915,697.787,1291.915,534.357z M334.355,64.758h1131.289v73.987H1260.52H539.48H334.355V64.758z
		 M1229.124,201.537v301.424H570.876V201.537H1229.124z M624.024,1591.386L900,1365.789l275.973,225.597H624.024z
		 M1465.645,1735.243H334.355v-73.987H539.48h721.039h205.125V1735.243z M1229.124,1264.216v289.515l-309.252-252.802
		c-11.559-9.447-28.183-9.447-39.742,0L570.876,1553.73v-289.515c0-184.304,147.644-334.248,329.124-334.248
		C1081.477,929.968,1229.124,1079.912,1229.124,1264.216z M900,867.177c-171.004,0-311.915-132.581-327.617-301.424h655.234
		C1211.914,734.596,1071.004,867.177,900,867.177z"/>
	<path fill="#333333" d="M900,1172.91c17.34,0,31.396-14.056,31.396-31.397v-105.4c0-17.34-14.056-31.396-31.396-31.396
		c-17.34,0-31.396,14.056-31.396,31.396v105.4C868.604,1158.854,882.66,1172.91,900,1172.91z"/>
</g>
<g>
</g>
<g>
</g>
<g>
</g>
<g>
</g>
<g>
</g>
<g>
</g>
</svg>
