<?xml version="1.0" encoding="utf-8"?>
<!-- Generator: Adobe Illustrator 16.0.0, SVG Export Plug-In . SVG Version: 6.00 Build 0)  -->
<!DOCTYPE svg PUBLIC "-//W3C//DTD SVG 1.1//EN" "http://www.w3.org/Graphics/SVG/1.1/DTD/svg11.dtd">
<svg version="1.1" id="FOLDERS" xmlns="http://www.w3.org/2000/svg" xmlns:xlink="http://www.w3.org/1999/xlink" x="0px" y="0px"
	 width="1800px" height="1800px" viewBox="0 0 1800 1800" enable-background="new 0 0 1800 1800" xml:space="preserve">
<g>
	<g>
		<g>
			<path fill="#333333" d="M404.006,1798.767H88.317c-46.674,0-84.646-37.972-84.646-84.646V85.879
				c0-46.674,37.972-84.646,84.646-84.646h315.688c46.669,0,84.637,37.972,84.637,84.646v1628.242
				C488.643,1760.795,450.675,1798.767,404.006,1798.767z M88.317,64.304c-11.896,0-21.575,9.679-21.575,21.575v1628.242
				c0,11.896,9.679,21.574,21.575,21.574h315.688c11.892,0,21.566-9.678,21.566-21.574V85.879c0-11.896-9.674-21.575-21.566-21.575
				H88.317z"/>
		</g>
		<g>
			<path fill="#333333" d="M246.157,1623.078c-69.556,0-126.142-56.586-126.142-126.141c0-69.557,56.586-126.143,126.142-126.143
				s126.142,56.586,126.142,126.143C372.299,1566.492,315.713,1623.078,246.157,1623.078z M246.157,1433.866
				c-34.778,0-63.07,28.293-63.07,63.071c0,34.777,28.292,63.07,63.07,63.07s63.071-28.293,63.071-63.07
				C309.228,1462.159,280.935,1433.866,246.157,1433.866z"/>
		</g>
		<g>
			<path fill="#333333" d="M335.149,726.573H157.165c-17.418,0-31.535-14.118-31.535-31.535c0-17.418,14.117-31.536,31.535-31.536
				h177.984c17.418,0,31.536,14.118,31.536,31.536C366.685,712.455,352.567,726.573,335.149,726.573z"/>
		</g>
		<g>
			<path fill="#333333" d="M335.149,591.422H157.165c-17.418,0-31.535-14.118-31.535-31.536s14.117-31.536,31.535-31.536h177.984
				c17.418,0,31.536,14.118,31.536,31.536S352.567,591.422,335.149,591.422z"/>
		</g>
		<g>
			<path fill="#333333" d="M335.149,456.27H157.165c-17.418,0-31.535-14.118-31.535-31.536c0-17.417,14.117-31.535,31.535-31.535
				h177.984c17.418,0,31.536,14.118,31.536,31.535C366.685,442.152,352.567,456.27,335.149,456.27z"/>
		</g>
		<g>
			<path fill="#333333" d="M335.149,321.119H157.165c-17.418,0-31.535-14.118-31.535-31.536c0-17.417,14.117-31.535,31.535-31.535
				h177.984c17.418,0,31.536,14.118,31.536,31.535C366.685,307.001,352.567,321.119,335.149,321.119z"/>
		</g>
	</g>
	<g>
		<g>
			<path fill="#333333" d="M1057.852,1798.767h-315.69c-46.674,0-84.646-37.972-84.646-84.646V85.879
				c0-46.674,37.972-84.646,84.646-84.646h315.69c46.67,0,84.637,37.972,84.637,84.646v1628.242
				C1142.488,1760.795,1104.521,1798.767,1057.852,1798.767z M742.162,64.304c-11.896,0-21.575,9.679-21.575,21.575v1628.242
				c0,11.896,9.679,21.574,21.575,21.574h315.69c11.893,0,21.566-9.678,21.566-21.574V85.879c0-11.896-9.674-21.575-21.566-21.575
				H742.162z"/>
		</g>
		<g>
			<path fill="#333333" d="M899.997,1623.078c-69.556,0-126.142-56.586-126.142-126.141c0-69.557,56.586-126.143,126.142-126.143
				c69.558,0,126.144,56.586,126.144,126.143C1026.141,1566.492,969.555,1623.078,899.997,1623.078z M899.997,1433.866
				c-34.778,0-63.071,28.293-63.071,63.071c0,34.777,28.293,63.07,63.071,63.07c34.78,0,63.073-28.293,63.073-63.07
				C963.07,1462.159,934.777,1433.866,899.997,1433.866z"/>
		</g>
		<g>
			<path fill="#333333" d="M988.992,726.573H811.005c-17.418,0-31.536-14.118-31.536-31.535c0-17.418,14.118-31.536,31.536-31.536
				h177.987c17.416,0,31.535,14.118,31.535,31.536C1020.527,712.455,1006.408,726.573,988.992,726.573z"/>
		</g>
		<g>
			<path fill="#333333" d="M988.992,591.422H811.005c-17.418,0-31.536-14.118-31.536-31.536s14.118-31.536,31.536-31.536h177.987
				c17.416,0,31.535,14.118,31.535,31.536S1006.408,591.422,988.992,591.422z"/>
		</g>
		<g>
			<path fill="#333333" d="M988.992,456.27H811.005c-17.418,0-31.536-14.118-31.536-31.536c0-17.417,14.118-31.535,31.536-31.535
				h177.987c17.416,0,31.535,14.118,31.535,31.535C1020.527,442.152,1006.408,456.27,988.992,456.27z"/>
		</g>
		<g>
			<path fill="#333333" d="M988.992,321.119H811.005c-17.418,0-31.536-14.118-31.536-31.536c0-17.417,14.118-31.535,31.536-31.535
				h177.987c17.416,0,31.535,14.118,31.535,31.535C1020.527,307.001,1006.408,321.119,988.992,321.119z"/>
		</g>
	</g>
	<g>
		<g>
			<path fill="#333333" d="M1711.691,1798.767h-315.688c-46.674,0-84.646-37.972-84.646-84.646V85.879
				c0-46.674,37.973-84.646,84.646-84.646h315.688c46.67,0,84.637,37.972,84.637,84.646v1628.242
				C1796.328,1760.795,1758.361,1798.767,1711.691,1798.767z M1396.004,64.304c-11.896,0-21.575,9.679-21.575,21.575v1628.242
				c0,11.896,9.679,21.574,21.575,21.574h315.688c11.892,0,21.566-9.678,21.566-21.574V85.879c0-11.896-9.675-21.575-21.566-21.575
				H1396.004z"/>
		</g>
		<g>
			<path fill="#333333" d="M1553.839,1623.078c-69.556,0-126.142-56.586-126.142-126.141c0-69.557,56.586-126.143,126.142-126.143
				s126.142,56.586,126.142,126.143C1679.98,1566.492,1623.395,1623.078,1553.839,1623.078z M1553.839,1433.866
				c-34.778,0-63.071,28.293-63.071,63.071c0,34.777,28.293,63.07,63.071,63.07s63.07-28.293,63.07-63.07
				C1616.909,1462.159,1588.617,1433.866,1553.839,1433.866z"/>
		</g>
		<g>
			<path fill="#333333" d="M1642.831,726.573h-177.985c-17.417,0-31.535-14.118-31.535-31.535c0-17.418,14.118-31.536,31.535-31.536
				h177.985c17.417,0,31.535,14.118,31.535,31.536C1674.366,712.455,1660.248,726.573,1642.831,726.573z"/>
		</g>
		<g>
			<path fill="#333333" d="M1642.831,591.422h-177.985c-17.417,0-31.535-14.118-31.535-31.536s14.118-31.536,31.535-31.536h177.985
				c17.417,0,31.535,14.118,31.535,31.536S1660.248,591.422,1642.831,591.422z"/>
		</g>
		<g>
			<path fill="#333333" d="M1642.831,456.27h-177.985c-17.417,0-31.535-14.118-31.535-31.536c0-17.417,14.118-31.535,31.535-31.535
				h177.985c17.417,0,31.535,14.118,31.535,31.535C1674.366,442.152,1660.248,456.27,1642.831,456.27z"/>
		</g>
		<g>
			<path fill="#333333" d="M1642.831,321.119h-177.985c-17.417,0-31.535-14.118-31.535-31.536c0-17.417,14.118-31.535,31.535-31.535
				h177.985c17.417,0,31.535,14.118,31.535,31.535C1674.366,307.001,1660.248,321.119,1642.831,321.119z"/>
		</g>
	</g>
</g>
<g>
</g>
<g>
</g>
<g>
</g>
<g>
</g>
<g>
</g>
<g>
</g>
</svg>
