<?xml version="1.0" encoding="utf-8"?>
<!-- Generator: Adobe Illustrator 16.0.0, SVG Export Plug-In . SVG Version: 6.00 Build 0)  -->
<!DOCTYPE svg PUBLIC "-//W3C//DTD SVG 1.1//EN" "http://www.w3.org/Graphics/SVG/1.1/DTD/svg11.dtd">
<svg version="1.1" id="PLANE" xmlns="http://www.w3.org/2000/svg" xmlns:xlink="http://www.w3.org/1999/xlink" x="0px" y="0px"
	 width="1800px" height="1800px" viewBox="0 0 1800 1800" enable-background="new 0 0 1800 1800" xml:space="preserve">
<g>
	<path fill="#333333" d="M386.031,992.783c-36.026-8.398-72.354-12.654-107.972-12.654c-140.65,0-250.633,66.393-273.68,165.215
		c-1.902,8.152-0.486,16.732,3.936,23.842c4.422,7.112,11.486,12.173,19.642,14.076l297.505,69.352
		c2.37,0.551,4.774,0.824,7.168,0.824c5.844,0,11.627-1.626,16.673-4.762c7.111-4.422,12.174-11.486,14.074-19.644l46.233-198.335
		C413.567,1013.718,403.01,996.743,386.031,992.783z M309.05,1183.953l-231.384-53.941c30.558-52.924,106.292-86.74,200.393-86.74
		c20.648,0,41.61,1.66,62.629,4.959L309.05,1183.953z"/>
	<path fill="#333333" d="M769.296,1390.383l-198.337,46.234c-8.152,1.902-15.22,6.963-19.642,14.076
		c-4.422,7.108-5.838,15.684-3.938,23.841l69.361,297.505c1.903,8.152,6.965,15.218,14.077,19.64
		c5.045,3.136,10.826,4.761,16.67,4.761c2.396,0,4.801-0.272,7.17-0.823c63.591-14.834,114.127-64.375,142.315-139.501
		c26.523-70.695,30.157-156.691,10.236-242.15C803.25,1396.986,786.289,1386.428,769.296,1390.383z M669.966,1722.238
		l-53.923-231.293l135.68-31.629C769.719,1575.854,735.418,1683.973,669.966,1722.238z"/>
	<path fill="#333333" d="M1749.964,50.705l-0.669-0.67C1717.513,19.196,1674.71,3.56,1622.073,3.56
		c-141.686,0-344.219,115.18-542.012,300.716c-155.688-31.738-309.056-47.237-468.317-47.237
		c-143.357,0-276.743,12.425-388.313,24.576c-13.887,1.516-25.129,11.972-27.64,25.713c-2.509,13.742,4.31,27.501,16.765,33.822
		l575.578,292.233C677.958,774.113,589.367,902.18,528.54,1009.066c-96.224,169.086-117.785,276.479-65.928,328.311
		c18.338,18.348,43.994,27.654,76.256,27.654c147.394,0,431.964-200.379,627.669-353.3l292.295,575.701
		c5.453,10.733,16.42,17.278,28.145,17.278c1.876,0,3.779-0.167,5.682-0.516c13.742-2.506,24.198-13.75,25.713-27.637
		c25.651-235.5,46.965-514.956-22.718-856.867c178.449-190.738,293.079-387.342,300.407-527.416
		C1799.153,133.046,1783.649,85.412,1749.964,50.705z M825.871,581.728l-488.63-248.087c84.415-7.585,177.287-13.46,274.503-13.46
		c140.48,0,276.26,12.367,413.262,37.684c-43.568,43.996-86.608,91.237-128.396,141.263c-13.574,16.305-26.884,32.478-39.965,48.533
		L825.871,581.728z M1466.412,1462.885l-248.149-488.758l34.531-31.193c17.613-14.331,33.772-27.65,48.113-39.586
		c49.902-41.688,97.145-84.785,141.197-128.521C1491.223,1040.145,1484.836,1261.03,1466.412,1462.885z M1733.003,188.981
		c-6.84,130.833-127.706,327.336-309.389,514.582l-211.918,191.412c-309.505,252.092-564.693,406.916-672.828,406.916
		c-14.9,0-25.53-3.08-31.608-9.162c-7.184-7.18-37.279-53.1,76.157-252.43c71.101-124.937,181.572-280.174,321.064-451.4
		L1098.498,374.1c192.72-186.977,392.936-307.397,523.575-307.397c35.442,0,63.336,9.526,82.909,28.315
		C1725.705,116.604,1735.13,148.214,1733.003,188.981z"/>
</g>
<g>
</g>
<g>
</g>
<g>
</g>
<g>
</g>
<g>
</g>
<g>
</g>
</svg>
