<?xml version="1.0" encoding="utf-8"?>
<!-- Generator: Adobe Illustrator 16.0.0, SVG Export Plug-In . SVG Version: 6.00 Build 0)  -->
<!DOCTYPE svg PUBLIC "-//W3C//DTD SVG 1.1//EN" "http://www.w3.org/Graphics/SVG/1.1/DTD/svg11.dtd">
<svg version="1.1" id="KEY" xmlns="http://www.w3.org/2000/svg" xmlns:xlink="http://www.w3.org/1999/xlink" x="0px" y="0px"
	 width="1800px" height="1800px" viewBox="0 0 1800 1800" enable-background="new 0 0 1800 1800" xml:space="preserve">
<g>
	<g>
		<path fill="#333333" d="M246.051,1796.104c-2.663,0-5.348-0.336-7.992-1.025l-166.817-43.505
			c-11.095-2.895-19.762-11.557-22.656-22.654L5.044,1562.08c-2.839-10.881,0.3-22.446,8.251-30.397l101.307-101.312
			c0.476-0.544,0.968-1.069,1.481-1.587l668.3-668.298c-43.625-93.255-59.486-199.569-44.681-301.964
			c16.48-114,68.356-217.425,150.023-299.096C990.027,59.131,1123.381,3.896,1265.223,3.896
			c141.839,0,275.184,55.23,375.479,155.521c207.043,207.047,207.043,543.934,0,750.977
			c-100.277,100.277-233.622,155.512-375.456,155.517c-77.911,0.005-155.419-17.284-225.608-50.161l-198.6,198.589
			c-5.219,5.22-12.101,8.454-19.45,9.14l-96.017,8.972l-8.967,96.021c-0.686,7.35-3.92,14.23-9.14,19.454l-0.805,0.805
			c-5.224,5.219-12.104,8.454-19.454,9.14l-96.02,8.967l-8.965,96.018c-0.689,7.371-3.938,14.27-9.184,19.498l-1.237,1.233
			c-5.215,5.197-12.081,8.414-19.413,9.1l-95.584,8.927l-8.925,95.58c-0.688,7.354-3.92,14.235-9.144,19.459l-67.392,67.384
			c-0.521,0.521-1.057,1.021-1.604,1.498l-101.283,101.289C262.438,1792.842,254.346,1796.104,246.051,1796.104z M105.198,1694.951
			l131.287,34.242l90.004-90.012c0.518-0.517,1.05-1.017,1.598-1.494l57.77-57.762l10.304-110.354
			c1.417-15.167,13.429-27.18,28.596-28.598l96.718-9.034l9.069-97.144c1.416-15.168,13.429-27.18,28.596-28.599l96.753-9.038
			l9.038-96.755c1.419-15.163,13.427-27.176,28.594-28.594l110.792-10.351l206.612-206.602c9.797-9.802,24.846-12.091,37.114-5.652
			c66.53,34.905,141.635,53.353,217.198,53.348c124.917-0.005,242.346-48.646,330.656-136.959
			c182.347-182.343,182.347-479.03,0-661.377c-88.318-88.323-205.758-136.964-330.674-136.964
			c-124.92,0-242.363,48.645-330.699,136.977C788.967,349.79,755.365,569.959,850.918,752.09
			c6.444,12.277,4.154,27.312-5.648,37.119l-682.855,682.847c-0.473,0.543-0.966,1.073-1.479,1.586l-90.005,90.003L105.198,1694.951
			z"/>
	</g>
	<g>
		<path fill="#333333" d="M1273.541,713.839c-48.809,0-94.691-19.008-129.203-53.524c-71.242-71.242-71.246-187.168-0.01-258.411
			c34.512-34.512,80.395-53.52,129.203-53.52s94.701,19.008,129.217,53.52c34.516,34.516,53.523,80.403,53.523,129.208
			c0,48.809-19.008,94.696-53.523,129.208C1368.236,694.831,1322.35,713.839,1273.541,713.839z M1273.531,411.742
			c-31.881,0-61.854,12.414-84.398,34.958c-46.541,46.541-46.537,122.273,0.01,168.814c22.543,22.548,52.516,34.967,84.398,34.967
			c31.887,0,61.863-12.418,84.407-34.967c22.548-22.543,34.966-52.517,34.966-84.403c0-31.882-12.418-61.859-34.966-84.403
			C1335.4,424.161,1305.418,411.742,1273.531,411.742z"/>
	</g>
</g>
<g>
</g>
<g>
</g>
<g>
</g>
<g>
</g>
<g>
</g>
<g>
</g>
</svg>
