<?xml version="1.0" encoding="utf-8"?>
<!-- Generator: Adobe Illustrator 16.0.0, SVG Export Plug-In . SVG Version: 6.00 Build 0)  -->
<!DOCTYPE svg PUBLIC "-//W3C//DTD SVG 1.1//EN" "http://www.w3.org/Graphics/SVG/1.1/DTD/svg11.dtd">
<svg version="1.1" id="SIGN" xmlns="http://www.w3.org/2000/svg" xmlns:xlink="http://www.w3.org/1999/xlink" x="0px" y="0px"
	 width="1800px" height="1800px" viewBox="0 0 1800 1800" enable-background="new 0 0 1800 1800" xml:space="preserve">
<g>
	<path fill="#333333" d="M1712.873,820.293l-198.091-185.002c-5.813-5.427-13.466-8.446-21.414-8.446h-269.041
		c-1.497-0.219-3.028-0.333-4.585-0.333H925.895V557.06h459.658c17.326,0,31.37-14.039,31.37-31.37V155.012
		c0-17.326-14.044-31.37-31.37-31.37H925.895V34.977c0-17.33-14.044-31.369-31.37-31.369s-31.37,14.04-31.37,31.369v88.666H580.263
		c-1.541,0-3.055,0.114-4.534,0.333H306.631c-7.948,0-15.602,3.019-21.414,8.446L87.126,317.427
		c-6.351,5.931-9.957,14.232-9.957,22.924s3.606,16.994,9.957,22.923L285.218,548.29c5.812,5.427,13.466,8.442,21.414,8.442h269.063
		c1.492,0.214,3.015,0.328,4.569,0.328h282.892v69.453H414.452c-17.327,0-31.37,14.043-31.37,31.369v370.687
		c0,17.326,14.043,31.37,31.37,31.37h448.703v311.637c-115.444,13.001-207.037,96.86-224.778,205.702H429.169
		c-17.326,0-31.37,14.043-31.37,31.368v156.378c0,17.325,14.043,31.368,31.37,31.368h930.711c17.326,0,31.369-14.043,31.369-31.368
		v-156.378c0-17.325-14.043-31.368-31.369-31.368h-209.207c-17.742-108.842-109.339-192.701-224.779-205.702v-311.637h293.848
		c1.539,0,3.054-0.113,4.533-0.333h269.093c7.948,0,15.602-3.02,21.414-8.445l198.091-185.016c6.351-5.93,9.957-14.232,9.957-22.923
		C1722.83,834.529,1719.224,826.228,1712.873,820.293z M584.832,494.32c-1.492-0.219-3.015-0.328-4.569-0.328h-261.26L154.5,340.351
		l164.502-153.636h261.26c1.541,0,3.055-0.114,4.534-0.333h278.358h62.739h428.289V494.32H925.895h-62.739H584.832z
		 M1328.512,1733.653H460.54v-93.638h206.144h455.684h206.145V1733.653z M1086.853,1577.277h-384.66
		c18.788-83.375,97.479-144.788,192.332-144.788C989.365,1432.489,1068.061,1493.911,1086.853,1577.277z M1480.997,996.866h-261.255
		c-1.56,0-3.091,0.114-4.588,0.332h-289.26h-62.739H445.822V689.252h417.333h62.739h289.26c1.497,0.219,3.028,0.333,4.588,0.333
		h261.255L1645.5,843.221L1480.997,996.866z"/>
</g>
<g>
</g>
<g>
</g>
<g>
</g>
<g>
</g>
<g>
</g>
<g>
</g>
</svg>
