<?xml version="1.0" encoding="utf-8"?>
<!-- Generator: Adobe Illustrator 16.0.0, SVG Export Plug-In . SVG Version: 6.00 Build 0)  -->
<!DOCTYPE svg PUBLIC "-//W3C//DTD SVG 1.1//EN" "http://www.w3.org/Graphics/SVG/1.1/DTD/svg11.dtd">
<svg version="1.1" id="COMPASS" xmlns="http://www.w3.org/2000/svg" xmlns:xlink="http://www.w3.org/1999/xlink" x="0px" y="0px"
	 width="1800px" height="1800px" viewBox="0 0 1800 1800" enable-background="new 0 0 1800 1800" xml:space="preserve">
<g>
	<path fill="#333333" d="M1378.086,379.348L767.847,755.444c-0.07,0.044-0.132,0.097-0.202,0.141
		c-0.521,0.324-1.011,0.701-1.516,1.055c-0.456,0.329-0.933,0.64-1.375,0.991c-0.459,0.368-0.885,0.779-1.328,1.173
		c-0.438,0.39-0.889,0.762-1.3,1.179c-0.408,0.403-0.78,0.849-1.166,1.283c-0.394,0.447-0.811,0.876-1.182,1.345
		c-0.351,0.438-0.662,0.912-0.991,1.376c-0.359,0.5-0.727,0.99-1.055,1.511c-0.044,0.07-0.096,0.131-0.141,0.202l-376.101,610.235
		c-7.635,12.384-5.761,28.392,4.525,38.676c6.058,6.059,14.102,9.2,22.214,9.2c5.668,0,11.371-1.528,16.466-4.67l610.24-376.093
		c0.071-0.043,0.131-0.095,0.202-0.14c0.521-0.328,1.012-0.696,1.516-1.056c0.455-0.329,0.932-0.64,1.376-0.99
		c0.464-0.372,0.893-0.788,1.339-1.183c0.43-0.386,0.878-0.758,1.288-1.166c0.413-0.41,0.784-0.862,1.174-1.3
		c0.396-0.442,0.807-0.867,1.175-1.327c0.35-0.441,0.66-0.92,0.99-1.375c0.359-0.505,0.726-0.994,1.055-1.517
		c0.044-0.071,0.097-0.131,0.141-0.201l376.101-610.24c7.635-12.385,5.761-28.391-4.526-38.681
		C1406.481,373.587,1390.466,371.713,1378.086,379.348z M504.352,1296.283l285.853-463.813l177.963,177.961L504.352,1296.283z
		 M1012.574,966.025l-177.96-177.964l463.813-285.849L1012.574,966.025z"/>
	<path fill="#333333" d="M1796.481,899.244L1796.481,899.244C1796.478,405.69,1394.943,4.158,901.394,4.154h-0.002l0,0
		c-0.002,0-0.004,0-0.004,0c-493.55,0-895.082,401.533-895.086,895.09l0,0l0,0v0.004c0,493.552,401.533,895.086,895.086,895.086
		c0,0,0.002,0,0.004,0l0,0h0.002c493.555-0.004,895.088-401.538,895.088-895.086V899.244L1796.481,899.244z M964.073,1729.182
		c-1.247-33.586-28.789-60.447-62.682-60.447s-61.436,26.861-62.681,60.447c-409.067-30.599-736.657-358.192-767.26-767.256
		c33.588-1.244,60.45-28.789,60.45-62.682s-26.862-61.433-60.447-62.681C102.058,427.497,429.646,99.907,838.711,69.304
		c1.245,33.588,28.788,60.45,62.681,60.45s61.435-26.862,62.682-60.448c409.063,30.604,736.653,358.195,767.256,767.257
		c-33.586,1.249-60.446,28.789-60.446,62.681s26.86,61.438,60.446,62.682C1700.727,1370.989,1373.136,1698.575,964.073,1729.182z"/>
</g>
<g>
</g>
<g>
</g>
<g>
</g>
<g>
</g>
<g>
</g>
<g>
</g>
</svg>
