<?xml version="1.0" encoding="utf-8"?>
<!-- Generator: Adobe Illustrator 16.0.0, SVG Export Plug-In . SVG Version: 6.00 Build 0)  -->
<!DOCTYPE svg PUBLIC "-//W3C//DTD SVG 1.1//EN" "http://www.w3.org/Graphics/SVG/1.1/DTD/svg11.dtd">
<svg version="1.1" id="TURN_OFF" xmlns="http://www.w3.org/2000/svg" xmlns:xlink="http://www.w3.org/1999/xlink" x="0px" y="0px"
	 width="1800px" height="1800px" viewBox="0 0 1800 1800" enable-background="new 0 0 1800 1800" xml:space="preserve">
<g>
	<path fill="#333333" d="M899.996,6.911C405.643,6.911,3.458,409.103,3.458,903.462C3.458,1397.811,405.643,1800,899.996,1800
		c494.357,0,896.546-402.189,896.546-896.538C1796.542,409.103,1394.353,6.911,899.996,6.911z M899.996,1737.1
		c-459.667,0-833.637-373.97-833.637-833.638c0-459.679,373.969-833.649,833.637-833.649c459.672,0,833.644,373.971,833.644,833.649
		C1733.64,1363.13,1359.668,1737.1,899.996,1737.1z"/>
	<path fill="#333333" d="M1073.088,393.764v66.982c176.77,69.347,302.257,241.646,302.257,442.716
		c0,262.101-213.239,475.332-475.349,475.332c-262.101,0-475.336-213.231-475.336-475.332
		c0-201.075,125.491-373.374,302.261-442.725v-66.973c-212.139,72.23-365.162,273.421-365.162,509.698
		c0,296.781,241.452,538.234,538.238,538.234c296.79,0,538.251-241.453,538.251-538.234
		C1438.247,667.194,1285.223,466.002,1073.088,393.764z"/>
	<path fill="#333333" d="M900.004,880.287c17.371,0,31.45-14.084,31.45-31.451V286.086c0-17.371-14.079-31.451-31.45-31.451
		c-17.37,0-31.45,14.08-31.45,31.451v562.749C868.554,866.202,882.634,880.287,900.004,880.287z"/>
</g>
<g>
</g>
<g>
</g>
<g>
</g>
<g>
</g>
<g>
</g>
<g>
</g>
</svg>
