<?xml version="1.0" encoding="utf-8"?>
<!-- Generator: Adobe Illustrator 16.0.0, SVG Export Plug-In . SVG Version: 6.00 Build 0)  -->
<!DOCTYPE svg PUBLIC "-//W3C//DTD SVG 1.1//EN" "http://www.w3.org/Graphics/SVG/1.1/DTD/svg11.dtd">
<svg version="1.1" id="PAPERCLIP" xmlns="http://www.w3.org/2000/svg" xmlns:xlink="http://www.w3.org/1999/xlink" x="0px" y="0px"
	 width="1800px" height="1800px" viewBox="0 0 1800 1800" enable-background="new 0 0 1800 1800" xml:space="preserve">
<g>
	<path fill="#333333" d="M716.321,1752.834c-8.333,0-16.325-3.314-22.221-9.206l-466.26-466.276
		c-12.274-12.271-12.274-32.169,0-44.439l952.941-952.92c5.892-5.895,13.884-9.204,22.217-9.204h314.732
		c17.355,0,31.422,14.067,31.422,31.423V646.08c0,8.333-3.308,16.328-9.201,22.219L811.41,1396.841
		c-12.274,12.271-32.168,12.271-44.443,0c-12.27-12.271-12.27-32.168,0-44.438l719.34-719.338v-299.43h-270.294L294.496,1255.13
		l421.825,421.837L1731.096,662.206V110.013h-646.917c-47.596,45.638-273.575,262.253-499.232,477.519
		C70.333,1078.448,59.475,1083.884,51.54,1087.847c-15.519,7.76-34.396,1.474-42.159-14.046
		c-7.272-14.545-2.205-32.045,11.24-40.575c38.95-30.131,635.69-599.891,1029.176-977.313c5.853-5.611,13.646-8.746,21.752-8.746
		h690.97c17.352,0,31.424,14.068,31.424,31.424v596.634c0,8.33-3.314,16.325-9.206,22.217L738.539,1743.628
		C732.646,1749.52,724.655,1752.834,716.321,1752.834z"/>
</g>
<g>
</g>
<g>
</g>
<g>
</g>
<g>
</g>
<g>
</g>
<g>
</g>
</svg>
