<?xml version="1.0" encoding="utf-8"?>
<!-- Generator: Adobe Illustrator 16.0.0, SVG Export Plug-In . SVG Version: 6.00 Build 0)  -->
<!DOCTYPE svg PUBLIC "-//W3C//DTD SVG 1.1//EN" "http://www.w3.org/Graphics/SVG/1.1/DTD/svg11.dtd">
<svg version="1.1" id="PEN" xmlns="http://www.w3.org/2000/svg" xmlns:xlink="http://www.w3.org/1999/xlink" x="0px" y="0px"
	 width="1800px" height="1800px" viewBox="0 0 1800 1800" enable-background="new 0 0 1800 1800" xml:space="preserve">
<g>
	<path fill="#333333" d="M1741.402,786.797h-35.999c-32.197-298.013-226.637-548.089-492.951-659.834h305.92v31.245
		c0,17.376,14.079,31.46,31.461,31.46h125.409c17.381,0,31.459-14.084,31.459-31.46V32.798c0-17.375-14.078-31.46-31.459-31.46
		h-125.409c-17.382,0-31.461,14.084-31.461,31.46v31.245H994.163V32.798c0-17.375-14.079-31.46-31.46-31.46H837.287
		c-17.376,0-31.46,14.084-31.46,31.46v31.245H281.618V32.798c0-17.375-14.084-31.46-31.46-31.46H124.751
		c-17.375,0-31.459,14.084-31.459,31.46v125.41c0,17.376,14.084,31.46,31.459,31.46h125.406c17.375,0,31.46-14.084,31.46-31.46
		v-31.245H587.55C321.228,238.708,126.792,488.785,94.596,786.797H58.597c-17.376,0-31.46,14.084-31.46,31.46v125.409
		c0,17.375,14.083,31.459,31.46,31.459h125.418c17.376,0,31.46-14.084,31.46-31.459V818.257c0-17.375-14.083-31.46-31.46-31.46
		h-26.088c39.887-339.954,308.838-610.875,647.899-653.703v25.114c0,17.376,14.084,31.46,31.46,31.46h125.417
		c17.381,0,31.46-14.084,31.46-31.46v-25.116c339.064,42.821,608.012,313.747,647.908,653.706h-26.08
		c-17.38,0-31.46,14.084-31.46,31.46v125.409c0,17.375,14.08,31.459,31.46,31.459h125.411c17.38,0,31.46-14.084,31.46-31.459
		V818.257C1772.862,800.882,1758.782,786.797,1741.402,786.797z M1643.782,126.748h-62.49V95.503V64.258h62.49V126.748z
		 M156.212,64.258h62.485v62.49h-62.485V64.258z M152.556,877.923v34.282H90.057V877.98v-20.505
		c0.052-2.589,0.119-5.174,0.193-7.758h62.306V877.923z M900.005,64.258c10.461,0,20.871,0.266,31.237,0.661v61.829h-62.496V64.918
		C879.122,64.524,889.533,64.258,900.005,64.258z M1709.941,857.82v20.132v34.253h-62.489V877.98v-28.263h62.287
		C1709.828,852.415,1709.889,855.116,1709.941,857.82z"/>
	<path fill="#333333" d="M928.829,250.905c-5.003-11.464-16.327-18.875-28.833-18.875c-12.509,0-23.828,7.411-28.831,18.875
		l-409.868,939.046c-3.283,7.523-3.497,16.025-0.601,23.701l0.487,1.291c3.335,8.838,10.468,15.707,19.421,18.713
		c98.036,32.9,163.906,124.49,163.906,227.906c0,43.082-11.574,85.383-33.466,122.33c-0.68,1.145-1.259,2.33-1.782,3.541
		c-3.559,5.096-5.662,11.285-5.662,17.973v159.314c0,17.285,13.948,31.338,31.231,31.463l529.877,3.816c0.079,0,0.159,0,0.238,0
		c17.266,0,31.328-13.939,31.45-31.23c0.122-17.377-13.859-31.566-31.23-31.689l-498.646-3.59v-79.055h486.778
		c13.14,0,24.902-8.168,29.484-20.479l8.585-23.059c3.318-8.91,2.432-18.84-2.423-27.02c-21.884-36.934-33.452-79.23-33.452-122.316
		c0-103.416,65.86-195.006,163.901-227.906c8.979-3.018,16.125-9.924,19.452-18.801l0.482-1.291
		c2.861-7.654,2.634-16.121-0.632-23.613L928.829,250.905z M899.996,1126.566c34.811,0,63.138,28.318,63.138,63.123
		c0,34.809-28.327,63.125-63.138,63.125c-34.809,0-63.126-28.316-63.126-63.125C836.87,1154.885,865.187,1126.566,899.996,1126.566z
		 M1092.571,1461.563c0,45.088,10.052,89.504,29.241,129.953H678.187c19.198-40.457,29.244-84.869,29.244-129.953
		c0-119.287-69.455-226.105-175.883-275.271l336.988-772.079v653.407c-54.331,14.008-94.586,63.43-94.586,122.07
		c0,69.504,56.543,126.045,126.047,126.045c69.51,0,126.058-56.541,126.058-126.045c0-58.646-40.265-108.063-94.601-122.07V414.214
		l336.994,772.077C1162.023,1235.467,1092.571,1342.275,1092.571,1461.563z"/>
</g>
<g>
</g>
<g>
</g>
<g>
</g>
<g>
</g>
<g>
</g>
<g>
</g>
</svg>
