<?xml version="1.0" encoding="utf-8"?>
<!-- Generator: Adobe Illustrator 16.0.0, SVG Export Plug-In . SVG Version: 6.00 Build 0)  -->
<!DOCTYPE svg PUBLIC "-//W3C//DTD SVG 1.1//EN" "http://www.w3.org/Graphics/SVG/1.1/DTD/svg11.dtd">
<svg version="1.1" id="PIGGYBANK" xmlns="http://www.w3.org/2000/svg" xmlns:xlink="http://www.w3.org/1999/xlink" x="0px" y="0px"
	 width="1800px" height="1800px" viewBox="0 0 1800 1800" enable-background="new 0 0 1800 1800" xml:space="preserve">
<g>
	<path fill="#333333" d="M389.053,664.285c-30.154,0-54.591,24.439-54.591,54.586c0,22.606,13.733,41.997,33.317,50.29
		c6.537,2.769,13.729,4.301,21.273,4.301c28.696,0,52.168-22.153,54.368-50.288c0.113-1.425,0.218-2.85,0.218-4.303
		C443.64,688.724,419.202,664.285,389.053,664.285z"/>
	<path fill="#333333" d="M1784.638,612.476c-7.589-15.52-26.335-21.937-41.845-14.348c-15.513,7.593-21.94,26.326-14.344,41.844
		c5.115,10.46,5.857,22.281,2.078,33.292c-3.775,11.01-11.617,19.892-22.081,25.013c-10.456,5.121-22.281,5.86-33.286,2.081
		c-11.01-3.774-19.891-11.614-25.005-22.074c-1.384-2.824-3.138-5.337-5.171-7.528c-39.746-78.838-100.686-151.008-180.6-212.297
		c-80.136-61.461-174.367-108.034-276.989-137.967c5.118-17.283,7.911-35.554,7.911-54.476c0-105.95-86.197-192.145-192.145-192.145
		c-105.948,0-192.146,86.195-192.146,192.145c0,6.688,0.349,13.297,1.021,19.812c-32.27,3.014-64.099,7.53-95.344,13.521
		c-116.002-90.762-248.975-143.138-369.332-143.138c-90.116,0-166.958,29.208-222.22,84.469c-12.214,12.217-12.214,32.021,0,44.235
		l197.403,197.402c-70.858,60.392-124.577,129.99-159.247,205.276H35.549c-17.276,0-31.279,14.003-31.279,31.279v352.745
		c0,17.276,14.003,31.279,31.279,31.279h127.749c39.331,85.403,103.151,163.506,188.72,229.133
		c37.952,29.106,79.076,54.861,122.74,77.112v202.767c0,17.276,14.003,31.279,31.279,31.279h235.338
		c17.276,0,31.279-14.003,31.279-31.279v-111.687c44.34,5.9,89.653,8.911,135.547,8.911c45.895,0,91.207-3.011,135.548-8.911
		v111.687c0,17.276,14.003,31.279,31.279,31.279h235.338c17.276,0,31.279-14.003,31.279-31.279v-202.767
		c43.664-22.251,84.788-48.006,122.739-77.112c151.375-116.094,234.74-271.212,234.74-436.782c0-44.354-6.039-87.947-17.708-130.25
		c2.653,0.201,5.312,0.33,7.964,0.33c15.949,0,31.816-3.642,46.562-10.859c25.472-12.46,44.563-34.094,53.762-60.912
		C1798.902,666.741,1797.105,637.945,1784.638,612.476z M873.575,266.017c0-71.454,58.134-129.586,129.587-129.586
		c71.451,0,129.586,58.132,129.586,129.586c0,13.571-2.107,26.656-5.996,38.96c-6.916,21.897-19.506,41.294-36.031,56.472
		c-23.08,21.192-53.832,34.155-87.559,34.155c-42.203,0-79.748-20.29-103.426-51.615c-13.375-17.701-22.294-38.933-25.144-62.024
		C873.946,276.734,873.575,271.419,873.575,266.017z M1341.646,1338.048c-20.082,11.293-40.972,21.806-62.559,31.515v68.351v142.717
		h-172.779v-90.814v-63.973c-20.497,4.39-41.372,8.09-62.559,11.118c-43.935,6.284-89.235,9.613-135.548,9.613
		s-91.612-3.329-135.547-9.613c-21.186-3.028-42.063-6.729-62.559-11.118v63.973v90.814H537.316v-142.717v-68.351
		c-21.587-9.709-42.477-20.222-62.559-31.515c-106.363-59.81-190.492-141.028-241.242-235.15
		c-10.932-20.282-20.313-41.163-28.033-62.559h-66.154h-72.5V750.152h72.504h66.15c7.72-21.396,17.102-42.276,28.037-62.559
		c32.078-59.496,77.479-113.835,133.431-160.87c15.902-13.369,32.641-26.152,50.183-38.292l-44.895-44.893L193.19,264.489
		c40.884-30.012,93.538-45.719,154.172-45.719c92.887,0,195.104,35.962,289.278,99.542c21.792,14.714,43.158,30.901,63.876,48.477
		c25.38-5.725,51.318-10.458,77.763-14.077c16.73-2.289,33.671-4.128,50.776-5.536c9.146,19.545,21.487,37.297,36.354,52.601
		c-128.032,12.585-251.226,54.305-331.545,114.819c-13.798,10.395-16.556,30.007-6.162,43.806
		c10.398,13.8,30.01,16.554,43.804,6.159c74.38-56.035,224.926-110.519,393.223-105.976
		c130.494,3.53,313.018,43.535,441.491,214.062c6.148,8.163,15.518,12.461,25.004,12.461c6.555,0,13.166-2.053,18.8-6.299
		c13.798-10.395,16.556-30.008,6.161-43.804c-82.227-109.14-197.932-183.846-334.365-218.031
		c14.287-11.252,26.934-24.472,37.542-39.267c278.243,77.612,477.204,280.315,477.204,517.541
		C1636.566,1076.444,1520.473,1237.489,1341.646,1338.048z"/>
</g>
<g>
</g>
<g>
</g>
<g>
</g>
<g>
</g>
<g>
</g>
<g>
</g>
</svg>
