<?xml version="1.0" encoding="utf-8"?>
<!-- Generator: Adobe Illustrator 16.0.0, SVG Export Plug-In . SVG Version: 6.00 Build 0)  -->
<!DOCTYPE svg PUBLIC "-//W3C//DTD SVG 1.1//EN" "http://www.w3.org/Graphics/SVG/1.1/DTD/svg11.dtd">
<svg version="1.1" id="HEART" xmlns="http://www.w3.org/2000/svg" xmlns:xlink="http://www.w3.org/1999/xlink" x="0px" y="0px"
	 width="1800px" height="1800px" viewBox="0 0 1800 1800" enable-background="new 0 0 1800 1800" xml:space="preserve">
<g>
	<path fill="#333333" d="M1598.646,483.59c0-159.066-151.555-242.271-232.804-242.271c-17.445,0-31.592,14.14-31.592,31.594
		c0,17.444,14.146,31.592,31.592,31.592c50.731,0,169.618,60.929,169.618,179.084c0,17.444,14.147,31.593,31.593,31.593
		C1584.508,515.183,1598.646,501.034,1598.646,483.59z"/>
	<path fill="#333333" d="M1245.167,67.346c-8.005,0-15.974,0.176-23.897,0.515c-124.318-6.434-239.696,39.191-324.708,117.896
		C802.382,111.649,683.698,67.346,554.832,67.346C249.563,67.346,1.211,315.7,1.211,620.971
		c0,169.59,76.672,321.587,197.146,423.214l679.305,679.309c5.924,5.923,13.963,9.246,22.337,9.246
		c8.384,0,16.413-3.323,22.347-9.246l679.218-679.238c120.519-101.636,197.227-253.659,197.227-423.285
		C1798.79,315.7,1550.438,67.346,1245.167,67.346z M899.999,1656.474l-505.608-505.617L241.498,997.96l-60.105-60.101
		c-0.744-0.749-1.52-1.445-2.323-2.098c-71.524-85.24-114.673-195.066-114.673-314.791c0-270.426,220.008-490.44,490.435-490.44
		c111.765,0,214.891,37.604,297.452,100.783c0.309,0.229,0.599,0.476,0.908,0.714c-56.627,69.7-92.777,157.083-98.507,253.368
		c-1.04,17.418,12.235,32.377,29.654,33.409c0.643,0.044,1.278,0.062,1.913,0.062c16.581,0,30.508-12.94,31.505-29.715
		c5.059-85.082,37.825-162.045,88.959-222.683c13.021-12.438,26.683-24.197,40.999-35.154
		c76.84-58.798,171.504-95.406,274.348-100.202c1.604,0.048,3.183-0.013,4.733-0.194c6.101-0.229,12.218-0.387,18.371-0.387
		c270.434,0,490.438,220.014,490.438,490.44c0,119.707-43.133,229.515-114.648,314.755c-0.811,0.671-1.596,1.375-2.354,2.133
		l-60.153,60.146l-152.843,152.852L899.999,1656.474z"/>
</g>
<g>
</g>
<g>
</g>
<g>
</g>
<g>
</g>
<g>
</g>
<g>
</g>
</svg>
