<?xml version="1.0" encoding="utf-8"?>
<!-- Generator: Adobe Illustrator 16.0.0, SVG Export Plug-In . SVG Version: 6.00 Build 0)  -->
<!DOCTYPE svg PUBLIC "-//W3C//DTD SVG 1.1//EN" "http://www.w3.org/Graphics/SVG/1.1/DTD/svg11.dtd">
<svg version="1.1" id="WIFI" xmlns="http://www.w3.org/2000/svg" xmlns:xlink="http://www.w3.org/1999/xlink" x="0px" y="0px"
	 width="1800px" height="1800px" viewBox="0 0 1800 1800" enable-background="new 0 0 1800 1800" xml:space="preserve">
<g>
	<path fill="#333333" d="M294.904,16.65C141.476,16.65,16.65,141.476,16.65,294.904c0,153.429,124.825,278.25,278.254,278.25
		c513.876,0,931.945,418.065,931.945,931.941c0,153.429,124.825,278.254,278.25,278.254s278.25-124.825,278.25-278.254
		C1783.35,684.362,1115.638,16.65,294.904,16.65z M1505.1,1721.313c-119.222,0-216.214-96.996-216.214-216.218
		c0-548.079-445.898-993.978-993.981-993.978c-119.226,0-216.218-96.992-216.218-216.214c0-119.221,96.992-216.218,216.218-216.218
		c786.522,0,1426.409,639.883,1426.409,1426.409C1721.313,1624.317,1624.321,1721.313,1505.1,1721.313z"/>
	<path fill="#333333" d="M197.376,778.602c-98.892,0-179.345,80.458-179.345,179.35s80.454,179.35,179.345,179.35
		c255.57,0,463.497,207.923,463.497,463.493c0,98.892,80.453,179.345,179.35,179.345c98.892,0,179.345-80.453,179.345-179.345
		C1019.567,1147.436,650.734,778.602,197.376,778.602z M840.223,1718.103c-64.685,0-117.313-52.624-117.313-117.309
		c0-289.778-235.751-525.529-525.533-525.529c-64.685,0-117.309-52.629-117.309-117.313s52.625-117.313,117.309-117.313
		c419.151,0,760.155,341.004,760.155,760.156C957.531,1665.479,904.907,1718.103,840.223,1718.103z"/>
	<path fill="#333333" d="M251.519,1319.255c-127.067,0-230.442,103.375-230.442,230.442c0,127.066,103.375,230.441,230.442,230.441
		s230.442-103.375,230.442-230.441C481.961,1422.63,378.586,1319.255,251.519,1319.255z M251.519,1718.103
		c-92.86,0-168.406-75.546-168.406-168.405c0-92.86,75.546-168.406,168.406-168.406s168.406,75.546,168.406,168.406
		C419.925,1642.557,344.379,1718.103,251.519,1718.103z"/>
</g>
<g>
</g>
<g>
</g>
<g>
</g>
<g>
</g>
<g>
</g>
<g>
</g>
</svg>
