<?xml version="1.0" encoding="utf-8"?>
<!-- Generator: Adobe Illustrator 16.0.0, SVG Export Plug-In . SVG Version: 6.00 Build 0)  -->
<!DOCTYPE svg PUBLIC "-//W3C//DTD SVG 1.1//EN" "http://www.w3.org/Graphics/SVG/1.1/DTD/svg11.dtd">
<svg version="1.1" id="CHART" xmlns="http://www.w3.org/2000/svg" xmlns:xlink="http://www.w3.org/1999/xlink" x="0px" y="0px"
	 width="1800px" height="1800px" viewBox="0 0 1800 1800" enable-background="new 0 0 1800 1800" xml:space="preserve">
<g>
	<g>
		<path fill="#333333" d="M1649.831,2.343H625.737c-43.374,0-78.663,35.48-78.663,79.103v180.65H150.17
			c-43.387,0-78.679,35.485-78.679,79.107V1480.77v20.814v216.974c0,43.618,35.292,79.099,78.679,79.099h1024.09
			c43.378,0,78.661-35.48,78.661-79.099v-51.118h396.927c43.379,0,78.662-35.476,78.662-79.099v-475.002V556.448V81.445
			C1728.51,37.823,1693.217,2.343,1649.831,2.343z M1194.633,1718.558c0,11.475-9.135,20.811-20.373,20.811H150.17
			c-11.243,0-20.39-9.336-20.39-20.811v-216.974v-20.814V341.203c0-11.475,9.147-20.818,20.39-20.818h396.905h58.293h359.341
			v178.798c0,16.185,13.083,29.303,29.226,29.303h200.698v952.285v20.814v107.566v58.289V1718.558z M1023.178,469.88V357.213
			l124.501,112.667H1023.178z M1670.218,1113.339v475.002c0,11.476-9.13,20.81-20.37,20.81h-396.927v-107.566v-20.814V500.795
			v-3.021c-0.409-8.706-4.577-16.433-10.952-21.529l-47.336-42.826l-124.906-113.035l-56.201-50.853
			c-5.027-4.544-11.347-7.042-17.837-7.436h-3.316H605.368V81.445c0-11.475,9.13-20.81,20.369-20.81h1024.094
			c11.239,0,20.387,9.335,20.387,20.81v475.002V1113.339z"/>
	</g>
	<g>
		<g>
			<path fill="#333333" d="M442.169,1578.664H260.621c-16.099,0-29.144-13.05-29.144-29.145V602.111
				c0-16.1,13.045-29.149,29.144-29.149h181.549c16.096,0,29.144,13.049,29.144,29.149v947.408
				C471.313,1565.614,458.265,1578.664,442.169,1578.664z M289.765,1520.374h123.26V631.255h-123.26V1520.374z"/>
		</g>
		<g>
			<path fill="#333333" d="M747.355,1578.664H565.801c-16.099,0-29.148-13.05-29.148-29.145v-526.985
				c0-16.095,13.049-29.144,29.148-29.144h181.554c16.095,0,29.144,13.049,29.144,29.144v526.985
				C776.499,1565.614,763.45,1578.664,747.355,1578.664z M594.946,1520.374H718.21v-468.696H594.946V1520.374z"/>
		</g>
		<g>
			<path fill="#333333" d="M1052.535,1578.664H870.991c-16.1,0-29.148-13.05-29.148-29.145V808.278
				c0-16.1,13.049-29.145,29.148-29.145h181.544c16.1,0,29.148,13.044,29.148,29.145v741.242
				C1081.684,1565.614,1068.635,1578.664,1052.535,1578.664z M900.135,1520.374h123.256V837.426H900.135V1520.374z"/>
		</g>
	</g>
</g>
<g>
</g>
<g>
</g>
<g>
</g>
<g>
</g>
<g>
</g>
<g>
</g>
</svg>
