<?xml version="1.0" encoding="utf-8"?>
<!-- Generator: Adobe Illustrator 16.0.0, SVG Export Plug-In . SVG Version: 6.00 Build 0)  -->
<!DOCTYPE svg PUBLIC "-//W3C//DTD SVG 1.1//EN" "http://www.w3.org/Graphics/SVG/1.1/DTD/svg11.dtd">
<svg version="1.1" id="SHARE" xmlns="http://www.w3.org/2000/svg" xmlns:xlink="http://www.w3.org/1999/xlink" x="0px" y="0px"
	 width="1800px" height="1800px" viewBox="0 0 1800 1800" enable-background="new 0 0 1800 1800" xml:space="preserve">
<g>
	<path fill="#333333" d="M357.063,742.307c-17.305,0-31.331,14.026-31.331,31.331s14.026,31.331,31.331,31.331
		c27.835,0,93.081,33.661,93.081,98.938c0,17.305,14.026,31.331,31.331,31.331s31.332-14.026,31.332-31.331
		C512.807,797.809,411.417,742.307,357.063,742.307z"/>
	<path fill="#333333" d="M1453.625,177.815c27.835,0,93.08,33.661,93.08,98.938c0,17.305,14.027,31.331,31.332,31.331
		s31.331-14.026,31.331-31.331c0-106.097-101.39-161.6-155.743-161.6c-17.305,0-31.33,14.026-31.33,31.331
		S1436.32,177.815,1453.625,177.815z"/>
	<path fill="#333333" d="M1447.975,1261.85c-46.434,0-92.324,12.361-132.713,35.751c-31.903,18.476-58.501,42.634-79.293,70.451
		L597.875,998.547c3.899-9.809,7.317-19.871,10.075-30.226c15.53-58.261,10.889-118.681-12.702-173.188l636.708-368.71
		c49.41,69.459,130.26,111.727,216.465,111.727c46.433,0,92.319-12.361,132.707-35.75c61.316-35.505,105.136-92.766,123.385-161.232
		c18.248-68.463,8.742-139.933-26.764-201.249C1630.467,58.27,1542.422,7.544,1447.979,7.544c-46.434,0-92.324,12.361-132.712,35.75
		c-115.368,66.811-161.543,207.81-113.322,328.1L563.833,740.916c-49.707-66.172-128.52-106.219-212.417-106.219
		c-46.428,0-92.324,12.361-132.711,35.75C92.13,743.749,48.787,906.358,122.084,1032.934
		c47.281,81.649,135.326,132.37,229.77,132.37c46.438,0,92.324-12.36,132.712-35.75c33.473-19.381,61.679-45.284,83.407-75.915
		l636.673,368.684c-31.921,74.42-29.608,162.465,13.996,237.764c47.28,81.65,135.325,132.371,229.774,132.371
		c46.432,0,92.318-12.361,132.707-35.75c61.316-35.506,105.135-92.766,123.384-161.232c18.249-68.463,8.742-139.934-26.763-201.249
		C1630.463,1312.575,1542.418,1261.85,1447.975,1261.85z M1346.668,97.521c30.859-17.868,65.893-27.314,101.311-27.314
		c72.164,0,139.426,38.745,175.543,101.114c27.117,46.831,34.378,101.42,20.438,153.71c-13.935,52.29-47.403,96.026-94.233,123.144
		c-30.855,17.869-65.889,27.314-101.307,27.314c-72.165,0-139.43-38.744-175.547-101.109
		C1216.893,277.706,1249.994,153.504,1346.668,97.521z M453.164,1075.327c-30.859,17.868-65.888,27.314-101.311,27.314
		c-72.165,0-139.426-38.745-175.543-101.11c-55.979-96.672-22.873-220.874,73.795-276.857
		c30.859-17.869,65.888-27.314,101.311-27.314c72.165,0,139.426,38.744,175.543,101.114c27.117,46.831,34.377,101.42,20.438,153.71
		C533.464,1004.474,499.995,1048.209,453.164,1075.327z M1643.955,1579.336c-13.934,52.291-47.402,96.027-94.233,123.145
		c-30.854,17.868-65.888,27.314-101.306,27.314c-72.166,0-139.431-38.744-175.548-101.109
		c-55.979-96.674-22.878-220.875,73.795-276.859c30.859-17.867,65.893-27.313,101.312-27.313
		c72.164,0,139.425,38.744,175.543,101.114C1650.635,1472.457,1657.895,1527.047,1643.955,1579.336z"/>
	<path fill="#333333" d="M1453.621,1369.459c-17.305,0-31.331,14.027-31.331,31.332s14.026,31.331,31.331,31.331
		c27.834,0,93.08,33.661,93.08,98.937c0,17.305,14.027,31.332,31.332,31.332s31.33-14.027,31.33-31.332
		C1609.363,1424.963,1507.975,1369.459,1453.621,1369.459z"/>
</g>
<g>
</g>
<g>
</g>
<g>
</g>
<g>
</g>
<g>
</g>
<g>
</g>
</svg>
