<?xml version="1.0" encoding="utf-8"?>
<!-- Generator: Adobe Illustrator 16.0.0, SVG Export Plug-In . SVG Version: 6.00 Build 0)  -->
<!DOCTYPE svg PUBLIC "-//W3C//DTD SVG 1.1//EN" "http://www.w3.org/Graphics/SVG/1.1/DTD/svg11.dtd">
<svg version="1.1" id="CALCULATOR" xmlns="http://www.w3.org/2000/svg" xmlns:xlink="http://www.w3.org/1999/xlink" x="0px" y="0px"
	 width="1800px" height="1800px" viewBox="0 0 1800 1800" enable-background="new 0 0 1800 1800" xml:space="preserve">
<g>
	<path fill="#333333" d="M1717.649,2.667H82.359C38.418,2.667,2.67,38.411,2.67,82.343v1635.298c0,43.942,35.748,79.69,79.689,79.69
		h1635.29c43.933,0,79.681-35.748,79.681-79.69V82.343C1797.33,38.411,1761.582,2.667,1717.649,2.667z M1734.311,1717.642
		c0,9.188-7.474,16.671-16.661,16.671H82.359c-9.196,0-16.669-7.483-16.669-16.671V82.343c0-9.183,7.473-16.656,16.669-16.656
		h1635.29c9.188,0,16.661,7.473,16.661,16.656V1717.642z"/>
	<path fill="#333333" d="M1537.75,136.396H250.345c-47.159,0-85.527,38.368-85.527,85.527v249.08
		c0,47.159,38.368,85.527,85.527,85.527H1537.75c47.16,0,85.527-38.368,85.527-85.527v-249.08
		C1623.277,174.763,1584.91,136.396,1537.75,136.396z M1560.258,471.002c0,12.41-10.102,22.507-22.508,22.507H250.345
		c-12.414,0-22.507-10.098-22.507-22.507v-249.08c0-12.41,10.093-22.507,22.507-22.507H1537.75
		c12.406,0,22.508,10.097,22.508,22.507V471.002z"/>
	<path fill="#333333" d="M1537.75,616.548H250.345c-47.159,0-85.527,38.368-85.527,85.527v879.276
		c0,47.16,38.368,85.526,85.527,85.526H1537.75c47.16,0,85.527-38.366,85.527-85.526V702.076
		C1623.277,654.916,1584.91,616.548,1537.75,616.548z M1560.258,702.076v408.13h-634.7V679.568h612.192
		C1550.156,679.568,1560.258,689.666,1560.258,702.076z M250.345,679.568h612.193v430.638h-634.7v-408.13
		C227.838,689.666,237.931,679.568,250.345,679.568z M227.838,1581.352v-408.126h634.7v430.633H250.345
		C237.931,1603.858,227.838,1593.766,227.838,1581.352z M1537.75,1603.858H925.558v-430.633h634.7v408.126
		C1560.258,1593.766,1550.156,1603.858,1537.75,1603.858z"/>
	<path fill="#333333" d="M416.941,932.025H514.1v97.154c0,17.403,14.111,31.511,31.51,31.511c17.408,0,31.51-14.107,31.51-31.511
		v-97.154h97.158c17.408,0,31.51-14.105,31.51-31.509s-14.102-31.51-31.51-31.51H577.12v-97.159
		c0-17.403-14.103-31.509-31.51-31.509c-17.399,0-31.51,14.106-31.51,31.509v97.159h-97.159c-17.398,0-31.51,14.106-31.51,31.51
		S399.542,932.025,416.941,932.025z"/>
	<path fill="#333333" d="M589.586,1382.164l68.7-68.7c12.309-12.304,12.309-32.258,0-44.561c-12.3-12.305-32.257-12.305-44.561,0
		l-68.704,68.703l-68.7-68.703c-12.304-12.305-32.257-12.305-44.562,0c-12.304,12.303-12.304,32.257,0,44.561l68.7,68.7
		l-68.7,68.698c-12.304,12.304-12.304,32.258,0,44.562c6.15,6.154,14.217,9.228,22.283,9.228c8.062,0,16.125-3.077,22.278-9.228
		l68.7-68.699l68.704,68.704c6.149,6.153,14.216,9.231,22.283,9.231c8.062,0,16.124-3.078,22.278-9.231
		c12.309-12.304,12.309-32.257,0-44.562L589.586,1382.164z"/>
	<path fill="#333333" d="M1115.83,932.025h257.338c17.407,0,31.51-14.105,31.51-31.509s-14.103-31.51-31.51-31.51H1115.83
		c-17.398,0-31.509,14.106-31.509,31.51S1098.432,932.025,1115.83,932.025z"/>
	<path fill="#333333" d="M1373.168,1309.763H1115.83c-17.398,0-31.509,14.11-31.509,31.511c0,17.407,14.11,31.51,31.509,31.51
		h257.338c17.407,0,31.51-14.103,31.51-31.51C1404.678,1323.873,1390.575,1309.763,1373.168,1309.763z"/>
	<path fill="#333333" d="M1373.168,1399.791H1115.83c-17.398,0-31.509,14.111-31.509,31.51c0,17.408,14.11,31.51,31.509,31.51
		h257.338c17.407,0,31.51-14.102,31.51-31.51C1404.678,1413.902,1390.575,1399.791,1373.168,1399.791z"/>
</g>
<g>
</g>
<g>
</g>
<g>
</g>
<g>
</g>
<g>
</g>
<g>
</g>
</svg>
