<?xml version="1.0" encoding="utf-8"?>
<!-- Generator: Adobe Illustrator 16.0.0, SVG Export Plug-In . SVG Version: 6.00 Build 0)  -->
<!DOCTYPE svg PUBLIC "-//W3C//DTD SVG 1.1//EN" "http://www.w3.org/Graphics/SVG/1.1/DTD/svg11.dtd">
<svg version="1.1" id="CLOCK" xmlns="http://www.w3.org/2000/svg" xmlns:xlink="http://www.w3.org/1999/xlink" x="0px" y="0px"
	 width="1800px" height="1800px" viewBox="0 0 1800 1800" enable-background="new 0 0 1800 1800" xml:space="preserve">
<g>
	<g>
		<path fill="#333333" d="M899.998,1797.179c-494.704,0-897.173-402.472-897.173-897.173c0-494.708,402.469-897.184,897.173-897.184
			c494.708,0,897.179,402.476,897.179,897.184C1797.177,1394.707,1394.705,1797.179,899.998,1797.179z M899.998,65.818
			c-459.966,0-834.176,374.215-834.176,834.188c0,459.964,374.21,834.176,834.176,834.176c459.97,0,834.183-374.212,834.183-834.176
			C1734.181,440.033,1359.968,65.818,899.998,65.818z"/>
	</g>
	<g>
		<path fill="#333333" d="M899.998,1641.189c-408.689,0-741.183-332.492-741.183-741.184c0-408.695,332.494-741.194,741.183-741.194
			c408.693,0,741.19,332.499,741.19,741.194C1641.188,1308.697,1308.69,1641.189,899.998,1641.189z M899.998,221.808
			c-373.955,0-678.187,304.239-678.187,678.198c0,373.954,304.232,678.186,678.187,678.186
			c373.957,0,678.193-304.231,678.193-678.186C1578.19,526.047,1273.954,221.808,899.998,221.808z"/>
	</g>
	<g>
		<path fill="#333333" d="M1408.631,842.445H973.452v-435.18c0-37.471-30.486-67.963-67.952-67.963h-7.172
			c-37.457,0-67.953,30.493-67.953,67.963v503.141v7.154v0.008c0,37.476,30.496,67.963,67.953,67.963h7.172l0.052-0.009h503.079
			c37.466,0,67.955-30.479,67.955-67.962v-7.154C1476.586,872.939,1446.097,842.445,1408.631,842.445z M880.452,407.265
			c0-9.859,8.015-17.883,17.876-17.883h7.172c9.843,0,17.875,8.024,17.875,17.883v435.18h-25.047
			c-6.178,0-12.164,0.909-17.876,2.469V407.265z M1426.508,917.56c0,9.852-8.034,17.884-17.877,17.884H970.975h-65.448h-7.199
			c-9.861,0-17.876-8.032-17.876-17.884v-7.154c0-9.861,8.015-17.879,17.876-17.879h25.047h50.077h435.179
			c9.843,0,17.877,8.018,17.877,17.879V917.56z"/>
	</g>
</g>
<g>
</g>
<g>
</g>
<g>
</g>
<g>
</g>
<g>
</g>
<g>
</g>
</svg>
