<?xml version="1.0" encoding="utf-8"?>
<!-- Generator: Adobe Illustrator 16.0.0, SVG Export Plug-In . SVG Version: 6.00 Build 0)  -->
<!DOCTYPE svg PUBLIC "-//W3C//DTD SVG 1.1//EN" "http://www.w3.org/Graphics/SVG/1.1/DTD/svg11.dtd">
<svg version="1.1" id="WALLET" xmlns="http://www.w3.org/2000/svg" xmlns:xlink="http://www.w3.org/1999/xlink" x="0px" y="0px"
	 width="1800px" height="1800px" viewBox="0 0 1800 1800" enable-background="new 0 0 1800 1800" xml:space="preserve">
<g>
	<path fill="#333333" d="M1763.594,924.166h-129.15V592.01c0-1.524-0.149-3.01-0.229-4.512V331.714
		c0-17.393-14.098-31.491-31.491-31.491h-333.9L980.156,11.552c-5.909-5.904-13.918-9.222-22.27-9.222s-16.361,3.317-22.27,9.222
		L717.95,229.219L615.625,126.89c-12.301-12.297-32.238-12.297-44.539,0L397.55,300.425c-1.146-0.127-2.311-0.202-3.492-0.202
		H36.406c-17.393,0-31.491,14.098-31.491,31.491v335.157c0,1.028,0.057,2.043,0.154,3.044v1042.279
		c0,47.131,38.345,85.476,85.476,85.476h1458.422c47.132,0,85.477-38.345,85.477-85.476v-332.152h129.15
		c17.394,0,31.491-14.099,31.491-31.492V955.657C1795.085,938.264,1780.987,924.166,1763.594,924.166z M1571.232,363.206v146.372
		c-7.112-1.925-14.555-3.045-22.266-3.045h-73.838l-143.327-143.327H1571.232z M957.887,78.356l428.172,428.177h-95.581
		L910.096,126.147L957.887,78.356z M865.557,170.687l335.843,335.847H995.27l-232.78-232.78L865.557,170.687z M593.355,193.694
		l80.06,80.059l44.535,44.535l188.244,188.245h-85.836L550.438,236.612L593.355,193.694z M731.279,506.533H280.517l225.381-225.381
		L731.279,506.533z M191.442,506.533H90.545c-7.851,0-15.42,1.151-22.647,3.141V363.206H334.77L191.442,506.533z M1571.461,1712.195
		c0,12.402-10.092,22.493-22.494,22.493H90.545c-12.402,0-22.493-10.091-22.493-22.493V592.01c0-12.402,10.091-22.494,22.493-22.494
		h1458.422c11.63,0,21.114,8.905,22.266,20.231v77.125c0,1.235,0.093,2.452,0.229,3.651v253.644h-286.233
		c-125.684,0-227.938,102.25-227.938,227.934c0,125.688,102.255,227.943,227.938,227.943h286.233V1712.195z M1732.103,1317.061
		h-97.659h-62.982h-286.233c-90.954,0-164.955-74.002-164.955-164.961c0-90.955,74.001-164.951,164.955-164.951h286.233h62.982
		h97.659V1317.061z"/>
	<path fill="#333333" d="M1286.726,1044.13c-59.533,0-107.97,48.437-107.97,107.97c0,59.534,48.437,107.971,107.97,107.971
		c59.534,0,107.971-48.437,107.971-107.971C1394.696,1092.566,1346.26,1044.13,1286.726,1044.13z M1286.726,1197.088
		c-24.805,0-44.987-20.184-44.987-44.988s20.183-44.987,44.987-44.987s44.988,20.183,44.988,44.987
		S1311.53,1197.088,1286.726,1197.088z"/>
</g>
<g>
</g>
<g>
</g>
<g>
</g>
<g>
</g>
<g>
</g>
<g>
</g>
</svg>
