<?xml version="1.0" encoding="utf-8"?>
<!-- Generator: Adobe Illustrator 16.0.0, SVG Export Plug-In . SVG Version: 6.00 Build 0)  -->
<!DOCTYPE svg PUBLIC "-//W3C//DTD SVG 1.1//EN" "http://www.w3.org/Graphics/SVG/1.1/DTD/svg11.dtd">
<svg version="1.1" id="SHIELD" xmlns="http://www.w3.org/2000/svg" xmlns:xlink="http://www.w3.org/1999/xlink" x="0px" y="0px"
	 width="1800px" height="1800px" viewBox="0 0 1800 1800" enable-background="new 0 0 1800 1800" xml:space="preserve">
<g>
	<g>
		<path fill="#333333" d="M900,1793.016c-2.796,0-5.594-0.375-8.315-1.125c-7.969-2.199-197.36-55.807-388.728-226.607
			c-112.377-100.305-201.914-220.375-266.128-356.88c-79.987-170.042-120.543-365.937-120.543-582.248
			c0-9.624,4.431-18.711,12.016-24.637L880.752,13.613c11.308-8.837,27.187-8.837,38.496,0l752.451,587.905
			c7.584,5.925,12.016,15.013,12.016,24.637c0,216.312-40.559,412.206-120.546,582.248
			c-64.212,136.505-153.751,256.575-266.123,356.88c-191.37,170.801-380.764,224.408-388.732,226.607
			C905.592,1792.641,902.796,1793.016,900,1793.016z M178.88,641.351c3.271,367.343,125.555,661.791,363.594,875.387
			C701.154,1659.123,862.076,1716.81,900,1729.049c37.924-12.239,198.846-69.926,357.525-212.311
			c238.039-213.597,360.325-508.044,363.592-875.387L900,77.925L178.88,641.351z"/>
	</g>
	<g>
		<path fill="#333333" d="M900,1593.533c-2.798,0-5.594-0.375-8.315-1.125c-6.189-1.71-153.319-43.35-301.636-175.734
			c-87.095-77.732-156.485-170.791-206.251-276.582c-61.928-131.65-93.328-283.236-93.328-450.545
			c0-9.624,4.432-18.711,12.017-24.637L880.752,213.1c11.308-8.834,27.187-8.839,38.496,0l578.266,451.81
			c7.585,5.925,12.017,15.013,12.017,24.637c0,167.309-31.399,318.895-93.329,450.545
			c-49.762,105.791-119.155,198.85-206.248,276.582c-148.316,132.385-295.446,174.024-301.64,175.734
			C905.596,1593.158,902.798,1593.533,900,1593.533z M353.087,704.725c3.256,278.249,96.237,501.402,276.493,663.417
			c118.248,106.279,238.227,150.755,270.42,161.38c32.193-10.625,152.172-55.101,270.42-161.38
			c180.256-162.016,273.236-385.169,276.495-663.417L900,277.412L353.087,704.725z"/>
	</g>
</g>
<g>
</g>
<g>
</g>
<g>
</g>
<g>
</g>
<g>
</g>
<g>
</g>
</svg>
