<?xml version="1.0" encoding="utf-8"?>
<!-- Generator: Adobe Illustrator 16.0.0, SVG Export Plug-In . SVG Version: 6.00 Build 0)  -->
<!DOCTYPE svg PUBLIC "-//W3C//DTD SVG 1.1//EN" "http://www.w3.org/Graphics/SVG/1.1/DTD/svg11.dtd">
<svg version="1.1" id="DISK" xmlns="http://www.w3.org/2000/svg" xmlns:xlink="http://www.w3.org/1999/xlink" x="0px" y="0px"
	 width="1800px" height="1800px" viewBox="0 0 1800 1800" enable-background="new 0 0 1800 1800" xml:space="preserve">
<g>
	<path fill="#333333" d="M1216.338,1202.973H583.656c-17.222,0-31.189,13.963-31.189,31.188s13.967,31.188,31.189,31.188h632.682
		c17.229,0,31.188-13.963,31.188-31.188S1233.567,1202.973,1216.338,1202.973z"/>
	<path fill="#333333" d="M1216.338,1378.226H583.656c-17.222,0-31.189,13.962-31.189,31.188s13.967,31.188,31.189,31.188h632.682
		c17.229,0,31.188-13.962,31.188-31.188S1233.567,1378.226,1216.338,1378.226z"/>
	<path fill="#333333" d="M1216.338,1553.479H583.656c-17.222,0-31.189,13.963-31.189,31.188c0,17.227,13.967,31.189,31.189,31.189
		h632.682c17.229,0,31.188-13.963,31.188-31.189C1247.526,1567.441,1233.567,1553.479,1216.338,1553.479z"/>
	<path fill="#333333" d="M1776.765,382.264L1411.048,16.547c-5.848-5.848-13.784-9.133-22.051-9.133h-88.005H499.001H98.754
		C52.076,7.414,14.1,45.39,14.1,92.068v1615.864c0,46.679,37.977,84.655,84.655,84.655h400.247h801.991h400.256
		c46.678,0,84.654-37.977,84.654-84.655V404.319C1785.902,396.048,1782.613,388.116,1776.765,382.264z M1300.992,69.791
		c12.287,0,22.277,9.994,22.277,22.277v408.423c0,12.283-9.99,22.277-22.277,22.277H499.001c-12.278,0-22.277-9.994-22.277-22.277
		V92.068c0-12.283,9.999-22.277,22.277-22.277H1300.992z M499.001,1730.211c-12.278,0-22.277-9.995-22.277-22.278v-651.991
		c0-12.283,9.999-22.277,22.277-22.277h801.991c12.287,0,22.277,9.994,22.277,22.277v651.991c0,12.283-9.99,22.278-22.277,22.278
		H499.001z M1723.525,1707.933c0,12.283-9.999,22.278-22.277,22.278h-318.673c1.944-7.11,3.071-14.56,3.071-22.278v-651.991
		c0-46.679-37.976-84.655-84.654-84.655H499.001c-46.678,0-84.654,37.977-84.654,84.655v651.991c0,7.719,1.131,15.168,3.076,22.278
		H98.754c-12.288,0-22.278-9.995-22.278-22.278V92.068c0-12.283,9.99-22.277,22.278-22.277h318.668
		c-1.945,7.109-3.076,14.559-3.076,22.277v408.423c0,46.678,37.977,84.654,84.654,84.654h801.991
		c46.679,0,84.654-37.976,84.654-84.654V92.068c0-4.765-0.487-9.407-1.249-13.958l339.128,339.127V1707.933z"/>
	<path fill="#333333" d="M1006.746,458.164h209.592c17.229,0,31.188-13.963,31.188-31.188V164.096
		c0-17.226-13.959-31.188-31.188-31.188h-209.592c-17.23,0-31.188,13.962-31.188,31.188v262.879
		C975.558,444.201,989.516,458.164,1006.746,458.164z M1037.935,195.285h147.215v200.502h-147.215V195.285z"/>
</g>
<g>
</g>
<g>
</g>
<g>
</g>
<g>
</g>
<g>
</g>
<g>
</g>
</svg>
