<?xml version="1.0" encoding="utf-8"?>
<!-- Generator: Adobe Illustrator 16.0.0, SVG Export Plug-In . SVG Version: 6.00 Build 0)  -->
<!DOCTYPE svg PUBLIC "-//W3C//DTD SVG 1.1//EN" "http://www.w3.org/Graphics/SVG/1.1/DTD/svg11.dtd">
<svg version="1.1" id="MICROPHONE" xmlns="http://www.w3.org/2000/svg" xmlns:xlink="http://www.w3.org/1999/xlink" x="0px" y="0px"
	 width="1800px" height="1800px" viewBox="0 0 1800 1800" enable-background="new 0 0 1800 1800" xml:space="preserve">
<g>
	<path fill="#333333" d="M899.997,1430.906c196.13,0,355.689-159.568,355.689-355.707l0.005-725.97c0-2.024-0.197-4.004-0.57-5.922
		C1245.143,154.168,1090.046,6.706,900.006,6.706c-190.005,0-345.088,147.425-355.124,336.513c-0.377,1.945-0.574,3.956-0.574,6.01
		v725.97C544.308,1271.338,703.868,1430.906,899.997,1430.906z M607.108,896.711h117.567c17.343,0,31.4-14.058,31.4-31.4
		s-14.058-31.4-31.4-31.4H607.108V681.478h117.567c17.343,0,31.4-14.058,31.4-31.4s-14.058-31.4-31.4-31.4H607.108V466.24h117.567
		c17.343,0,31.4-14.058,31.4-31.4c0-17.343-14.058-31.4-31.4-31.4H607.108v-49.663c0.158-1.082,0.259-2.178,0.302-3.29
		C612.3,228.398,690.59,126.857,798.984,87.303v125.965c0,17.343,14.058,31.4,31.4,31.4s31.4-14.058,31.4-31.4V72.036
		c12.516-1.616,25.259-2.53,38.221-2.53c11.552,0,22.924,0.738,34.125,2.026v141.735c0,17.343,14.058,31.4,31.4,31.4
		s31.4-14.058,31.4-31.4V85.822c110.51,38.464,190.711,141.043,195.656,264.665c0.044,1.1,0.145,2.19,0.303,3.259v49.694H1075.31
		c-17.343,0-31.4,14.057-31.4,31.4c0,17.343,14.058,31.4,31.4,31.4h117.581v152.437H1075.31c-17.343,0-31.4,14.058-31.4,31.4
		s14.058,31.4,31.4,31.4h117.581l-0.005,152.433H1075.31c-17.343,0-31.4,14.058-31.4,31.4s14.058,31.4,31.4,31.4h117.576v178.488
		c0,161.51-131.388,292.906-292.889,292.906c-161.5,0-292.889-131.396-292.889-292.906V896.711z"/>
	<path fill="#333333" d="M1509.412,676.055h-144.367c-17.343,0-31.4,14.057-31.4,31.4v368.188
		c0,237.368-191.71,430.769-428.426,433.576c-1.699-0.285-3.438-0.469-5.217-0.469c-1.778,0-3.518,0.184-5.217,0.469
		c-236.716-2.808-428.43-196.208-428.43-433.576V707.455c0-17.343-14.058-31.4-31.4-31.4H290.586c-17.343,0-31.4,14.057-31.4,31.4
		c0,17.343,14.057,31.4,31.4,31.4h112.968v336.788c0,263.191,205.881,479.161,465.048,495.422v159.429H622.835
		c-17.343,0-31.4,14.058-31.4,31.4s14.058,31.4,31.4,31.4h554.333c17.343,0,31.4-14.058,31.4-31.4s-14.058-31.4-31.4-31.4H931.402
		v-159.429c259.166-16.261,465.043-232.23,465.043-495.422V738.855h112.967c17.344,0,31.4-14.057,31.4-31.4
		C1540.813,690.112,1526.756,676.055,1509.412,676.055z"/>
</g>
<g>
</g>
<g>
</g>
<g>
</g>
<g>
</g>
<g>
</g>
<g>
</g>
</svg>
