<?xml version="1.0" encoding="utf-8"?>
<!-- Generator: Adobe Illustrator 16.0.0, SVG Export Plug-In . SVG Version: 6.00 Build 0)  -->
<!DOCTYPE svg PUBLIC "-//W3C//DTD SVG 1.1//EN" "http://www.w3.org/Graphics/SVG/1.1/DTD/svg11.dtd">
<svg version="1.1" id="CLOUD_NETWORK" xmlns="http://www.w3.org/2000/svg" xmlns:xlink="http://www.w3.org/1999/xlink" x="0px"
	 y="0px" width="1800px" height="1800px" viewBox="0 0 1800 1800" enable-background="new 0 0 1800 1800" xml:space="preserve">
<path fill="#333333" d="M1635.687,1278.4c-47.769,0-88.294,31.611-101.762,75.016h-145.789v-349.629h73.367
	c4.988,0.22,9.674,0.326,14.307,0.326c4.782,0,9.635-0.115,14.817-0.348c0.079-0.005,0.158-0.01,0.237-0.01
	c173.133-7.938,308.756-150.018,308.756-323.454c0-134.669-81.956-253.44-205.979-301.697
	c-14.456-100.161-63.179-192.209-138.563-260.994c-80.945-73.862-185.92-114.539-295.579-114.539
	c-137.799,0-266.188,64.115-349.019,172.916c-45.162-22.9-95.19-34.891-146.321-34.891c-139.064,0-261.005,87.974-305.833,217.184
	c-11.335-1.191-22.746-1.793-34.13-1.793C145.642,356.487,0.38,501.749,0.38,680.302c0,178.549,145.262,323.812,323.815,323.812
	c5.393,0,10.958-0.146,16.592-0.436c0.875,0.074,1.758,0.109,2.65,0.109h72.515v349.629h-145.79
	c-13.467-43.404-53.993-75.016-101.761-75.016c-58.735,0-106.521,47.787-106.521,106.521c0,58.735,47.786,106.521,106.521,106.521
	c47.769,0,88.294-31.611,101.761-75.016h177.295c17.401,0,31.506-14.104,31.506-31.506v-381.135h194.534v586.93
	c-43.404,13.463-75.016,53.988-75.016,101.762c0,58.735,47.787,106.521,106.521,106.521s106.521-47.786,106.521-106.521
	c0-47.773-31.611-88.299-75.016-101.762v-586.93h331.067v586.93c-43.403,13.463-75.016,53.988-75.016,101.762
	c0,58.735,47.787,106.521,106.521,106.521c58.735,0,106.522-47.786,106.522-106.521c0-47.773-31.612-88.299-75.016-101.762v-586.93
	h194.534v381.135c0,17.401,14.104,31.506,31.506,31.506h177.295c13.468,43.404,53.993,75.016,101.762,75.016
	c58.735,0,106.521-47.786,106.521-106.521C1742.208,1326.188,1694.422,1278.4,1635.687,1278.4z M168.401,1428.432
	c-23.99,0-43.51-19.52-43.51-43.51s19.52-43.51,43.51-43.51c23.99,0,43.51,19.52,43.51,43.51S192.391,1428.432,168.401,1428.432z
	 M705.004,1735.988c-23.99,0-43.51-19.52-43.51-43.51s19.52-43.51,43.51-43.51s43.51,19.52,43.51,43.51
	S728.994,1735.988,705.004,1735.988z M1099.083,1735.988c-23.989,0-43.509-19.52-43.509-43.51s19.52-43.51,43.509-43.51
	c23.99,0,43.51,19.52,43.51,43.51S1123.073,1735.988,1099.083,1735.988z M341.398,940.525c-5.886,0.382-11.674,0.575-17.204,0.575
	c-143.807,0-260.803-116.996-260.803-260.799c0-143.807,116.996-260.803,260.803-260.803c16.909,0,33.875,1.644,50.428,4.883
	c16.469,3.2,32.53-7.002,36.608-23.247c29.133-116.007,133.14-197.026,252.927-197.026c49.272,0,97.252,13.81,138.753,39.941
	c14.479,9.116,33.615,5.006,43.062-9.279c69.877-105.629,187.079-168.687,313.525-168.687c194.314,0,355.039,145.629,373.86,338.749
	c1.222,12.531,9.784,23.133,21.783,26.961c108.539,34.626,181.467,134.493,181.467,248.509c0,139.628-109.119,254.017-248.452,260.5
	c-0.065,0-0.127,0.005-0.193,0.009c-8.602,0.387-15.744,0.387-24.311,0c-0.479-0.021-0.963-0.035-1.441-0.035H347.895
	C345.763,940.468,343.587,940.385,341.398,940.525z M1635.687,1428.432c-23.99,0-43.51-19.52-43.51-43.51s19.52-43.51,43.51-43.51
	s43.51,19.52,43.51,43.51S1659.677,1428.432,1635.687,1428.432z"/>
<g>
</g>
<g>
</g>
<g>
</g>
<g>
</g>
<g>
</g>
<g>
</g>
</svg>
