<?xml version="1.0" encoding="utf-8"?>
<!-- Generator: Adobe Illustrator 16.0.0, SVG Export Plug-In . SVG Version: 6.00 Build 0)  -->
<!DOCTYPE svg PUBLIC "-//W3C//DTD SVG 1.1//EN" "http://www.w3.org/Graphics/SVG/1.1/DTD/svg11.dtd">
<svg version="1.1" id="FILE_DOWNLOAD" xmlns="http://www.w3.org/2000/svg" xmlns:xlink="http://www.w3.org/1999/xlink" x="0px"
	 y="0px" width="1800px" height="1800px" viewBox="0 0 1800 1800" enable-background="new 0 0 1800 1800" xml:space="preserve">
<g>
	<g>
		<g>
			<path fill="#333333" d="M637.655,1373.291c-17.354,0-31.421-14.067-31.421-31.422V834.407c0-17.355,14.067-31.422,31.421-31.422
				c17.355,0,31.422,14.067,31.422,31.422v507.462C669.077,1359.224,655.01,1373.291,637.655,1373.291z"/>
		</g>
		<g>
			<path fill="#333333" d="M633.451,1373.291c-8.041,0-16.081-3.069-22.218-9.2l-180.151-180.139
				c-12.27-12.27-12.272-32.167,0-44.437c12.27-12.273,32.162-12.27,44.436-0.005l180.151,180.139
				c12.27,12.27,12.272,32.167,0,44.437C649.535,1370.222,641.493,1373.291,633.451,1373.291z"/>
		</g>
		<g>
			<path fill="#333333" d="M641.859,1373.291c-8.042,0-16.083-3.069-22.218-9.205c-12.272-12.27-12.27-32.167,0-44.437
				l180.151-180.139c12.274-12.265,32.171-12.265,44.436,0.005c12.272,12.27,12.27,32.167,0,44.437l-180.151,180.139
				C657.942,1370.222,649.898,1373.291,641.859,1373.291z"/>
		</g>
	</g>
	<g>
		<g>
			<path fill="#333333" d="M1649.069,3.258H626.017c-43.336,0-78.584,35.445-78.584,79.022v180.463H150.931
				c-43.34,0-78.597,35.454-78.597,79.026v1138.41v20.796v216.749c0,43.576,35.257,79.018,78.597,79.018h1023.053
				c43.33,0,78.58-35.441,78.58-79.018v-51.06h396.518c43.332,0,78.584-35.446,78.584-79.022v-474.521V556.8V82.28
				C1727.666,38.704,1692.404,3.258,1649.069,3.258z M1194.333,1717.725c0,11.463-9.123,20.786-20.349,20.786H150.931
				c-11.226,0-20.371-9.323-20.371-20.786v-216.749v-20.796V341.77c0-11.458,9.145-20.795,20.371-20.795h396.502h58.231h358.975
				v178.622c0,16.166,13.072,29.264,29.199,29.264h200.495v951.32v20.796v107.458v58.231V1717.725z M1023.049,470.322V357.77
				l124.375,112.552H1023.049z M1669.436,1113.122v474.521c0,11.463-9.123,20.791-20.354,20.791h-396.518v-107.458v-20.796V501.2
				v-3.011c-0.418-8.702-4.578-16.421-10.941-21.51l-47.29-42.784l-124.778-112.92l-56.146-50.796
				c-5.023-4.542-11.335-7.041-17.814-7.435h-3.313H605.664V82.28c0-11.467,9.127-20.791,20.353-20.791h1023.052
				c11.228,0,20.366,9.324,20.366,20.791V556.8V1113.122z"/>
		</g>
	</g>
</g>
<g>
</g>
<g>
</g>
<g>
</g>
<g>
</g>
<g>
</g>
<g>
</g>
</svg>
