<?xml version="1.0" encoding="utf-8"?>
<!-- Generator: Adobe Illustrator 16.0.0, SVG Export Plug-In . SVG Version: 6.00 Build 0)  -->
<!DOCTYPE svg PUBLIC "-//W3C//DTD SVG 1.1//EN" "http://www.w3.org/Graphics/SVG/1.1/DTD/svg11.dtd">
<svg version="1.1" id="SITE_MAP" xmlns="http://www.w3.org/2000/svg" xmlns:xlink="http://www.w3.org/1999/xlink" x="0px" y="0px"
	 width="1800px" height="1800px" viewBox="0 0 1800 1800" enable-background="new 0 0 1800 1800" xml:space="preserve">
<g>
	<path fill="#333333" d="M1765.051,0H34.949C17.561,0,3.466,14.095,3.466,31.484v476.753c0,17.389,14.095,31.483,31.483,31.483
		h1730.102c17.389,0,31.484-14.095,31.484-31.483V31.484C1796.535,14.095,1782.439,0,1765.051,0z M1733.567,476.753H66.433V62.968
		h1667.134V476.753z"/>
	<path fill="#333333" d="M511.707,1260.279H34.954c-17.389,0-31.484,14.1-31.484,31.484v476.753
		c0,17.394,14.095,31.483,31.484,31.483h476.753c17.389,0,31.483-14.09,31.483-31.483v-476.753
		C543.19,1274.379,529.096,1260.279,511.707,1260.279z M480.223,1737.033H66.438v-413.786h413.786V1737.033z"/>
	<path fill="#333333" d="M1138.377,1260.279H661.624c-17.389,0-31.484,14.1-31.484,31.484v476.753
		c0,17.394,14.095,31.483,31.484,31.483h476.753c17.389,0,31.483-14.09,31.483-31.483v-476.753
		C1169.86,1274.379,1155.766,1260.279,1138.377,1260.279z M1106.893,1737.033H693.107v-413.786h413.785V1737.033z"/>
	<path fill="#333333" d="M1765.051,1260.279h-476.753c-17.39,0-31.483,14.1-31.483,31.484v476.753
		c0,17.394,14.094,31.483,31.483,31.483h476.753c17.389,0,31.484-14.09,31.484-31.483v-476.753
		C1796.535,1274.379,1782.439,1260.279,1765.051,1260.279z M1733.567,1737.033h-413.786v-413.786h413.786V1737.033z"/>
	<path fill="#333333" d="M900,593.693c-17.389,0-31.483,14.095-31.483,31.484v324.763H273.33c-17.389,0-31.483,14.1-31.483,31.484
		v193.4c0,17.393,14.095,31.482,31.483,31.482c17.389,0,31.484-14.09,31.484-31.482v-161.917h563.703v161.917
		c0,17.393,14.095,31.482,31.483,31.482s31.484-14.09,31.484-31.482v-161.917h563.706v161.917c0,17.393,14.095,31.482,31.483,31.482
		s31.484-14.09,31.484-31.482v-193.4c0-17.385-14.096-31.484-31.484-31.484H931.484V625.177
		C931.484,607.788,917.389,593.693,900,593.693z"/>
</g>
<g>
</g>
<g>
</g>
<g>
</g>
<g>
</g>
<g>
</g>
<g>
</g>
</svg>
