<?xml version="1.0" encoding="utf-8"?>
<!-- Generator: Adobe Illustrator 16.0.0, SVG Export Plug-In . SVG Version: 6.00 Build 0)  -->
<!DOCTYPE svg PUBLIC "-//W3C//DTD SVG 1.1//EN" "http://www.w3.org/Graphics/SVG/1.1/DTD/svg11.dtd">
<svg version="1.1" id="MOUSE" xmlns="http://www.w3.org/2000/svg" xmlns:xlink="http://www.w3.org/1999/xlink" x="0px" y="0px"
	 width="1800px" height="1800px" viewBox="0 0 1800 1800" enable-background="new 0 0 1800 1800" xml:space="preserve">
<g>
	<g>
		<path fill="#333333" d="M951.669,1792.279c-143.699,0-278.138-75.66-378.553-213.039
			c-98.267-134.439-152.384-312.672-152.384-501.869c0-189.193,54.117-367.426,152.384-501.865
			c100.415-137.379,234.854-213.04,378.553-213.04c143.701,0,278.14,75.66,378.56,213.04
			c98.262,134.438,152.381,312.669,152.381,501.865c0,189.197-54.119,367.43-152.381,501.869
			C1229.809,1716.619,1095.37,1792.279,951.669,1792.279z M951.669,424.84c-258.368,0-468.563,292.723-468.563,652.531
			c0,359.808,210.196,652.535,468.563,652.535c258.37,0,468.568-292.728,468.568-652.535
			C1420.237,717.563,1210.039,424.84,951.669,424.84z"/>
	</g>
	<g>
		<path fill="#333333" d="M965.035,953.709h-26.731c-46.675,0-84.648-37.973-84.648-84.648v-166.33
			c0-46.675,37.974-84.648,84.648-84.648h26.731c46.675,0,84.647,37.974,84.647,84.648v166.33
			C1049.683,915.736,1011.71,953.709,965.035,953.709z M938.304,680.455c-12.282,0-22.276,9.994-22.276,22.276v166.33
			c0,12.282,9.994,22.276,22.276,22.276h26.731c12.281,0,22.275-9.994,22.275-22.276v-166.33c0-12.282-9.994-22.276-22.275-22.276
			H938.304z"/>
	</g>
	<g>
		<path fill="#333333" d="M951.669,424.84c-17.225,0-31.187-13.962-31.187-31.187c0-54.452-13.369-73.996-23.424-83.959
			c-33.636-33.329-117.371-32.567-244.13-31.399c-25.544,0.235-51.957,0.477-80.594,0.477c-85.779,0-151.948-24.597-196.665-73.106
			C310.528,135,317.424,40.372,317.748,36.377c1.401-17.166,16.48-29.949,33.616-28.552c17.129,1.396,29.892,16.38,28.561,33.499
			c-0.092,1.349-4.468,72.523,42.009,122.504c32.437,34.882,83.041,52.57,150.401,52.57c28.352,0,54.617-0.242,80.019-0.474
			c147.482-1.349,236.497-2.169,288.608,49.464c28.58,28.321,41.894,69.079,41.894,128.265
			C982.855,410.878,968.894,424.84,951.669,424.84z"/>
	</g>
</g>
<g>
</g>
<g>
</g>
<g>
</g>
<g>
</g>
<g>
</g>
<g>
</g>
</svg>
