<?xml version="1.0" encoding="utf-8"?>
<!-- Generator: Adobe Illustrator 16.0.0, SVG Export Plug-In . SVG Version: 6.00 Build 0)  -->
<!DOCTYPE svg PUBLIC "-//W3C//DTD SVG 1.1//EN" "http://www.w3.org/Graphics/SVG/1.1/DTD/svg11.dtd">
<svg version="1.1" id="BATTERY" xmlns="http://www.w3.org/2000/svg" xmlns:xlink="http://www.w3.org/1999/xlink" x="0px" y="0px"
	 width="1800px" height="1800px" viewBox="0 0 1800 1800" enable-background="new 0 0 1800 1800" xml:space="preserve">
<g>
	<path fill="#333333" d="M955.577,469.95c0.991-11.551-4.471-23.208-15.062-29.614c-5.422-3.281-11.499-4.721-17.316-4.527
		c-11.915,0.347-22.164,7.318-27.2,17.36L616.275,915.595c-5.874,9.714-6.063,21.831-0.487,31.72s16.044,16.004,27.394,16.004
		h172.294v399.955c0,14.18,9.498,26.612,23.186,30.342c2.742,0.746,5.519,1.105,8.261,1.105c10.941,0,21.356-5.729,27.104-15.504
		l309.898-526.839c5.721-9.722,5.796-21.765,0.193-31.557c-5.598-9.792-16.018-15.833-27.297-15.833H955.577V469.95z
		 M1101.838,867.882l-223.467,379.902V931.871c0-17.373-14.079-31.449-31.447-31.449H698.957l193.726-320.252v256.265
		c0,17.369,14.079,31.447,31.448,31.447H1101.838z"/>
	<path fill="#333333" d="M1507.236,278.071h-346.672V33.419c0-17.369-14.078-31.447-31.447-31.447H670.883
		c-17.369,0-31.447,14.079-31.447,31.447v244.652H292.764c-17.369,0-31.447,14.079-31.447,31.447v1457.061
		c0,17.374,14.078,31.448,31.447,31.448h1214.473c17.369,0,31.447-14.074,31.447-31.448V309.519
		C1538.684,292.15,1524.605,278.071,1507.236,278.071z M702.33,64.867h395.34v213.205H702.33V64.867z M1475.789,1735.132H324.211
		v-182.095h1151.578V1735.132z M1475.789,1490.143H324.211V340.966h346.672h458.234h346.672V1490.143z"/>
</g>
<g>
</g>
<g>
</g>
<g>
</g>
<g>
</g>
<g>
</g>
<g>
</g>
</svg>
