<?xml version="1.0" encoding="utf-8"?>
<!-- Generator: Adobe Illustrator 16.0.0, SVG Export Plug-In . SVG Version: 6.00 Build 0)  -->
<!DOCTYPE svg PUBLIC "-//W3C//DTD SVG 1.1//EN" "http://www.w3.org/Graphics/SVG/1.1/DTD/svg11.dtd">
<svg version="1.1" id="FILTER" xmlns="http://www.w3.org/2000/svg" xmlns:xlink="http://www.w3.org/1999/xlink" x="0px" y="0px"
	 width="1800px" height="1800px" viewBox="0 0 1800 1800" enable-background="new 0 0 1800 1800" xml:space="preserve">
<path fill="#333333" d="M1763.83,1.676H36.17c-17.395,0-31.494,14.1-31.494,31.494v394.424c0,0.563,0.058,1.111,0.084,1.665
	c0.022,0.417,0.026,0.839,0.062,1.252c0.123,1.327,0.334,2.619,0.615,3.889c0.07,0.334,0.167,0.655,0.25,0.984
	c0.285,1.112,0.619,2.193,1.014,3.252c0.106,0.268,0.194,0.544,0.299,0.813c0.515,1.256,1.107,2.469,1.766,3.633
	c0.159,0.286,0.339,0.558,0.51,0.84c0.62,1.019,1.292,2.003,2.021,2.943c0.149,0.198,0.286,0.4,0.439,0.589
	c0.87,1.072,1.828,2.065,2.83,3.014c0.114,0.115,0.211,0.246,0.334,0.356l708.13,647.886v668.12
	c0,11.546,6.327,22.165,16.468,27.676c4.701,2.553,9.868,3.816,15.026,3.816c5.984,0,11.959-1.703,17.162-5.082l290.939-188.963
	c8.946-5.809,14.342-15.747,14.342-26.411v-485.171l693.233-634.253c14.341-2.944,25.123-15.637,25.123-30.848V33.17
	C1795.324,15.775,1781.229,1.676,1763.83,1.676z M1732.337,64.664v331.428H67.664V64.664H1732.337z M1024.217,1055.591
	c-6.52,5.962-10.238,14.394-10.238,23.233v481.942l-227.96,148.054v-623.981c0-8.839-3.708-17.271-10.229-23.233L117.247,459.088
	h1558.938L1024.217,1055.591z"/>
<g>
</g>
<g>
</g>
<g>
</g>
<g>
</g>
<g>
</g>
<g>
</g>
</svg>
