<?xml version="1.0" encoding="utf-8"?>
<!-- Generator: Adobe Illustrator 16.0.0, SVG Export Plug-In . SVG Version: 6.00 Build 0)  -->
<!DOCTYPE svg PUBLIC "-//W3C//DTD SVG 1.1//EN" "http://www.w3.org/Graphics/SVG/1.1/DTD/svg11.dtd">
<svg version="1.1" id="SETTINGS" xmlns="http://www.w3.org/2000/svg" xmlns:xlink="http://www.w3.org/1999/xlink" x="0px" y="0px"
	 width="1800px" height="1800px" viewBox="0 0 1800 1800" enable-background="new 0 0 1800 1800" xml:space="preserve">
<g>
	<path fill="#333333" d="M1468.436,32.467v188.211c-98.748,15.249-174.595,100.822-174.595,203.777s75.847,188.521,174.595,203.777
		v1139.302c0,17.453,14.146,31.608,31.607,31.608c17.454,0,31.609-14.155,31.609-31.608V628.232
		c98.748-15.257,174.59-100.822,174.59-203.777s-75.842-188.529-174.59-203.777V32.467c0-17.454-14.155-31.608-31.609-31.608
		C1482.581,0.858,1468.436,15.013,1468.436,32.467z M1643.029,424.455c0,67.979-47.703,124.986-111.377,139.423
		c-10.179,2.302-20.744,3.563-31.609,3.563s-21.43-1.261-31.607-3.563c-63.684-14.438-111.378-71.444-111.378-139.423
		c0-67.988,47.694-124.995,111.378-139.424c10.178-2.311,20.742-3.563,31.607-3.563s21.431,1.252,31.609,3.563
		C1595.326,299.46,1643.029,356.467,1643.029,424.455z"/>
	<path fill="#333333" d="M331.574,1767.534V628.232c98.758-15.257,174.603-100.822,174.603-203.777s-75.845-188.529-174.603-203.777
		V32.467c0-17.454-14.146-31.608-31.608-31.608c-17.454,0-31.608,14.155-31.608,31.608v188.211
		C169.609,235.926,93.763,321.5,93.763,424.455s75.846,188.521,174.594,203.777v1139.302c0,17.453,14.155,31.608,31.608,31.608
		C317.428,1799.143,331.574,1784.987,331.574,1767.534z M156.98,424.455c0-67.988,47.703-124.995,111.377-139.424
		c10.178-2.311,20.752-3.563,31.608-3.563c10.865,0,21.431,1.252,31.608,3.563c63.684,14.429,111.387,71.436,111.387,139.424
		c0,67.979-47.703,124.986-111.387,139.423c-10.178,2.302-20.743,3.563-31.608,3.563c-10.856,0-21.431-1.261-31.608-3.563
		C204.683,549.441,156.98,492.434,156.98,424.455z"/>
	<path fill="#333333" d="M931.617,1767.534V1419.51c98.748-15.257,174.594-100.822,174.594-203.777s-75.846-188.529-174.594-203.777
		V32.467c0-17.454-14.154-31.608-31.608-31.608c-17.462,0-31.608,14.155-31.608,31.608v979.488
		c-98.757,15.248-174.603,100.822-174.603,203.777s75.846,188.521,174.603,203.777v348.024c0,17.453,14.146,31.608,31.608,31.608
		C917.463,1799.143,931.617,1784.987,931.617,1767.534z M757.015,1215.732c0-67.986,47.703-124.995,111.386-139.424
		c10.177-2.309,20.743-3.563,31.608-3.563c10.865,0,21.431,1.254,31.608,3.563c63.676,14.429,111.378,71.438,111.378,139.424
		c0,67.979-47.702,124.986-111.378,139.424c-10.178,2.303-20.743,3.563-31.608,3.563c-10.865,0-21.431-1.26-31.608-3.563
		C804.717,1340.719,757.015,1283.711,757.015,1215.732z"/>
</g>
<g>
</g>
<g>
</g>
<g>
</g>
<g>
</g>
<g>
</g>
<g>
</g>
</svg>
