<?xml version="1.0" encoding="utf-8"?>
<!-- Generator: Adobe Illustrator 16.0.0, SVG Export Plug-In . SVG Version: 6.00 Build 0)  -->
<!DOCTYPE svg PUBLIC "-//W3C//DTD SVG 1.1//EN" "http://www.w3.org/Graphics/SVG/1.1/DTD/svg11.dtd">
<svg version="1.1" id="MUSIC" xmlns="http://www.w3.org/2000/svg" xmlns:xlink="http://www.w3.org/1999/xlink" x="0px" y="0px"
	 width="1800px" height="1800px" viewBox="0 0 1800 1800" enable-background="new 0 0 1800 1800" xml:space="preserve">
<path fill="#333333" d="M1674.102,313.758V35.517c0-0.531-0.053-1.05-0.08-1.573c0.212-3.68-0.184-7.458-1.348-11.182
	c-5.178-16.602-22.839-25.852-39.428-20.683L569.624,333.772c-1.089,0.334-2.151,0.72-3.184,1.16
	c-0.084,0.035-0.154,0.079-0.238,0.114c-0.856,0.378-1.691,0.782-2.507,1.226c-0.439,0.242-0.853,0.518-1.279,0.777
	c-0.435,0.263-0.878,0.519-1.295,0.804c-0.527,0.356-1.023,0.751-1.529,1.138c-0.294,0.229-0.602,0.443-0.892,0.685
	c-0.496,0.413-0.958,0.857-1.428,1.301c-0.272,0.254-0.553,0.496-0.816,0.76c-0.409,0.417-0.786,0.855-1.173,1.291
	c-0.294,0.329-0.598,0.655-0.879,0.998c-0.302,0.377-0.583,0.773-0.869,1.164c-0.32,0.435-0.655,0.866-0.953,1.313
	c-0.215,0.325-0.404,0.663-0.606,0.992c-0.329,0.544-0.663,1.085-0.962,1.647c-0.149,0.281-0.277,0.575-0.417,0.861
	c-0.308,0.623-0.615,1.251-0.878,1.893c-0.124,0.299-0.22,0.602-0.329,0.901c-0.242,0.641-0.488,1.282-0.69,1.945
	c-0.136,0.448-0.232,0.909-0.351,1.366c-0.132,0.519-0.281,1.028-0.386,1.555c-0.184,0.905-0.316,1.823-0.417,2.75
	c-0.013,0.088-0.03,0.171-0.039,0.263c-0.114,1.125-0.171,2.258-0.163,3.4v281.451c0,0.119,0,0.242,0,0.365v748.525
	c-44.338-48.791-108.277-79.475-179.244-79.475c-133.55,0-242.2,108.656-242.2,242.209c0,133.554,108.65,242.203,242.2,242.203
	c133.553,0,242.208-108.649,242.208-242.203V668.854l1000.829-312.107v709.3c-44.338-48.791-108.273-79.465-179.24-79.465
	c-133.553,0-242.203,108.646-242.203,242.199c0,133.557,108.65,242.213,242.203,242.213c133.555,0,242.205-108.656,242.205-242.213
	V314.122C1674.102,313.999,1674.102,313.88,1674.102,313.758z M368.1,1736.388c-98.83,0-179.235-80.405-179.235-179.239
	c0-98.835,80.405-179.244,179.235-179.244c98.833,0,179.244,80.409,179.244,179.244
	C547.344,1655.982,466.934,1736.388,368.1,1736.388z M1431.896,1408.029c-98.832,0-179.239-80.41-179.239-179.248
	c0-98.835,80.407-179.239,179.239-179.239c98.834,0,179.24,80.404,179.24,179.239
	C1611.137,1327.619,1530.73,1408.029,1431.896,1408.029z M610.308,602.899v-215.86L1611.137,74.931v215.861L610.308,602.899z"/>
<g>
</g>
<g>
</g>
<g>
</g>
<g>
</g>
<g>
</g>
<g>
</g>
</svg>
