<?xml version="1.0" encoding="utf-8"?>
<!-- Generator: Adobe Illustrator 16.0.0, SVG Export Plug-In . SVG Version: 6.00 Build 0)  -->
<!DOCTYPE svg PUBLIC "-//W3C//DTD SVG 1.1//EN" "http://www.w3.org/Graphics/SVG/1.1/DTD/svg11.dtd">
<svg version="1.1" id="CREDIT_CARD" xmlns="http://www.w3.org/2000/svg" xmlns:xlink="http://www.w3.org/1999/xlink" x="0px"
	 y="0px" width="1800px" height="1800px" viewBox="0 0 1800 1800" enable-background="new 0 0 1800 1800" xml:space="preserve">
<g>
	<path fill="#333333" d="M197.667,1268.735h536.292c17.423,0,31.546-14.119,31.546-31.546c0-17.421-14.123-31.547-31.546-31.547
		H197.667c-17.423,0-31.546,14.126-31.546,31.547C166.121,1254.616,180.243,1268.735,197.667,1268.735z"/>
	<path fill="#333333" d="M905.211,1423.088H197.667c-17.423,0-31.546,14.127-31.546,31.546c0,17.428,14.123,31.547,31.546,31.547
		h707.544c17.425,0,31.547-14.119,31.547-31.547C936.758,1437.215,922.636,1423.088,905.211,1423.088z"/>
	<path fill="#333333" d="M197.667,1051.29h1381.288c17.425,0,31.547-14.129,31.547-31.547c0-17.428-14.122-31.547-31.547-31.547
		H197.667c-17.423,0-31.546,14.119-31.546,31.547C166.121,1037.161,180.243,1051.29,197.667,1051.29z"/>
	<path fill="#333333" d="M1418.561,1141.168c-41.674,0-80.367,12.946-112.333,34.979c-31.964-22.032-70.658-34.979-112.331-34.979
		c-109.409,0-198.422,89.015-198.422,198.423c0,109.411,89.013,198.417,198.422,198.417c41.673,0,80.367-12.939,112.331-34.979
		c31.966,22.04,70.659,34.979,112.333,34.979c109.409,0,198.419-89.006,198.419-198.417
		C1616.979,1230.183,1527.97,1141.168,1418.561,1141.168z M1306.228,1414.962c-14.511-21.556-22.995-47.485-22.995-75.371
		c0-27.884,8.484-53.825,22.995-75.38c14.51,21.555,22.995,47.496,22.995,75.38
		C1329.223,1367.477,1320.737,1393.406,1306.228,1414.962z M1058.568,1339.591c0-74.622,60.707-135.33,135.328-135.33
		c23.75,0,46.087,6.17,65.513,16.97c-24.654,33.061-39.27,74.033-39.27,118.36c0,44.319,14.615,85.292,39.27,118.354
		c-19.426,10.8-41.763,16.97-65.513,16.97C1119.275,1474.914,1058.568,1414.207,1058.568,1339.591z M1418.561,1474.914
		c-23.753,0-46.09-6.17-65.515-16.97c24.655-33.062,39.271-74.034,39.271-118.354c0-44.327-14.615-85.3-39.271-118.36
		c19.425-10.8,41.762-16.97,65.515-16.97c74.618,0,135.326,60.708,135.326,135.33
		C1553.887,1414.207,1493.179,1474.914,1418.561,1474.914z"/>
	<path fill="#333333" d="M1765.979,668.543h-74.491l-237.127-647.23c-5.99-16.356-24.096-24.773-40.471-18.768L44.973,504.073
		c-16.358,5.994-24.76,24.113-18.766,40.474l45.428,123.997H34.02c-17.424,0-31.547,14.123-31.547,31.546v1067.756
		c0,17.429,14.123,31.547,31.547,31.547h1731.96c17.425,0,31.548-14.118,31.548-31.547V700.09
		C1797.527,682.667,1783.404,668.543,1765.979,668.543z M1624.293,668.543H658.115l851.84-312.087L1624.293,668.543z
		 M1405.972,72.641l34.923,95.313L131.221,647.777l-34.923-95.315L1405.972,72.641z M1462.596,227.196l25.653,70.019
		L474.711,668.543H257.947L1462.596,227.196z M1734.434,1736.3H65.566V731.637h29.188h67.186H302.5h183.404h1161.509h67.189h19.831
		v54.12v155.445V1736.3z"/>
</g>
<g>
</g>
<g>
</g>
<g>
</g>
<g>
</g>
<g>
</g>
<g>
</g>
</svg>
