<?xml version="1.0" encoding="utf-8"?>
<!-- Generator: Adobe Illustrator 16.0.0, SVG Export Plug-In . SVG Version: 6.00 Build 0)  -->
<!DOCTYPE svg PUBLIC "-//W3C//DTD SVG 1.1//EN" "http://www.w3.org/Graphics/SVG/1.1/DTD/svg11.dtd">
<svg version="1.1" id="POINTER" xmlns="http://www.w3.org/2000/svg" xmlns:xlink="http://www.w3.org/1999/xlink" x="0px" y="0px"
	 width="1800px" height="1800px" viewBox="0 0 1800 1800" enable-background="new 0 0 1800 1800" xml:space="preserve">
<g>
	<path fill="#333333" d="M3.589,44.981l722.935,1734.396c4.938,11.834,16.494,19.473,29.212,19.473c0.534,0,1.064-0.017,1.603-0.044
		c13.345-0.671,24.826-9.645,28.703-22.431l230.227-760.125l760.101-230.213c12.784-3.871,21.767-15.354,22.437-28.699
		c0.672-13.342-7.101-25.669-19.434-30.809L44.989,3.585C33.14-1.343,19.496,1.349,10.425,10.421
		C1.355,19.491-1.342,33.14,3.589,44.981z M91.616,91.606L1673.59,751.021L981.705,960.576
		c-10.126,3.063-18.048,10.994-21.116,21.115l-209.565,691.907L91.616,91.606z"/>
	<path fill="#333333" d="M699.044,1270.004c-3.979,1.66-8.108,2.447-12.166,2.447c-12.396,0-24.165-7.33-29.229-19.483
		L425.565,696.183c-6.721-16.138,0.905-34.669,17.041-41.397c16.14-6.723,34.669,0.905,41.395,17.039l232.085,556.785
		C722.806,1244.746,715.18,1263.283,699.044,1270.004z"/>
</g>
<g>
</g>
<g>
</g>
<g>
</g>
<g>
</g>
<g>
</g>
<g>
</g>
</svg>
