<?xml version="1.0" encoding="utf-8"?>
<!-- Generator: Adobe Illustrator 16.0.0, SVG Export Plug-In . SVG Version: 6.00 Build 0)  -->
<!DOCTYPE svg PUBLIC "-//W3C//DTD SVG 1.1//EN" "http://www.w3.org/Graphics/SVG/1.1/DTD/svg11.dtd">
<svg version="1.1" id="REFRESH" xmlns="http://www.w3.org/2000/svg" xmlns:xlink="http://www.w3.org/1999/xlink" x="0px" y="0px"
	 width="1800px" height="1800px" viewBox="0 0 1800 1800" enable-background="new 0 0 1800 1800" xml:space="preserve">
<g>
	<path fill="#333333" d="M147.558,1234.803c-42.809-95.198-67.328-198.696-71.438-306.137
		c-8.405-219.555,69.194-429.247,218.505-590.444C443.93,177.034,647.075,83.629,866.635,75.225
		c211.431-8.08,413.71,63.609,572.343,202.278l-197.662,7.562c-17.369,0.667-30.911,15.281-30.248,32.652
		c0.649,16.967,14.604,30.272,31.43,30.272c0.41,0,0.817,0,1.226-0.018l272.117-10.417c0.328,0.018,0.65,0.053,0.982,0.053
		c0.408,0,0.817-0.009,1.227-0.026c17.37-0.659,30.911-15.281,30.25-32.653l-10.448-273.207
		c-0.664-17.372-15.474-30.875-32.655-30.25c-17.371,0.666-30.914,15.286-30.25,32.657l7.561,197.786
		C1311.412,81.416,1092.766,3.566,864.228,12.322C627.864,21.37,409.175,121.919,248.439,295.444
		C87.704,468.98,4.167,694.718,13.213,931.072c4.426,115.696,30.878,227.107,76.989,329.604c0.922,3.539,2.406,6.85,4.399,9.802
		c0.009,0.016,0.018,0.034,0.027,0.052l0.008-0.009c5.748,8.44,15.431,13.99,26.408,13.99c17.631,0,31.911-14.289,31.911-31.914
		c0-6.587-1.999-12.7-5.416-17.784L147.558,1234.803z"/>
	<path fill="#333333" d="M1709.859,539.519c-0.75-2.45-1.817-4.76-3.104-6.921c-0.113-0.245-0.22-0.491-0.334-0.737l-0.083,0.053
		c-5.651-8.958-15.605-14.93-26.982-14.93c-17.619,0-31.92,14.288-31.92,31.914c0,7.008,2.289,13.472,6.121,18.733
		c129.647,291.647,82.579,645.552-147.685,894.139c-149.311,161.198-352.457,254.597-572.01,263.001
		c-211.414,8.079-413.702-63.61-572.335-202.271l197.656-7.572c17.372-0.667,30.914-15.279,30.25-32.65
		c-0.668-17.372-15.352-30.817-32.656-30.256l-272.366,10.426c-0.654-0.019-1.304-0.054-1.967-0.036
		c-17.371,0.668-30.913,15.289-30.25,32.661l10.459,273.204c0.65,16.967,14.604,30.272,31.432,30.272
		c0.408,0,0.816-0.009,1.225-0.018c17.371-0.667,30.913-15.289,30.25-32.66l-7.574-197.802
		c162.422,142.869,367.644,220.274,583.58,220.274c11.531,0,23.119-0.228,34.702-0.667
		c236.359-9.046,455.05-109.594,615.789-283.128C1800.597,1236.227,1850.813,853.956,1709.859,539.519z"/>
</g>
<g>
</g>
<g>
</g>
<g>
</g>
<g>
</g>
<g>
</g>
<g>
</g>
</svg>
