<?xml version="1.0" encoding="utf-8"?>
<!-- Generator: Adobe Illustrator 16.0.0, SVG Export Plug-In . SVG Version: 6.00 Build 0)  -->
<!DOCTYPE svg PUBLIC "-//W3C//DTD SVG 1.1//EN" "http://www.w3.org/Graphics/SVG/1.1/DTD/svg11.dtd">
<svg version="1.1" id="LINK" xmlns="http://www.w3.org/2000/svg" xmlns:xlink="http://www.w3.org/1999/xlink" x="0px" y="0px"
	 width="1800px" height="1800px" viewBox="0 0 1800 1800" enable-background="new 0 0 1800 1800" xml:space="preserve">
<path fill="#333333" d="M1710.11,89.813c-56.914-56.918-132.584-88.264-213.075-88.264c-80.486,0-156.16,31.34-213.083,88.255
	L946.48,427.263c-109.931,109.943-116.968,284.393-21.16,402.64l-95.495,95.494c-53.483-43.448-119.697-67.089-189.552-67.089
	c-80.49,0-156.17,31.343-213.083,88.262L89.734,1284.028c-117.487,117.483-117.487,308.662-0.005,426.163
	c56.918,56.915,132.599,88.26,213.088,88.26c0.004,0-0.004,0,0.004,0c80.488,0,156.173-31.354,213.091-88.271l337.437-337.453
	c56.922-56.912,88.276-132.588,88.276-213.081c0-69.864-23.651-136.072-67.104-189.552l95.489-95.496
	c53.493,43.444,119.707,67.086,189.57,67.086c80.49,0,156.175-31.351,213.093-88.268l337.436-337.446
	c56.923-56.918,88.269-132.588,88.272-213.083C1798.383,222.393,1767.033,146.718,1710.11,89.813z M878.416,1159.646
	c0,63.606-24.776,123.409-69.764,168.387l-337.44,337.454c-44.978,44.979-104.782,69.753-168.394,69.753
	c-63.612,0-123.414-24.771-168.391-69.745c-92.841-92.853-92.837-243.93,0-336.77l337.456-337.454
	c44.982-44.983,104.785-69.754,168.391-69.754c52.942,0,103.214,17.214,144.53,48.908l-229.112,229.114
	c-12.341,12.342-12.341,32.35,0,44.696c6.173,6.169,14.259,9.255,22.351,9.255s16.177-3.086,22.35-9.259L829.5,1015.116
	C861.197,1056.43,878.416,1106.699,878.416,1159.646z M1665.414,471.271l-337.44,337.449
	c-44.978,44.983-104.78,69.754-168.392,69.754c-52.945,0-103.224-17.213-144.542-48.902l239.749-239.755
	c12.342-12.342,12.342-32.35-0.004-44.697c-12.338-12.336-32.35-12.34-44.696,0.005l-239.72,239.729
	c-71.336-93.294-64.44-227.634,20.808-312.895L1328.648,134.5c44.982-44.969,104.781-69.74,168.387-69.74
	c63.604,0,123.4,24.771,168.379,69.75c44.983,44.974,69.759,104.771,69.759,168.379
	C1735.173,366.495,1710.397,426.296,1665.414,471.271z"/>
<g>
</g>
<g>
</g>
<g>
</g>
<g>
</g>
<g>
</g>
<g>
</g>
</svg>
