<?xml version="1.0" encoding="utf-8"?>
<!-- Generator: Adobe Illustrator 16.0.0, SVG Export Plug-In . SVG Version: 6.00 Build 0)  -->
<!DOCTYPE svg PUBLIC "-//W3C//DTD SVG 1.1//EN" "http://www.w3.org/Graphics/SVG/1.1/DTD/svg11.dtd">
<svg version="1.1" id="DROP" xmlns="http://www.w3.org/2000/svg" xmlns:xlink="http://www.w3.org/1999/xlink" x="0px" y="0px"
	 width="1800px" height="1800px" viewBox="0 0 1800 1800" enable-background="new 0 0 1800 1800" xml:space="preserve">
<g>
	<path fill="#333333" d="M1588.221,739.806c-29.326-65.133-67.881-125.781-114.598-180.253c-0.521-0.609-1.066-1.197-1.636-1.767
		L926.638,12.428c-5.896-5.894-13.888-9.204-22.221-9.204s-16.325,3.31-22.221,9.204L336.869,557.764
		c-0.57,0.57-1.114,1.157-1.635,1.767c-46.734,54.489-85.298,115.146-114.616,180.275c-43.635,96.911-65.76,200.335-65.76,307.411
		c0,413.309,336.251,749.56,749.56,749.56c413.308,0,749.56-336.251,749.56-749.56
		C1653.977,940.141,1631.852,836.716,1588.221,739.806z M904.417,1733.932c-378.655,0-686.715-308.06-686.715-686.715
		c0-98.12,20.262-192.865,60.219-281.608c26.697-59.303,61.767-114.563,104.244-164.266L904.417,79.084l522.274,522.28
		c42.46,49.685,77.525,104.941,104.227,164.244c39.957,88.739,60.214,183.488,60.214,281.608
		C1591.132,1425.872,1283.072,1733.932,904.417,1733.932z"/>
	<path fill="#333333" d="M1400.234,1103.192c-17.354,0-31.422,14.067-31.422,31.423c0,133.133-145.486,392.252-412.182,392.252
		c-17.354,0-31.422,14.068-31.422,31.423c0,17.355,14.067,31.423,31.422,31.423c135.527,0,261.212-59.93,353.896-168.75
		c73.584-86.398,121.13-198.797,121.13-286.348C1431.657,1117.26,1417.59,1103.192,1400.234,1103.192z"/>
</g>
<g>
</g>
<g>
</g>
<g>
</g>
<g>
</g>
<g>
</g>
<g>
</g>
</svg>
