<?xml version="1.0" encoding="utf-8"?>
<!-- Generator: Adobe Illustrator 16.0.0, SVG Export Plug-In . SVG Version: 6.00 Build 0)  -->
<!DOCTYPE svg PUBLIC "-//W3C//DTD SVG 1.1//EN" "http://www.w3.org/Graphics/SVG/1.1/DTD/svg11.dtd">
<svg version="1.1" id="TELESCOPE" xmlns="http://www.w3.org/2000/svg" xmlns:xlink="http://www.w3.org/1999/xlink" x="0px" y="0px"
	 width="1800px" height="1800px" viewBox="0 0 1800 1800" enable-background="new 0 0 1800 1800" xml:space="preserve">
<g>
	<path fill="#333333" d="M1052.813,485.532L609.43,348.438c-16.666-5.157-34.337,4.185-39.486,20.838
		c-5.153,16.658,4.176,34.338,20.838,39.486l443.382,137.095c3.101,0.96,6.245,1.418,9.329,1.418
		c13.486,0,25.969-8.704,30.152-22.256C1078.799,508.361,1069.47,490.682,1052.813,485.532z"/>
	<path fill="#333333" d="M1776.781,656.89l-125.688-38.605c-8.016-2.458-16.648-1.634-24.058,2.286
		c-7.399,3.92-12.932,10.619-15.39,18.622l-12.685,41.283L1491.73,647.72l14.939-49.04c5.082-16.671-4.308-34.307-20.975-39.398
		l-236.936-72.379l8.219-26.951c5.074-16.671-4.308-34.307-20.983-39.398L378.425,158.56l2.409-7.904
		c5.078-16.671-4.308-34.304-20.979-39.396L189.63,59.251c-8.003-2.444-16.658-1.612-24.062,2.326
		c-7.391,3.936-12.919,10.65-15.363,18.664L2.293,565.571c-5.078,16.671,4.308,34.307,20.979,39.398l170.239,52.008
		c3.017,0.921,6.123,1.379,9.223,1.379c5.127,0,10.227-1.251,14.839-3.704c7.395-3.938,12.918-10.65,15.363-18.662l2.396-7.866
		l622.02,190.019c-23.154,21.181-37.707,51.621-37.707,85.404c0,44.838,25.644,83.77,63.02,102.999l-498.98,685.429
		c-10.263,14.096-7.153,33.845,6.944,44.107c5.611,4.078,12.112,6.043,18.556,6.043c9.751,0,19.371-4.502,25.551-12.984
		l469.098-644.389v625.802c0,17.441,14.131,31.571,31.573,31.571c17.433,0,31.563-14.13,31.563-31.571v-625.802l469.097,644.389
		c6.185,8.482,15.795,12.984,25.556,12.984c6.439,0,12.939-1.965,18.551-6.043c14.095-10.263,17.205-30.012,6.941-44.107
		l-498.977-685.429c37.376-19.229,63.02-58.161,63.02-102.999c0-9.364-1.146-18.464-3.251-27.194l44.943,13.733
		c3.021,0.925,6.122,1.378,9.224,1.378c5.127,0,10.227-1.251,14.843-3.704c7.391-3.938,12.914-10.65,15.362-18.662l8.201-26.902
		l236.893,72.361c3.021,0.925,6.123,1.379,9.223,1.379c5.127,0,10.228-1.251,14.844-3.704c7.391-3.938,12.914-10.65,15.363-18.662
		l14.931-48.991l106.81,32.633l-13.963,45.441c-2.457,8.007-1.639,16.657,2.291,24.058c3.92,7.395,10.615,12.936,18.622,15.394
		l125.687,38.601c3.084,0.951,6.202,1.401,9.276,1.401c13.505,0,25.995-8.729,30.171-22.313l87.06-283.452
		C1802.803,679.67,1793.447,662.008,1776.781,656.89z M181.741,587.36L71.893,553.802l129.505-424.934l109.835,33.558
		L181.741,587.36z M935.405,956.158c-29.017,0-52.618-23.6-52.618-52.611c0-29.013,23.602-52.616,52.618-52.616
		c29.009,0,52.607,23.604,52.607,52.616C988.013,932.559,964.414,956.158,935.405,956.158z M272.061,573.323l106.294-348.767
		l809.024,247.163l-106.29,348.749L272.061,573.323z M1365.603,844.94l-204.968-62.61l71.467-234.496l204.969,62.615l-24.207,79.426
		l-32.33,106.069c-0.018,0.035-0.018,0.07-0.025,0.106L1365.603,844.94z M1473.318,708.119l105.479,32.219l-23.177,76.07
		l-105.487-32.232L1473.318,708.119z M1659.533,931.074l-65.319-20.063l68.517-223.097l65.328,20.063L1659.533,931.074z"/>
</g>
<g>
</g>
<g>
</g>
<g>
</g>
<g>
</g>
<g>
</g>
<g>
</g>
</svg>
