<?xml version="1.0" encoding="utf-8"?>
<!-- Generator: Adobe Illustrator 16.0.0, SVG Export Plug-In . SVG Version: 6.00 Build 0)  -->
<!DOCTYPE svg PUBLIC "-//W3C//DTD SVG 1.1//EN" "http://www.w3.org/Graphics/SVG/1.1/DTD/svg11.dtd">
<svg version="1.1" id="USB" xmlns="http://www.w3.org/2000/svg" xmlns:xlink="http://www.w3.org/1999/xlink" x="0px" y="0px"
	 width="1800px" height="1800px" viewBox="0 0 1800 1800" enable-background="new 0 0 1800 1800" xml:space="preserve">
<g>
	<path fill="#333333" d="M1563.436,1321.387c-17.391,0-31.487,14.098-31.487,31.488c0,27.012-15.801,74.633-50.5,115.373
		c-26.98,31.68-73.952,69.445-144.492,69.445c-17.392,0-31.487,14.096-31.487,31.482c0,17.396,14.096,31.488,31.487,31.488
		c169.369,0,257.968-161.313,257.968-247.789C1594.924,1335.484,1580.827,1321.387,1563.436,1321.387z"/>
	<path fill="#333333" d="M1656.3,972.827L831.573,148.096c-5.909-5.906-13.917-9.223-22.267-9.223s-16.359,3.316-22.268,9.223
		l-96.25,96.253L457.952,11.523c-12.292-12.3-32.23-12.295-44.53,0L11.634,413.309c-12.3,12.3-12.3,32.234-0.004,44.534
		L244.466,690.68l-96.255,96.255c-12.296,12.295-12.296,32.23,0,44.53l824.723,824.725c91.26,91.247,212.603,141.5,341.676,141.51
		c0,0,0.026,0,0.04,0c129.043,0,250.377-50.263,341.65-141.527C1844.689,1467.777,1844.689,1161.23,1656.3,972.827z M435.688,78.318
		L645.48,288.097L288.214,645.368L78.427,435.576L435.688,78.318z M1611.77,1611.646c-79.382,79.369-184.889,123.086-297.12,123.077
		c-0.005,0-0.026,0-0.026,0c-112.263-0.009-217.795-43.718-297.16-123.069L215.008,809.197l594.298-594.307l802.46,802.467
		C1775.604,1181.204,1775.604,1447.803,1611.77,1611.646z"/>
	<path fill="#333333" d="M332.216,511.8c8.056,0,16.117-3.075,22.267-9.225c12.295-12.295,12.295-32.23-0.004-44.53l-75.952-75.947
		c-12.291-12.291-32.229-12.295-44.53,0.004c-12.295,12.295-12.295,32.23,0.004,44.53l75.952,75.947
		C316.099,508.725,324.16,511.8,332.216,511.8z"/>
	<path fill="#333333" d="M458.153,354.371c6.15,6.146,14.211,9.221,22.268,9.221c8.056,0,16.117-3.075,22.267-9.221
		c12.295-12.3,12.295-32.234,0-44.534l-75.943-75.943c-12.3-12.291-32.234-12.291-44.534,0c-12.296,12.3-12.296,32.234,0,44.534
		L458.153,354.371z"/>
</g>
<g>
</g>
<g>
</g>
<g>
</g>
<g>
</g>
<g>
</g>
<g>
</g>
</svg>
