<?xml version="1.0" encoding="utf-8"?>
<!-- Generator: Adobe Illustrator 16.0.0, SVG Export Plug-In . SVG Version: 6.00 Build 0)  -->
<!DOCTYPE svg PUBLIC "-//W3C//DTD SVG 1.1//EN" "http://www.w3.org/Graphics/SVG/1.1/DTD/svg11.dtd">
<svg version="1.1" id="CHART_GEAR" xmlns="http://www.w3.org/2000/svg" xmlns:xlink="http://www.w3.org/1999/xlink" x="0px" y="0px"
	 width="1800px" height="1800px" viewBox="0 0 1800 1800" enable-background="new 0 0 1800 1800" xml:space="preserve">
<g>
	<path fill="#333333" d="M1769.23,755.728l-192.154-30.952c-16.273-63.095-41.242-123.328-74.449-179.583l114.021-157.817
		c9.064-12.537,7.685-29.796-3.253-40.737l-160.029-160.029c-10.945-10.937-28.204-12.317-40.741-3.257l-157.813,114.025
		c-56.25-33.202-116.483-58.171-179.582-74.445L1044.273,30.77c-2.462-15.271-15.641-26.499-31.114-26.499h-226.32
		c-15.465,0-28.644,11.227-31.105,26.499l-30.956,192.159c-63.09,16.273-123.323,41.243-179.583,74.449l-157.82-114.03
		c-12.537-9.051-29.8-7.68-40.737,3.262L186.609,346.643c-10.937,10.937-12.317,28.196-3.257,40.733l114.026,157.813
		c-33.189,56.232-58.167,116.479-74.445,179.586L30.77,755.728c-15.271,2.462-26.499,15.641-26.499,31.11v226.324
		c0,15.47,11.227,28.648,26.499,31.11l192.163,30.956c16.278,63.104,41.252,123.35,74.445,179.582l-114.026,157.813
		c-9.06,12.537-7.68,29.796,3.257,40.732l160.029,160.033c10.941,10.946,28.195,12.313,40.737,3.263l157.82-114.03
		c56.25,33.197,116.483,58.171,179.583,74.444l30.956,192.163c2.461,15.271,15.641,26.499,31.105,26.499h226.32
		c15.474,0,28.652-11.228,31.114-26.499l30.956-192.167c63.099-16.274,123.341-41.247,179.573-74.44l157.822,114.03
		c12.546,9.055,29.805,7.68,40.741-3.258l160.029-160.029c10.938-10.941,12.317-28.199,3.253-40.736l-114.021-157.818
		c33.189-56.232,58.167-116.479,74.44-179.582l192.163-30.956c15.271-2.462,26.499-15.641,26.499-31.11V786.837
		C1795.729,771.368,1784.502,758.189,1769.23,755.728z M1732.71,986.32l-186.353,30.02c-12.704,2.048-22.894,11.618-25.725,24.178
		c-15.931,70.629-43.669,137.557-82.459,198.919c-6.884,10.885-6.444,24.855,1.091,35.291l110.583,153.053l-122.065,122.07
		l-153.066-110.588c-10.444-7.544-24.415-7.97-35.29-1.095c-61.358,38.794-128.282,66.532-198.906,82.449
		c-12.555,2.831-22.13,13.021-24.178,25.729l-30.024,186.361H813.681l-30.015-186.356c-2.048-12.709-11.623-22.895-24.186-25.726
		c-70.607-15.922-137.531-43.664-198.916-82.458c-10.893-6.88-24.854-6.444-35.29,1.095l-153.051,110.588l-122.07-122.075
		l110.584-153.048c7.539-10.436,7.974-24.406,1.095-35.291c-38.79-61.362-66.532-128.29-82.463-198.919
		c-2.831-12.56-13.016-22.13-25.725-24.178L67.291,986.32V813.679l186.352-30.015c12.709-2.048,22.895-11.619,25.725-24.177
		c15.931-70.634,43.673-137.562,82.463-198.925c6.879-10.884,6.444-24.854-1.095-35.29L250.152,372.223l122.07-122.074
		l153.051,110.588c10.436,7.539,24.415,7.975,35.29,1.095c61.394-38.803,128.317-66.545,198.916-82.459
		c12.563-2.831,22.138-13.021,24.186-25.729l30.015-186.352h172.637l30.024,186.356c2.048,12.708,11.623,22.898,24.178,25.729
		c70.624,15.917,137.548,43.656,198.915,82.454c10.875,6.875,24.846,6.449,35.29-1.095l153.058-110.584l122.065,122.07
		l-110.583,153.053c-7.535,10.436-7.975,24.406-1.091,35.291c38.799,61.385,66.546,128.308,82.459,198.915
		c2.831,12.56,13.021,22.134,25.725,24.182l186.353,30.015V986.32z"/>
	<path fill="#333333" d="M899.999,415.369c-267.219,0-484.624,217.4-484.624,484.624s217.405,484.628,484.624,484.628
		c267.229,0,484.633-217.404,484.633-484.628S1167.228,415.369,899.999,415.369z M1174.867,580.563L900.008,855.427L625.14,580.567
		C699,516.919,795.086,478.389,899.999,478.389C1004.921,478.389,1101.007,516.924,1174.867,580.563z M478.396,899.993
		c0-104.918,38.534-201,102.179-274.859l287.924,287.915v407.379C650.68,1304.259,478.396,1121.868,478.396,899.993z
		 M931.518,1320.428V913.049l287.915-287.92c63.645,73.86,102.18,169.942,102.18,274.864
		C1321.612,1121.868,1149.336,1304.25,931.518,1320.428z"/>
</g>
<g>
</g>
<g>
</g>
<g>
</g>
<g>
</g>
<g>
</g>
<g>
</g>
</svg>
