<?xml version="1.0" encoding="utf-8"?>
<!-- Generator: Adobe Illustrator 16.0.0, SVG Export Plug-In . SVG Version: 6.00 Build 0)  -->
<!DOCTYPE svg PUBLIC "-//W3C//DTD SVG 1.1//EN" "http://www.w3.org/Graphics/SVG/1.1/DTD/svg11.dtd">
<svg version="1.1" id="PRESENTATION" xmlns="http://www.w3.org/2000/svg" xmlns:xlink="http://www.w3.org/1999/xlink" x="0px"
	 y="0px" width="1800px" height="1800px" viewBox="0 0 1800 1800" enable-background="new 0 0 1800 1800" xml:space="preserve">
<g>
	<path fill="#333333" d="M1766.471,171.322c17.431,0,31.56-14.128,31.56-31.559V31.56c0-17.431-14.129-31.56-31.56-31.56H33.529
		C16.099,0,1.97,14.128,1.97,31.56v108.203c0,17.431,14.129,31.559,31.56,31.559h109.048v924.236H33.529
		c-17.431,0-31.56,14.128-31.56,31.559v108.204c0,17.431,14.129,31.559,31.56,31.559h786.238l-497.67,478.822
		c-12.561,12.081-12.944,32.062-0.858,44.622c6.195,6.438,14.463,9.678,22.745,9.678c7.872,0,15.758-2.928,21.878-8.819
		l472.548-454.654v431.914c0,17.431,14.129,31.56,31.56,31.56s31.559-14.129,31.559-31.56v-431.914l472.549,454.654
		c6.124,5.892,14.005,8.819,21.877,8.819c8.281,0,16.551-3.24,22.745-9.678c12.085-12.561,11.702-32.541-0.858-44.622
		l-497.671-478.822h846.302c17.431,0,31.56-14.128,31.56-31.559v-108.204c0-17.431-14.129-31.559-31.56-31.559h-109.049V171.322
		H1766.471z M65.088,63.118h1669.824v45.085h-109.049H174.137H65.088V63.118z M1734.912,1203.761H65.088v-45.085h109.049h1451.727
		h109.049V1203.761z M1594.304,1095.558H205.696V171.322h1388.607V1095.558z"/>
	<path fill="#333333" d="M502.242,852.752c8.075,0,16.154-3.082,22.313-9.242l171.52-171.511l197.717,197.717
		c6.164,6.159,14.243,9.241,22.317,9.241c8.075,0,16.154-3.082,22.318-9.241l269.904-269.905l0.005,181.012
		c0,17.431,14.128,31.56,31.56,31.56c17.43,0,31.559-14.129,31.559-31.56l-0.009-260.289c0-8.73-3.544-16.634-9.276-22.344
		c-5.711-5.728-13.613-9.277-22.344-9.277l-260.285-0.009c-17.426,0-31.56,14.129-31.56,31.56s14.129,31.559,31.56,31.559
		l187.299,0.009l-250.73,250.731L718.394,605.046c-12.328-12.319-32.308-12.319-44.636,0c-0.014,0.013-0.026,0.031-0.04,0.044
		L479.929,798.875c-12.328,12.328-12.328,32.308-0.004,44.631C486.088,849.67,494.163,852.752,502.242,852.752z"/>
</g>
<g>
</g>
<g>
</g>
<g>
</g>
<g>
</g>
<g>
</g>
<g>
</g>
</svg>
