<?xml version="1.0" encoding="utf-8"?>
<!-- Generator: Adobe Illustrator 16.0.0, SVG Export Plug-In . SVG Version: 6.00 Build 0)  -->
<!DOCTYPE svg PUBLIC "-//W3C//DTD SVG 1.1//EN" "http://www.w3.org/Graphics/SVG/1.1/DTD/svg11.dtd">
<svg version="1.1" id="FLAG" xmlns="http://www.w3.org/2000/svg" xmlns:xlink="http://www.w3.org/1999/xlink" x="0px" y="0px"
	 width="1800px" height="1800px" viewBox="0 0 1800 1800" enable-background="new 0 0 1800 1800" xml:space="preserve">
<g>
	<path fill="#333333" d="M1099.021,1358.872c-24.524-10.022-50.942-18.95-78.808-26.835l-51.576,51.575
		c152,36.272,245.715,100.936,245.715,161.021c0,89.873-209.631,190.014-510.447,190.014
		c-300.812,0-510.448-100.141-510.448-190.014c0-60.081,93.715-124.748,245.711-161.021l-51.575-51.575
		c-27.863,7.885-54.28,16.813-78.796,26.835c-114.981,46.993-178.304,112.964-178.304,185.761s63.323,138.769,178.304,185.762
		c106.048,43.344,246.366,67.214,395.107,67.214c148.746,0,289.068-23.87,395.116-67.214
		c114.977-46.993,178.294-112.965,178.294-185.762S1213.997,1405.865,1099.021,1358.872z"/>
	<path fill="#333333" d="M1646.857,537.94L735.386,271.5v-66.372c41.896-13.364,72.331-52.65,72.331-98.919
		c0-57.245-46.572-103.816-103.813-103.816S600.092,48.964,600.092,106.208c0,46.269,30.437,85.555,72.332,98.919v1359.694
		c0,17.389,14.094,31.482,31.481,31.482c17.388,0,31.481-14.094,31.481-31.482V864.814l911.472-266.441
		c13.422-3.922,22.648-16.232,22.648-30.216C1669.506,554.173,1660.279,541.862,1646.857,537.94z M703.904,65.354
		c22.526,0,40.85,18.328,40.85,40.854s-18.323,40.849-40.85,40.849s-40.849-18.323-40.849-40.849S681.378,65.354,703.904,65.354z
		 M735.39,799.217V337.098l790.431,231.06L735.39,799.217z"/>
</g>
<g>
</g>
<g>
</g>
<g>
</g>
<g>
</g>
<g>
</g>
<g>
</g>
</svg>
