<?xml version="1.0" encoding="utf-8"?>
<!-- Generator: Adobe Illustrator 16.0.0, SVG Export Plug-In . SVG Version: 6.00 Build 0)  -->
<!DOCTYPE svg PUBLIC "-//W3C//DTD SVG 1.1//EN" "http://www.w3.org/Graphics/SVG/1.1/DTD/svg11.dtd">
<svg version="1.1" id="WARNING" xmlns="http://www.w3.org/2000/svg" xmlns:xlink="http://www.w3.org/1999/xlink" x="0px" y="0px"
	 width="1800px" height="1800px" viewBox="0 0 1800 1800" enable-background="new 0 0 1800 1800" xml:space="preserve">
<g>
	<path fill="#333333" d="M770.8,796.605v265.968c0,71.216,57.939,129.154,129.154,129.154c71.209,0,129.148-57.938,129.157-129.154
		l-0.009-265.964c0-71.215-57.93-129.154-129.148-129.154C828.739,667.456,770.8,725.39,770.8,796.605z M966.08,796.609
		l0.009,265.96c-0.009,36.469-29.672,66.138-66.135,66.138c-36.464,0-66.133-29.669-66.133-66.134V796.605
		c0-36.465,29.668-66.129,66.133-66.129C936.417,730.476,966.08,760.145,966.08,796.609z"/>
	<path fill="#333333" d="M899.954,1231.867c-71.566,0-129.787,58.221-129.787,129.787c0,71.572,58.221,129.796,129.787,129.796
		c71.569,0,129.791-58.224,129.791-129.796C1029.744,1290.088,971.522,1231.867,899.954,1231.867z M899.954,1428.43
		c-36.816,0-66.766-29.954-66.766-66.775c0-36.816,29.95-66.767,66.766-66.767c36.814,0,66.768,29.95,66.768,66.767
		C966.722,1398.476,936.768,1428.43,899.954,1428.43z"/>
	<path fill="#333333" d="M1790.452,1630.839L927.246,135.725c-5.635-9.75-16.037-15.755-27.292-15.755
		c-11.258,0-21.659,6.004-27.29,15.755L8.344,1632.76c-5.627,9.751-5.627,21.761,0,31.511c5.631,9.75,16.032,15.755,27.29,15.755
		h1728.644c0.037,0.004,0.063,0.004,0.089,0c17.4,0,31.511-14.106,31.511-31.51
		C1795.877,1641.964,1793.882,1635.881,1790.452,1630.839z M90.21,1617.004L899.954,214.5l809.745,1402.503H90.21z"/>
</g>
<g>
</g>
<g>
</g>
<g>
</g>
<g>
</g>
<g>
</g>
<g>
</g>
</svg>
