<?xml version="1.0" encoding="utf-8"?>
<!-- Generator: Adobe Illustrator 16.0.0, SVG Export Plug-In . SVG Version: 6.00 Build 0)  -->
<!DOCTYPE svg PUBLIC "-//W3C//DTD SVG 1.1//EN" "http://www.w3.org/Graphics/SVG/1.1/DTD/svg11.dtd">
<svg version="1.1" id="SECURITY" xmlns="http://www.w3.org/2000/svg" xmlns:xlink="http://www.w3.org/1999/xlink" x="0px" y="0px"
	 width="1800px" height="1800px" viewBox="0 0 1800 1800" enable-background="new 0 0 1800 1800" xml:space="preserve">
<g>
	<path fill="#333333" d="M1590.487,1148.496V645.409C1648.671,631.251,1692,578.732,1692,516.255
		c0-73.311-59.631-132.951-132.941-132.951c-38.059,0-72.407,16.104-96.673,41.83l-437.927-252.835
		c3.481-11.86,5.375-24.388,5.375-37.357C1029.834,61.64,970.203,2,896.895,2c-73.302,0-132.941,59.64-132.941,132.942
		c0,12.969,1.903,25.497,5.384,37.357L331.416,425.129c-24.255-25.725-58.609-41.825-96.667-41.825
		c-73.311,0-132.95,59.64-132.95,132.951c0,62.472,43.333,114.991,101.512,129.154v503.093
		c-58.179,14.161-101.512,66.68-101.512,129.156c0,73.302,59.639,132.942,132.95,132.942c36.406,0,69.431-14.72,93.467-38.51
		l441.122,254.681c-3.481,11.86-5.384,24.388-5.384,37.356c0,73.304,59.64,132.942,132.941,132.942
		c73.309,0,132.939-59.639,132.939-132.942c0-12.969-1.894-25.496-5.375-37.356l441.128-254.69
		c24.036,23.796,57.062,38.52,93.472,38.52c73.311,0,132.941-59.641,132.941-132.942
		C1692,1215.178,1648.671,1162.653,1590.487,1148.496z M1489.476,1285.709c-0.299-2.645-0.5-5.323-0.5-8.051
		c0-27.333,15.766-51.006,38.645-62.555c9.473-4.78,20.126-7.533,31.438-7.533c11.304,0,21.958,2.753,31.42,7.529
		c22.896,11.545,38.664,35.216,38.664,62.559c0,38.646-31.438,70.084-70.084,70.084c-12.742,0-24.659-3.473-34.963-9.439
		C1505.347,1327.45,1492.061,1308.205,1489.476,1285.709z M1519.764,458.255c11.216-7.625,24.738-12.093,39.295-12.093
		c38.646,0,70.084,31.442,70.084,70.093c0,27.338-15.768,51.006-38.655,62.555c-9.462,4.775-20.116,7.528-31.429,7.528
		c-11.304,0-21.959-2.753-31.43-7.533c-22.888-11.545-38.653-35.213-38.653-62.551c0-1.048,0.113-2.066,0.156-3.1
		C1490.141,490.351,1502.006,470.331,1519.764,458.255z M826.811,134.942c0-38.646,31.438-70.084,70.083-70.084
		c38.645,0,70.082,31.438,70.082,70.084c0,1.368-0.123,2.701-0.201,4.051c-1.308,22.747-13.443,42.614-31.396,54.457
		c-11.057,7.296-24.272,11.576-38.485,11.576c-14.206,0-27.421-4.28-38.479-11.576c-17.95-11.843-30.087-31.71-31.394-54.457
		C826.942,137.643,826.811,136.31,826.811,134.942z M164.656,516.255c0-38.651,31.442-70.093,70.092-70.093
		c14.553,0,28.08,4.463,39.295,12.088c17.758,12.071,29.627,32.096,30.631,54.9c0.048,1.035,0.158,2.056,0.158,3.104
		c0,27.342-15.772,51.01-38.664,62.559c-9.466,4.771-20.116,7.524-31.42,7.524c-11.312,0-21.971-2.753-31.438-7.533
		C180.422,567.257,164.656,543.589,164.656,516.255z M269.707,1338.311c-10.304,5.965-22.221,9.432-34.958,9.432
		c-38.65,0-70.092-31.438-70.092-70.084c0-27.337,15.767-51.006,38.654-62.555c9.467-4.78,20.126-7.533,31.438-7.533
		c11.304,0,21.954,2.753,31.42,7.523c22.892,11.551,38.664,35.222,38.664,62.564c0,2.731-0.198,5.41-0.5,8.059
		C301.741,1308.215,288.46,1327.46,269.707,1338.311z M966.977,1664.128c0,38.646-31.438,70.084-70.082,70.084
		c-38.646,0-70.083-31.438-70.083-70.084c0-1.368,0.131-2.704,0.21-4.051c1.307-22.743,13.444-42.615,31.394-54.462
		c11.058-7.295,24.273-11.575,38.479-11.575c14.213,0,27.429,4.28,38.485,11.575c17.952,11.847,30.088,31.719,31.396,54.462
		C966.854,1661.424,966.977,1662.76,966.977,1664.128z M992.959,1572.372c-24.22-25.349-58.314-41.19-96.064-41.19
		c-37.743,0-71.837,15.842-96.059,41.19l-439.614-253.809c4.183-12.892,6.467-26.633,6.467-40.905
		c0-62.48-43.337-115.005-101.521-129.162V645.413c58.185-14.158,101.521-66.681,101.521-129.158c0-12.663-1.819-24.905-5.143-36.52
		l438.289-253.042c24.221,25.352,58.315,41.189,96.059,41.189c37.75,0,71.845-15.837,96.064-41.189l438.297,253.046
		c-3.314,11.61-5.139,23.853-5.139,36.515c0,62.472,43.337,114.991,101.512,129.154l-0.009,503.093
		c-58.174,14.161-101.503,66.68-101.503,129.156c0,14.269,2.289,28.004,6.471,40.897L992.959,1572.372z"/>
	<path fill="#333333" d="M1264.597,747.992L916.255,475.829c-11.365-8.884-27.332-8.884-38.696,0L529.218,747.992
		c-7.63,5.954-12.084,15.092-12.084,24.764c0,233.561,100.426,372.219,184.671,447.416
		c91.516,81.682,182.901,107.541,186.742,108.604c2.736,0.753,5.55,1.131,8.357,1.131c2.815,0,5.628-0.378,8.355-1.131
		c3.849-1.063,95.225-26.922,186.74-108.604c84.247-75.197,184.673-213.855,184.673-447.416
		C1276.672,763.083,1272.216,753.946,1264.597,747.992z M1052.223,1171.406c-65.664,59.303-132.381,86.044-155.372,94.063
		c-22.677-7.841-87.754-33.792-153.19-92.195c-105.319-94.003-160.293-223.577-163.521-385.308l316.763-247.491l316.761,247.491
		C1210.464,948.58,1156.191,1077.519,1052.223,1171.406z"/>
</g>
<g>
</g>
<g>
</g>
<g>
</g>
<g>
</g>
<g>
</g>
<g>
</g>
</svg>
