<?xml version="1.0" encoding="UTF-8"?> <!-- Creator: CorelDRAW X7 --> <svg xmlns="http://www.w3.org/2000/svg" xmlns:xlink="http://www.w3.org/1999/xlink" xml:space="preserve" width="93.1088mm" height="19.6202mm" style="shape-rendering:geometricPrecision; text-rendering:geometricPrecision; image-rendering:optimizeQuality; fill-rule:evenodd; clip-rule:evenodd" viewBox="0 0 5627 1186"> <defs> <style type="text/css"> <![CDATA[ .fil0 {fill:#045A8D} ]]> </style> </defs> <g id="Слой_x0020_1"> <metadata id="CorelCorpID_0Corel-Layer"></metadata> <path class="fil0" d="M4094 401l0 462 275 0 0 138 -424 0 0 -600 149 0zm-26 26l-97 0 0 548 372 0 0 -86 -275 0 0 -462zm515 130l0 444 -147 0 0 -444 147 0zm-26 26l-95 0 0 392 95 0 0 -392zm29 -208l0 130 -153 1 0 -131 153 0zm-26 26l-101 0 0 79 101 0 0 -79zm260 156l0 40c25,-26 55,-44 91,-48 51,-7 106,6 141,46 29,32 39,83 39,125l0 281 -147 0 0 -242c0,-40 -14,-73 -60,-74 -44,0 -64,31 -64,74l0 242 -147 0 0 -444c50,0 97,0 147,0zm-26 26l-95 0 0 392 95 0 0 -216c0,-57 30,-101 90,-100 63,0 86,45 86,100l0 216 95 0 0 -255c0,-35 -8,-81 -32,-108 -30,-33 -77,-43 -119,-37 -51,6 -98,49 -120,94l0 -86zm528 -182l0 291 122 -135 183 0 -177 182 169 262 -171 0 -100 -158 -26 28 0 130 -147 0 -1 -600 148 0zm-26 26l-95 0 0 548 95 0 0 -115 56 -59 111 174 108 0 -154 -240 148 -152 -110 0 -160 174 1 -330zm-3638 579c-41,-1 -80,-8 -118,-24 -18,-8 -35,-17 -50,-27 -16,-11 -30,-23 -43,-36 -14,-14 -25,-28 -35,-44 -11,-16 -19,-33 -27,-51 -7,-18 -13,-37 -16,-56 -7,-39 -7,-82 0,-121 4,-19 10,-38 17,-56 8,-17 17,-34 27,-50 10,-16 22,-30 35,-44 13,-13 28,-26 44,-36 33,-22 70,-38 109,-45 20,-4 42,-6 64,-6 12,0 25,1 38,2 79,7 138,39 193,93l-88 100c-23,-20 -44,-37 -71,-50 -11,-6 -22,-10 -35,-13 -12,-2 -25,-4 -39,-4 -11,0 -22,1 -32,3 -42,9 -76,35 -98,71 -12,18 -20,39 -23,60 -4,22 -4,47 -1,69 6,32 20,62 41,86 13,16 30,28 49,37 9,5 19,8 30,10 11,3 22,4 33,4 15,0 29,-1 43,-4 26,-6 46,-18 68,-33 13,-10 25,-20 37,-31l88 89c-31,33 -61,60 -103,80 -9,4 -19,8 -30,11 -35,12 -71,16 -107,16zm529 -117c23,0 44,-6 62,-19 30,-21 43,-56 44,-91 -1,-8 -1,-16 -2,-24 -9,-52 -52,-90 -104,-90 -65,0 -105,48 -106,110 1,31 8,57 30,80 4,5 10,10 15,14 19,13 39,20 61,20zm-2 119c-17,0 -33,-2 -49,-5 -16,-3 -31,-7 -46,-13 -14,-6 -28,-14 -40,-22 -25,-16 -47,-37 -63,-61 -9,-13 -16,-26 -22,-40 -6,-14 -10,-28 -13,-43 -6,-30 -6,-65 0,-95 3,-15 8,-29 14,-43 6,-14 13,-27 22,-39 17,-25 39,-46 64,-62 13,-8 26,-15 41,-21 14,-6 30,-11 46,-14 16,-3 32,-4 50,-4 34,0 65,6 95,18 14,6 28,13 40,21 25,16 47,37 63,62 9,12 16,25 22,39 6,14 10,29 13,44 6,30 6,64 0,94 -3,15 -8,30 -14,44 -6,13 -13,26 -22,39 -8,12 -18,23 -29,34 -22,21 -47,37 -76,49 -14,6 -30,10 -46,13 -16,3 -33,5 -50,5zm531 -117c7,0 13,-1 19,-2 7,-1 13,-3 19,-6 6,-2 11,-6 16,-9 22,-17 37,-43 42,-71 2,-15 3,-34 0,-50 -1,-7 -3,-15 -6,-22 -7,-19 -19,-36 -35,-48 -5,-4 -11,-7 -17,-10 -11,-5 -24,-8 -37,-8 -20,0 -38,6 -55,17 -10,8 -19,18 -26,29 -8,13 -13,27 -16,41 -3,16 -3,35 0,51 1,7 3,15 6,22 12,31 36,57 70,64 7,1 13,2 20,2zm-32 117c-13,0 -26,-1 -38,-4 -13,-2 -25,-6 -38,-11 -12,-5 -23,-12 -34,-19 -11,-7 -21,-16 -30,-26 -20,-21 -35,-46 -45,-72 -6,-15 -10,-30 -13,-46 -5,-33 -5,-73 1,-106 2,-16 7,-31 12,-45 6,-14 13,-27 20,-39 8,-13 16,-23 26,-33 9,-10 19,-19 30,-26 21,-15 46,-25 72,-30 13,-2 26,-3 39,-3 17,0 32,2 46,5 14,3 27,9 38,15 18,11 27,19 42,34l0 -201 136 0 0 600 -136 0 0 -50c-5,5 -9,9 -14,14 -20,18 -41,32 -68,38 -15,4 -30,5 -46,5zm641 -268c-4,-20 -11,-39 -25,-55 -7,-8 -16,-13 -25,-17 -9,-4 -20,-6 -32,-6 -11,0 -22,1 -32,5 -30,12 -46,43 -53,72l167 1zm-71 272c-17,0 -33,-2 -48,-4 -16,-3 -30,-7 -44,-13 -42,-16 -77,-44 -102,-81 -8,-12 -15,-25 -20,-39 -6,-14 -10,-29 -13,-45 -3,-16 -4,-33 -4,-50 0,-16 1,-31 4,-46 3,-15 7,-29 12,-43 6,-14 12,-27 20,-39 30,-50 80,-86 138,-98 14,-3 30,-4 46,-4 17,0 35,2 52,5 76,16 130,73 152,147 12,43 14,83 10,128l-298 -1c3,10 7,19 11,27 6,9 13,18 21,24 9,7 18,12 29,15 11,3 23,5 36,5 17,0 35,-2 52,-9 7,-4 15,-8 23,-13 11,-7 20,-15 29,-24l79 71c-50,61 -108,87 -185,87zm418 -455l-1 64c18,-29 47,-57 81,-67 20,-5 37,-5 58,-4l-1 141 -6 0c-38,0 -71,6 -98,34 -27,29 -33,73 -34,110l0 166 -136 0 0 -444c45,0 91,0 137,0z"></path> <path class="fil0" d="M969 40c-50,-18 -105,8 -123,57 -14,40 -1,82 30,107l-38 63c33,6 65,16 94,31l19 -74c33,-5 63,-27 75,-61 18,-50 -8,-105 -57,-123zm-733 171l64 118c97,-30 206,-38 314,-34 189,7 388,39 477,225l-17 10c-26,-42 -69,-74 -141,-91 -44,-10 -167,-21 -212,-23 -198,-7 -294,91 -301,282 0,5 0,79 0,85 7,191 103,288 301,281 45,-1 169,-14 213,-26 84,-21 129,-63 152,-118l18 10c-79,209 -287,252 -490,256 -294,5 -603,-70 -614,-432 0,-8 0,-20 0,-28 5,-174 80,-283 188,-348l-38 -119 -6 -20c-48,-5 -89,-39 -102,-88 -17,-64 21,-130 85,-147 64,-17 130,21 147,85 12,46 -4,93 -38,122zm794 678c-19,39 -53,66 -116,82 -35,9 -152,14 -188,16 -157,8 -223,-68 -229,-219 -2,-61 2,-118 24,-160l18 9c-2,77 2,127 14,169 22,73 68,103 120,116 73,18 253,6 321,-12 9,-2 16,-5 23,-8l13 7z"></path> </g> </svg> 