<?xml version="1.0" encoding="UTF-8" standalone="no"?>
<!-- Creator: CorelDRAW X7 -->

<svg
   xmlns:dc="http://purl.org/dc/elements/1.1/"
   xmlns:cc="http://creativecommons.org/ns#"
   xmlns:rdf="http://www.w3.org/1999/02/22-rdf-syntax-ns#"
   xmlns:svg="http://www.w3.org/2000/svg"
   xmlns="http://www.w3.org/2000/svg"
   xmlns:sodipodi="http://sodipodi.sourceforge.net/DTD/sodipodi-0.dtd"
   xmlns:inkscape="http://www.inkscape.org/namespaces/inkscape"
   xml:space="preserve"
   width="18.263659mm"
   height="19.624889mm"
   version="1.0"
   style="clip-rule:evenodd;fill-rule:evenodd;image-rendering:optimizeQuality;shape-rendering:geometricPrecision;text-rendering:geometricPrecision"
   viewBox="0 0 1103.7582 1186.2835"
   id="svg4509"
   sodipodi:docname="CL_logo.svg"
   inkscape:version="0.92.1 r15371"><metadata
   id="metadata4513"><rdf:RDF><cc:Work
       rdf:about=""><dc:format>image/svg+xml</dc:format><dc:type
         rdf:resource="http://purl.org/dc/dcmitype/StillImage" /><dc:title></dc:title></cc:Work></rdf:RDF></metadata><sodipodi:namedview
   pagecolor="#ffffff"
   bordercolor="#666666"
   borderopacity="1"
   objecttolerance="10"
   gridtolerance="10"
   guidetolerance="10"
   inkscape:pageopacity="0"
   inkscape:pageshadow="2"
   inkscape:window-width="1440"
   inkscape:window-height="837"
   id="namedview4511"
   showgrid="false"
   inkscape:zoom="1.1338214"
   inkscape:cx="60.680422"
   inkscape:cy="37.091822"
   inkscape:window-x="-8"
   inkscape:window-y="-8"
   inkscape:window-maximized="1"
   inkscape:current-layer="svg4509" />
 <defs
   id="defs4501">
  <style
   type="text/css"
   id="style4499">
   <![CDATA[
    .fil0 {fill:#045A8D}
   ]]>
  </style>
 
  
  
  
 </defs>
 <path
   style="fill:#045a8d"
   inkscape:connector-curvature="0"
   id="path4506"
   d="m 968.38377,40.055086 c -50,-18 -105,8 -123,57 -14,40.000004 -1,82.000004 30,107.000004 l -38,63 c 33,6 65,16 94,31 l 19,-74 c 33,-5 63.00003,-27 75.00003,-61 18,-50 -8,-105.000004 -57.00003,-123.000004 z m -733,171.000004 64,118 c 97,-30 206,-38 314,-34 189,7 388.00003,39 477.00003,225 l -17,10 c -26,-42 -69,-74 -141.00003,-91 -44,-10 -167,-21 -212,-23 -198,-7 -294,91 -301,282 0,5 0,79 0,85 7,191 103,288.00001 301,281.00001 45,-1 169,-14 213,-26 84.00003,-21 129.00003,-63.00001 152.00003,-118.00001 l 18,10 c -79,209.00001 -287.00003,252.00001 -490.00003,256.00001 -294,5 -602.999997,-70 -613.99999696,-432.00001 0,-8 0,-20 0,-28 4.99999996,-174 79.99999996,-283 187.99999696,-348 l -38,-119 -6,-20 c -47.999997,-5 -88.999997,-39 -101.999997,-88 -17,-64.000004 21,-130.000004 84.999997,-147.0000039 64,-17.0000001 130,20.9999999 147,84.9999999 12,46.000004 -4,93.000004 -38,122.000004 z m 794.00003,678 c -19,39 -53.00003,66 -116.00003,82 -35,9 -152,14 -188,16 -157,8 -223,-68 -229,-219 -2,-61 2,-118 24,-160 l 18,9 c -2,77 2,127 14,169 22,73 68,103 120,116 73,18 253,6 321,-12 9.00003,-2 16.00003,-5 23.00003,-8 z"
   class="fil0" />
</svg>